G04 #@! TF.GenerationSoftware,KiCad,Pcbnew,5.1.1-8be2ce7~80~ubuntu18.04.1*
G04 #@! TF.CreationDate,2019-04-20T15:40:35+02:00*
G04 #@! TF.ProjectId,megazord,6d656761-7a6f-4726-942e-6b696361645f,rev?*
G04 #@! TF.SameCoordinates,Original*
G04 #@! TF.FileFunction,Soldermask,Bot*
G04 #@! TF.FilePolarity,Negative*
%FSLAX46Y46*%
G04 Gerber Fmt 4.6, Leading zero omitted, Abs format (unit mm)*
G04 Created by KiCad (PCBNEW 5.1.1-8be2ce7~80~ubuntu18.04.1) date 2019-04-20 15:40:35*
%MOMM*%
%LPD*%
G04 APERTURE LIST*
%ADD10C,0.300000*%
%ADD11C,0.100000*%
G04 APERTURE END LIST*
D10*
X83235714Y-104554761D02*
X83735714Y-103602380D01*
X84092857Y-104554761D02*
X84092857Y-102554761D01*
X83521428Y-102554761D01*
X83378571Y-102650000D01*
X83307142Y-102745238D01*
X83235714Y-102935714D01*
X83235714Y-103221428D01*
X83307142Y-103411904D01*
X83378571Y-103507142D01*
X83521428Y-103602380D01*
X84092857Y-103602380D01*
X82378571Y-104554761D02*
X82521428Y-104459523D01*
X82592857Y-104364285D01*
X82664285Y-104173809D01*
X82664285Y-103602380D01*
X82592857Y-103411904D01*
X82521428Y-103316666D01*
X82378571Y-103221428D01*
X82164285Y-103221428D01*
X82021428Y-103316666D01*
X81950000Y-103411904D01*
X81878571Y-103602380D01*
X81878571Y-104173809D01*
X81950000Y-104364285D01*
X82021428Y-104459523D01*
X82164285Y-104554761D01*
X82378571Y-104554761D01*
X81235714Y-104554761D02*
X81235714Y-102554761D01*
X81235714Y-103316666D02*
X81092857Y-103221428D01*
X80807142Y-103221428D01*
X80664285Y-103316666D01*
X80592857Y-103411904D01*
X80521428Y-103602380D01*
X80521428Y-104173809D01*
X80592857Y-104364285D01*
X80664285Y-104459523D01*
X80807142Y-104554761D01*
X81092857Y-104554761D01*
X81235714Y-104459523D01*
X79664285Y-104554761D02*
X79807142Y-104459523D01*
X79878571Y-104364285D01*
X79950000Y-104173809D01*
X79950000Y-103602380D01*
X79878571Y-103411904D01*
X79807142Y-103316666D01*
X79664285Y-103221428D01*
X79450000Y-103221428D01*
X79307142Y-103316666D01*
X79235714Y-103411904D01*
X79164285Y-103602380D01*
X79164285Y-104173809D01*
X79235714Y-104364285D01*
X79307142Y-104459523D01*
X79450000Y-104554761D01*
X79664285Y-104554761D01*
X78735714Y-103221428D02*
X78164285Y-103221428D01*
X78521428Y-102554761D02*
X78521428Y-104269047D01*
X78450000Y-104459523D01*
X78307142Y-104554761D01*
X78164285Y-104554761D01*
X75807142Y-104554761D02*
X76521428Y-104554761D01*
X76521428Y-102554761D01*
X75307142Y-104554761D02*
X75307142Y-103221428D01*
X75307142Y-102554761D02*
X75378571Y-102650000D01*
X75307142Y-102745238D01*
X75235714Y-102650000D01*
X75307142Y-102554761D01*
X75307142Y-102745238D01*
X74592857Y-103221428D02*
X74592857Y-104554761D01*
X74592857Y-103411904D02*
X74521428Y-103316666D01*
X74378571Y-103221428D01*
X74164285Y-103221428D01*
X74021428Y-103316666D01*
X73950000Y-103507142D01*
X73950000Y-104554761D01*
X72664285Y-104459523D02*
X72807142Y-104554761D01*
X73092857Y-104554761D01*
X73235714Y-104459523D01*
X73307142Y-104269047D01*
X73307142Y-103507142D01*
X73235714Y-103316666D01*
X73092857Y-103221428D01*
X72807142Y-103221428D01*
X72664285Y-103316666D01*
X72592857Y-103507142D01*
X72592857Y-103697619D01*
X73307142Y-103888095D01*
X71450000Y-103507142D02*
X71950000Y-103507142D01*
X71950000Y-104554761D02*
X71950000Y-102554761D01*
X71235714Y-102554761D01*
X70450000Y-104554761D02*
X70592857Y-104459523D01*
X70664285Y-104364285D01*
X70735714Y-104173809D01*
X70735714Y-103602380D01*
X70664285Y-103411904D01*
X70592857Y-103316666D01*
X70450000Y-103221428D01*
X70235714Y-103221428D01*
X70092857Y-103316666D01*
X70021428Y-103411904D01*
X69950000Y-103602380D01*
X69950000Y-104173809D01*
X70021428Y-104364285D01*
X70092857Y-104459523D01*
X70235714Y-104554761D01*
X70450000Y-104554761D01*
X69092857Y-104554761D02*
X69235714Y-104459523D01*
X69307142Y-104269047D01*
X69307142Y-102554761D01*
X68307142Y-104554761D02*
X68450000Y-104459523D01*
X68521428Y-104269047D01*
X68521428Y-102554761D01*
X67521428Y-104554761D02*
X67664285Y-104459523D01*
X67735714Y-104364285D01*
X67807142Y-104173809D01*
X67807142Y-103602380D01*
X67735714Y-103411904D01*
X67664285Y-103316666D01*
X67521428Y-103221428D01*
X67307142Y-103221428D01*
X67164285Y-103316666D01*
X67092857Y-103411904D01*
X67021428Y-103602380D01*
X67021428Y-104173809D01*
X67092857Y-104364285D01*
X67164285Y-104459523D01*
X67307142Y-104554761D01*
X67521428Y-104554761D01*
X66521428Y-103221428D02*
X66235714Y-104554761D01*
X65950000Y-103602380D01*
X65664285Y-104554761D01*
X65378571Y-103221428D01*
X64235714Y-104459523D02*
X64378571Y-104554761D01*
X64664285Y-104554761D01*
X64807142Y-104459523D01*
X64878571Y-104269047D01*
X64878571Y-103507142D01*
X64807142Y-103316666D01*
X64664285Y-103221428D01*
X64378571Y-103221428D01*
X64235714Y-103316666D01*
X64164285Y-103507142D01*
X64164285Y-103697619D01*
X64878571Y-103888095D01*
X63521428Y-104554761D02*
X63521428Y-103221428D01*
X63521428Y-103602380D02*
X63450000Y-103411904D01*
X63378571Y-103316666D01*
X63235714Y-103221428D01*
X63092857Y-103221428D01*
X79950000Y-105854761D02*
X79950000Y-106235714D01*
X79378571Y-105854761D02*
X79378571Y-106235714D01*
X78735714Y-107854761D02*
X78735714Y-105854761D01*
X78235714Y-107283333D01*
X77735714Y-105854761D01*
X77735714Y-107854761D01*
X76450000Y-107759523D02*
X76592857Y-107854761D01*
X76878571Y-107854761D01*
X77021428Y-107759523D01*
X77092857Y-107569047D01*
X77092857Y-106807142D01*
X77021428Y-106616666D01*
X76878571Y-106521428D01*
X76592857Y-106521428D01*
X76450000Y-106616666D01*
X76378571Y-106807142D01*
X76378571Y-106997619D01*
X77092857Y-107188095D01*
X75092857Y-106521428D02*
X75092857Y-108140476D01*
X75164285Y-108330952D01*
X75235714Y-108426190D01*
X75378571Y-108521428D01*
X75592857Y-108521428D01*
X75735714Y-108426190D01*
X75092857Y-107759523D02*
X75235714Y-107854761D01*
X75521428Y-107854761D01*
X75664285Y-107759523D01*
X75735714Y-107664285D01*
X75807142Y-107473809D01*
X75807142Y-106902380D01*
X75735714Y-106711904D01*
X75664285Y-106616666D01*
X75521428Y-106521428D01*
X75235714Y-106521428D01*
X75092857Y-106616666D01*
X73735714Y-107854761D02*
X73735714Y-106807142D01*
X73807142Y-106616666D01*
X73950000Y-106521428D01*
X74235714Y-106521428D01*
X74378571Y-106616666D01*
X73735714Y-107759523D02*
X73878571Y-107854761D01*
X74235714Y-107854761D01*
X74378571Y-107759523D01*
X74450000Y-107569047D01*
X74450000Y-107378571D01*
X74378571Y-107188095D01*
X74235714Y-107092857D01*
X73878571Y-107092857D01*
X73735714Y-106997619D01*
X73164285Y-105854761D02*
X72164285Y-105854761D01*
X73164285Y-107854761D01*
X72164285Y-107854761D01*
X71378571Y-107854761D02*
X71521428Y-107759523D01*
X71592857Y-107664285D01*
X71664285Y-107473809D01*
X71664285Y-106902380D01*
X71592857Y-106711904D01*
X71521428Y-106616666D01*
X71378571Y-106521428D01*
X71164285Y-106521428D01*
X71021428Y-106616666D01*
X70950000Y-106711904D01*
X70878571Y-106902380D01*
X70878571Y-107473809D01*
X70950000Y-107664285D01*
X71021428Y-107759523D01*
X71164285Y-107854761D01*
X71378571Y-107854761D01*
X70235714Y-107854761D02*
X70235714Y-106521428D01*
X70235714Y-106902380D02*
X70164285Y-106711904D01*
X70092857Y-106616666D01*
X69950000Y-106521428D01*
X69807142Y-106521428D01*
X68664285Y-107854761D02*
X68664285Y-105854761D01*
X68664285Y-107759523D02*
X68807142Y-107854761D01*
X69092857Y-107854761D01*
X69235714Y-107759523D01*
X69307142Y-107664285D01*
X69378571Y-107473809D01*
X69378571Y-106902380D01*
X69307142Y-106711904D01*
X69235714Y-106616666D01*
X69092857Y-106521428D01*
X68807142Y-106521428D01*
X68664285Y-106616666D01*
X68021428Y-105854761D02*
X68021428Y-106235714D01*
X67450000Y-105854761D02*
X67450000Y-106235714D01*
X81164285Y-112645238D02*
X81092857Y-112550000D01*
X80950000Y-112454761D01*
X80592857Y-112454761D01*
X80450000Y-112550000D01*
X80378571Y-112645238D01*
X80307142Y-112835714D01*
X80307142Y-113026190D01*
X80378571Y-113311904D01*
X81235714Y-114454761D01*
X80307142Y-114454761D01*
X79878571Y-112645238D02*
X79592857Y-112359523D01*
X79307142Y-112645238D01*
X78878571Y-112645238D02*
X78807142Y-112550000D01*
X78664285Y-112454761D01*
X78307142Y-112454761D01*
X78164285Y-112550000D01*
X78092857Y-112645238D01*
X78021428Y-112835714D01*
X78021428Y-113026190D01*
X78092857Y-113311904D01*
X78950000Y-114454761D01*
X78021428Y-114454761D01*
X77092857Y-112454761D02*
X76950000Y-112454761D01*
X76807142Y-112550000D01*
X76735714Y-112645238D01*
X76664285Y-112835714D01*
X76592857Y-113216666D01*
X76592857Y-113692857D01*
X76664285Y-114073809D01*
X76735714Y-114264285D01*
X76807142Y-114359523D01*
X76950000Y-114454761D01*
X77092857Y-114454761D01*
X77235714Y-114359523D01*
X77307142Y-114264285D01*
X77378571Y-114073809D01*
X77450000Y-113692857D01*
X77450000Y-113216666D01*
X77378571Y-112835714D01*
X77307142Y-112645238D01*
X77235714Y-112550000D01*
X77092857Y-112454761D01*
X74950000Y-112454761D02*
X73950000Y-112454761D01*
X74950000Y-114454761D01*
X73950000Y-114454761D01*
X71878571Y-115121428D02*
X71878571Y-112264285D01*
X69307142Y-115121428D02*
X69307142Y-112264285D01*
X67092857Y-114454761D02*
X67092857Y-112454761D01*
X66735714Y-112454761D01*
X66521428Y-112550000D01*
X66378571Y-112740476D01*
X66307142Y-112930952D01*
X66235714Y-113311904D01*
X66235714Y-113597619D01*
X66307142Y-113978571D01*
X66378571Y-114169047D01*
X66521428Y-114359523D01*
X66735714Y-114454761D01*
X67092857Y-114454761D01*
X158942857Y-105004761D02*
X158942857Y-103004761D01*
X158371428Y-103004761D01*
X158228571Y-103100000D01*
X158157142Y-103195238D01*
X158085714Y-103385714D01*
X158085714Y-103671428D01*
X158157142Y-103861904D01*
X158228571Y-103957142D01*
X158371428Y-104052380D01*
X158942857Y-104052380D01*
X156800000Y-105004761D02*
X156800000Y-103957142D01*
X156871428Y-103766666D01*
X157014285Y-103671428D01*
X157300000Y-103671428D01*
X157442857Y-103766666D01*
X156800000Y-104909523D02*
X156942857Y-105004761D01*
X157300000Y-105004761D01*
X157442857Y-104909523D01*
X157514285Y-104719047D01*
X157514285Y-104528571D01*
X157442857Y-104338095D01*
X157300000Y-104242857D01*
X156942857Y-104242857D01*
X156800000Y-104147619D01*
X156300000Y-103671428D02*
X155728571Y-103671428D01*
X156085714Y-103004761D02*
X156085714Y-104719047D01*
X156014285Y-104909523D01*
X155871428Y-105004761D01*
X155728571Y-105004761D01*
X155228571Y-105004761D02*
X155228571Y-103671428D01*
X155228571Y-104052380D02*
X155157142Y-103861904D01*
X155085714Y-103766666D01*
X154942857Y-103671428D01*
X154800000Y-103671428D01*
X154442857Y-103671428D02*
X154085714Y-105004761D01*
X153728571Y-103671428D02*
X154085714Y-105004761D01*
X154228571Y-105480952D01*
X154300000Y-105576190D01*
X154442857Y-105671428D01*
X153157142Y-105004761D02*
X153157142Y-103004761D01*
X153014285Y-104242857D02*
X152585714Y-105004761D01*
X152585714Y-103671428D02*
X153157142Y-104433333D01*
X150871428Y-104909523D02*
X150657142Y-105004761D01*
X150300000Y-105004761D01*
X150157142Y-104909523D01*
X150085714Y-104814285D01*
X150014285Y-104623809D01*
X150014285Y-104433333D01*
X150085714Y-104242857D01*
X150157142Y-104147619D01*
X150300000Y-104052380D01*
X150585714Y-103957142D01*
X150728571Y-103861904D01*
X150800000Y-103766666D01*
X150871428Y-103576190D01*
X150871428Y-103385714D01*
X150800000Y-103195238D01*
X150728571Y-103100000D01*
X150585714Y-103004761D01*
X150228571Y-103004761D01*
X150014285Y-103100000D01*
X149514285Y-103671428D02*
X148728571Y-103671428D01*
X149514285Y-105004761D01*
X148728571Y-105004761D01*
X148300000Y-103671428D02*
X147942857Y-105004761D01*
X147585714Y-103671428D02*
X147942857Y-105004761D01*
X148085714Y-105480952D01*
X148157142Y-105576190D01*
X148300000Y-105671428D01*
X146371428Y-105004761D02*
X146371428Y-103004761D01*
X146371428Y-104909523D02*
X146514285Y-105004761D01*
X146800000Y-105004761D01*
X146942857Y-104909523D01*
X147014285Y-104814285D01*
X147085714Y-104623809D01*
X147085714Y-104052380D01*
X147014285Y-103861904D01*
X146942857Y-103766666D01*
X146800000Y-103671428D01*
X146514285Y-103671428D01*
X146371428Y-103766666D01*
X145442857Y-105004761D02*
X145585714Y-104909523D01*
X145657142Y-104719047D01*
X145657142Y-103004761D01*
X144871428Y-105004761D02*
X144871428Y-103671428D01*
X144871428Y-103004761D02*
X144942857Y-103100000D01*
X144871428Y-103195238D01*
X144800000Y-103100000D01*
X144871428Y-103004761D01*
X144871428Y-103195238D01*
X144157142Y-105004761D02*
X144157142Y-103004761D01*
X144014285Y-104242857D02*
X143585714Y-105004761D01*
X143585714Y-103671428D02*
X144157142Y-104433333D01*
X156014285Y-106495238D02*
X155942857Y-106400000D01*
X155800000Y-106304761D01*
X155442857Y-106304761D01*
X155300000Y-106400000D01*
X155228571Y-106495238D01*
X155157142Y-106685714D01*
X155157142Y-106876190D01*
X155228571Y-107161904D01*
X156085714Y-108304761D01*
X155157142Y-108304761D01*
X154228571Y-106304761D02*
X154085714Y-106304761D01*
X153942857Y-106400000D01*
X153871428Y-106495238D01*
X153800000Y-106685714D01*
X153728571Y-107066666D01*
X153728571Y-107542857D01*
X153800000Y-107923809D01*
X153871428Y-108114285D01*
X153942857Y-108209523D01*
X154085714Y-108304761D01*
X154228571Y-108304761D01*
X154371428Y-108209523D01*
X154442857Y-108114285D01*
X154514285Y-107923809D01*
X154585714Y-107542857D01*
X154585714Y-107066666D01*
X154514285Y-106685714D01*
X154442857Y-106495238D01*
X154371428Y-106400000D01*
X154228571Y-106304761D01*
X153085714Y-108114285D02*
X153014285Y-108209523D01*
X153085714Y-108304761D01*
X153157142Y-108209523D01*
X153085714Y-108114285D01*
X153085714Y-108304761D01*
X152085714Y-106304761D02*
X151942857Y-106304761D01*
X151800000Y-106400000D01*
X151728571Y-106495238D01*
X151657142Y-106685714D01*
X151585714Y-107066666D01*
X151585714Y-107542857D01*
X151657142Y-107923809D01*
X151728571Y-108114285D01*
X151800000Y-108209523D01*
X151942857Y-108304761D01*
X152085714Y-108304761D01*
X152228571Y-108209523D01*
X152300000Y-108114285D01*
X152371428Y-107923809D01*
X152442857Y-107542857D01*
X152442857Y-107066666D01*
X152371428Y-106685714D01*
X152300000Y-106495238D01*
X152228571Y-106400000D01*
X152085714Y-106304761D01*
X150300000Y-106971428D02*
X150300000Y-108304761D01*
X150657142Y-106209523D02*
X151014285Y-107638095D01*
X150085714Y-107638095D01*
X149514285Y-108114285D02*
X149442857Y-108209523D01*
X149514285Y-108304761D01*
X149585714Y-108209523D01*
X149514285Y-108114285D01*
X149514285Y-108304761D01*
X148014285Y-108304761D02*
X148871428Y-108304761D01*
X148442857Y-108304761D02*
X148442857Y-106304761D01*
X148585714Y-106590476D01*
X148728571Y-106780952D01*
X148871428Y-106876190D01*
X147300000Y-108304761D02*
X147014285Y-108304761D01*
X146871428Y-108209523D01*
X146800000Y-108114285D01*
X146657142Y-107828571D01*
X146585714Y-107447619D01*
X146585714Y-106685714D01*
X146657142Y-106495238D01*
X146728571Y-106400000D01*
X146871428Y-106304761D01*
X147157142Y-106304761D01*
X147300000Y-106400000D01*
X147371428Y-106495238D01*
X147442857Y-106685714D01*
X147442857Y-107161904D01*
X147371428Y-107352380D01*
X147300000Y-107447619D01*
X147157142Y-107542857D01*
X146871428Y-107542857D01*
X146728571Y-107447619D01*
X146657142Y-107352380D01*
X146585714Y-107161904D01*
X162550000Y-111604761D02*
X162550000Y-109604761D01*
X162050000Y-111033333D01*
X161550000Y-109604761D01*
X161550000Y-111604761D01*
X160835714Y-111604761D02*
X160835714Y-110271428D01*
X160835714Y-109604761D02*
X160907142Y-109700000D01*
X160835714Y-109795238D01*
X160764285Y-109700000D01*
X160835714Y-109604761D01*
X160835714Y-109795238D01*
X159550000Y-111509523D02*
X159692857Y-111604761D01*
X159978571Y-111604761D01*
X160121428Y-111509523D01*
X160192857Y-111319047D01*
X160192857Y-110557142D01*
X160121428Y-110366666D01*
X159978571Y-110271428D01*
X159692857Y-110271428D01*
X159550000Y-110366666D01*
X159478571Y-110557142D01*
X159478571Y-110747619D01*
X160192857Y-110938095D01*
X158835714Y-111604761D02*
X158835714Y-110271428D01*
X158835714Y-110652380D02*
X158764285Y-110461904D01*
X158692857Y-110366666D01*
X158550000Y-110271428D01*
X158407142Y-110271428D01*
X157907142Y-110271428D02*
X157907142Y-111604761D01*
X157907142Y-110461904D02*
X157835714Y-110366666D01*
X157692857Y-110271428D01*
X157478571Y-110271428D01*
X157335714Y-110366666D01*
X157264285Y-110557142D01*
X157264285Y-111604761D01*
X156550000Y-111604761D02*
X156550000Y-110271428D01*
X156550000Y-109604761D02*
X156621428Y-109700000D01*
X156550000Y-109795238D01*
X156478571Y-109700000D01*
X156550000Y-109604761D01*
X156550000Y-109795238D01*
X155192857Y-111509523D02*
X155335714Y-111604761D01*
X155621428Y-111604761D01*
X155764285Y-111509523D01*
X155835714Y-111414285D01*
X155907142Y-111223809D01*
X155907142Y-110652380D01*
X155835714Y-110461904D01*
X155764285Y-110366666D01*
X155621428Y-110271428D01*
X155335714Y-110271428D01*
X155192857Y-110366666D01*
X154764285Y-110271428D02*
X154192857Y-110271428D01*
X154550000Y-109604761D02*
X154550000Y-111319047D01*
X154478571Y-111509523D01*
X154335714Y-111604761D01*
X154192857Y-111604761D01*
X153835714Y-110271428D02*
X153550000Y-111604761D01*
X153264285Y-110652380D01*
X152978571Y-111604761D01*
X152692857Y-110271428D01*
X151907142Y-111604761D02*
X152050000Y-111509523D01*
X152121428Y-111414285D01*
X152192857Y-111223809D01*
X152192857Y-110652380D01*
X152121428Y-110461904D01*
X152050000Y-110366666D01*
X151907142Y-110271428D01*
X151692857Y-110271428D01*
X151550000Y-110366666D01*
X151478571Y-110461904D01*
X151407142Y-110652380D01*
X151407142Y-111223809D01*
X151478571Y-111414285D01*
X151550000Y-111509523D01*
X151692857Y-111604761D01*
X151907142Y-111604761D01*
X149692857Y-109795238D02*
X149621428Y-109700000D01*
X149478571Y-109604761D01*
X149121428Y-109604761D01*
X148978571Y-109700000D01*
X148907142Y-109795238D01*
X148835714Y-109985714D01*
X148835714Y-110176190D01*
X148907142Y-110461904D01*
X149764285Y-111604761D01*
X148835714Y-111604761D01*
X147050000Y-110271428D02*
X147050000Y-112271428D01*
X147050000Y-110366666D02*
X146907142Y-110271428D01*
X146621428Y-110271428D01*
X146478571Y-110366666D01*
X146407142Y-110461904D01*
X146335714Y-110652380D01*
X146335714Y-111223809D01*
X146407142Y-111414285D01*
X146478571Y-111509523D01*
X146621428Y-111604761D01*
X146907142Y-111604761D01*
X147050000Y-111509523D01*
X145692857Y-111604761D02*
X145692857Y-110271428D01*
X145692857Y-110652380D02*
X145621428Y-110461904D01*
X145550000Y-110366666D01*
X145407142Y-110271428D01*
X145264285Y-110271428D01*
X144550000Y-111604761D02*
X144692857Y-111509523D01*
X144764285Y-111414285D01*
X144835714Y-111223809D01*
X144835714Y-110652380D01*
X144764285Y-110461904D01*
X144692857Y-110366666D01*
X144550000Y-110271428D01*
X144335714Y-110271428D01*
X144192857Y-110366666D01*
X144121428Y-110461904D01*
X144050000Y-110652380D01*
X144050000Y-111223809D01*
X144121428Y-111414285D01*
X144192857Y-111509523D01*
X144335714Y-111604761D01*
X144550000Y-111604761D01*
X143407142Y-110271428D02*
X143407142Y-111985714D01*
X143478571Y-112176190D01*
X143621428Y-112271428D01*
X143692857Y-112271428D01*
X143407142Y-109604761D02*
X143478571Y-109700000D01*
X143407142Y-109795238D01*
X143335714Y-109700000D01*
X143407142Y-109604761D01*
X143407142Y-109795238D01*
X142121428Y-111509523D02*
X142264285Y-111604761D01*
X142550000Y-111604761D01*
X142692857Y-111509523D01*
X142764285Y-111319047D01*
X142764285Y-110557142D01*
X142692857Y-110366666D01*
X142550000Y-110271428D01*
X142264285Y-110271428D01*
X142121428Y-110366666D01*
X142050000Y-110557142D01*
X142050000Y-110747619D01*
X142764285Y-110938095D01*
X141407142Y-111604761D02*
X141407142Y-109604761D01*
X141264285Y-110842857D02*
X140835714Y-111604761D01*
X140835714Y-110271428D02*
X141407142Y-111033333D01*
X140407142Y-110271428D02*
X139835714Y-110271428D01*
X140192857Y-109604761D02*
X140192857Y-111319047D01*
X140121428Y-111509523D01*
X139978571Y-111604761D01*
X139835714Y-111604761D01*
D11*
G36*
X125701000Y-124201000D02*
G01*
X123899000Y-124201000D01*
X123899000Y-122399000D01*
X125701000Y-122399000D01*
X125701000Y-124201000D01*
X125701000Y-124201000D01*
G37*
G36*
X127450443Y-122405519D02*
G01*
X127516627Y-122412037D01*
X127686466Y-122463557D01*
X127842991Y-122547222D01*
X127870123Y-122569489D01*
X127980186Y-122659814D01*
X128058309Y-122755009D01*
X128092778Y-122797009D01*
X128176443Y-122953534D01*
X128227963Y-123123373D01*
X128245359Y-123300000D01*
X128227963Y-123476627D01*
X128176443Y-123646466D01*
X128092778Y-123802991D01*
X128063448Y-123838729D01*
X127980186Y-123940186D01*
X127878729Y-124023448D01*
X127842991Y-124052778D01*
X127686466Y-124136443D01*
X127516627Y-124187963D01*
X127450443Y-124194481D01*
X127384260Y-124201000D01*
X127295740Y-124201000D01*
X127229557Y-124194481D01*
X127163373Y-124187963D01*
X126993534Y-124136443D01*
X126837009Y-124052778D01*
X126801271Y-124023448D01*
X126699814Y-123940186D01*
X126616552Y-123838729D01*
X126587222Y-123802991D01*
X126503557Y-123646466D01*
X126452037Y-123476627D01*
X126434641Y-123300000D01*
X126452037Y-123123373D01*
X126503557Y-122953534D01*
X126587222Y-122797009D01*
X126621691Y-122755009D01*
X126699814Y-122659814D01*
X126809877Y-122569489D01*
X126837009Y-122547222D01*
X126993534Y-122463557D01*
X127163373Y-122412037D01*
X127229557Y-122405519D01*
X127295740Y-122399000D01*
X127384260Y-122399000D01*
X127450443Y-122405519D01*
X127450443Y-122405519D01*
G37*
G36*
X129990443Y-122405519D02*
G01*
X130056627Y-122412037D01*
X130226466Y-122463557D01*
X130382991Y-122547222D01*
X130410123Y-122569489D01*
X130520186Y-122659814D01*
X130598309Y-122755009D01*
X130632778Y-122797009D01*
X130716443Y-122953534D01*
X130767963Y-123123373D01*
X130785359Y-123300000D01*
X130767963Y-123476627D01*
X130716443Y-123646466D01*
X130632778Y-123802991D01*
X130603448Y-123838729D01*
X130520186Y-123940186D01*
X130418729Y-124023448D01*
X130382991Y-124052778D01*
X130226466Y-124136443D01*
X130056627Y-124187963D01*
X129990443Y-124194481D01*
X129924260Y-124201000D01*
X129835740Y-124201000D01*
X129769557Y-124194481D01*
X129703373Y-124187963D01*
X129533534Y-124136443D01*
X129377009Y-124052778D01*
X129341271Y-124023448D01*
X129239814Y-123940186D01*
X129156552Y-123838729D01*
X129127222Y-123802991D01*
X129043557Y-123646466D01*
X128992037Y-123476627D01*
X128974641Y-123300000D01*
X128992037Y-123123373D01*
X129043557Y-122953534D01*
X129127222Y-122797009D01*
X129161691Y-122755009D01*
X129239814Y-122659814D01*
X129349877Y-122569489D01*
X129377009Y-122547222D01*
X129533534Y-122463557D01*
X129703373Y-122412037D01*
X129769557Y-122405519D01*
X129835740Y-122399000D01*
X129924260Y-122399000D01*
X129990443Y-122405519D01*
X129990443Y-122405519D01*
G37*
G36*
X117576626Y-120762037D02*
G01*
X117746465Y-120813557D01*
X117746467Y-120813558D01*
X117902989Y-120897221D01*
X118040186Y-121009814D01*
X118123448Y-121111271D01*
X118152778Y-121147009D01*
X118236443Y-121303534D01*
X118287963Y-121473373D01*
X118301000Y-121605742D01*
X118301000Y-121994257D01*
X118287963Y-122126626D01*
X118236443Y-122296466D01*
X118152778Y-122452991D01*
X118123448Y-122488729D01*
X118040186Y-122590186D01*
X117938729Y-122673448D01*
X117902991Y-122702778D01*
X117746466Y-122786443D01*
X117576627Y-122837963D01*
X117400000Y-122855359D01*
X117223374Y-122837963D01*
X117053535Y-122786443D01*
X116897010Y-122702778D01*
X116759815Y-122590185D01*
X116647222Y-122452991D01*
X116563557Y-122296466D01*
X116512037Y-122126627D01*
X116499000Y-121994258D01*
X116499000Y-121605743D01*
X116512037Y-121473374D01*
X116563557Y-121303535D01*
X116563559Y-121303532D01*
X116647221Y-121147011D01*
X116759814Y-121009814D01*
X116861271Y-120926552D01*
X116897009Y-120897222D01*
X117053534Y-120813557D01*
X117223373Y-120762037D01*
X117400000Y-120744641D01*
X117576626Y-120762037D01*
X117576626Y-120762037D01*
G37*
G36*
X115658600Y-120752989D02*
G01*
X115691652Y-120763015D01*
X115722103Y-120779292D01*
X115748799Y-120801201D01*
X115770708Y-120827897D01*
X115786985Y-120858348D01*
X115797011Y-120891400D01*
X115801000Y-120931903D01*
X115801000Y-122668097D01*
X115797011Y-122708600D01*
X115786985Y-122741652D01*
X115770708Y-122772103D01*
X115748799Y-122798799D01*
X115722103Y-122820708D01*
X115691652Y-122836985D01*
X115658600Y-122847011D01*
X115618097Y-122851000D01*
X114181903Y-122851000D01*
X114141400Y-122847011D01*
X114108348Y-122836985D01*
X114077897Y-122820708D01*
X114051201Y-122798799D01*
X114029292Y-122772103D01*
X114013015Y-122741652D01*
X114002989Y-122708600D01*
X113999000Y-122668097D01*
X113999000Y-120931903D01*
X114002989Y-120891400D01*
X114013015Y-120858348D01*
X114029292Y-120827897D01*
X114051201Y-120801201D01*
X114077897Y-120779292D01*
X114108348Y-120763015D01*
X114141400Y-120752989D01*
X114181903Y-120749000D01*
X115618097Y-120749000D01*
X115658600Y-120752989D01*
X115658600Y-120752989D01*
G37*
G36*
X142420345Y-120983442D02*
G01*
X142510548Y-120992326D01*
X142684157Y-121044990D01*
X142844156Y-121130511D01*
X142864261Y-121147011D01*
X142984397Y-121245603D01*
X143063729Y-121342271D01*
X143099489Y-121385844D01*
X143185010Y-121545843D01*
X143237674Y-121719452D01*
X143255456Y-121900000D01*
X143237674Y-122080548D01*
X143185010Y-122254157D01*
X143099489Y-122414156D01*
X143067619Y-122452989D01*
X142984397Y-122554397D01*
X142887729Y-122633729D01*
X142844156Y-122669489D01*
X142684157Y-122755010D01*
X142510548Y-122807674D01*
X142420345Y-122816558D01*
X142375245Y-122821000D01*
X141824755Y-122821000D01*
X141779655Y-122816558D01*
X141689452Y-122807674D01*
X141515843Y-122755010D01*
X141355844Y-122669489D01*
X141312271Y-122633729D01*
X141215603Y-122554397D01*
X141132381Y-122452989D01*
X141100511Y-122414156D01*
X141014990Y-122254157D01*
X140962326Y-122080548D01*
X140944544Y-121900000D01*
X140962326Y-121719452D01*
X141014990Y-121545843D01*
X141100511Y-121385844D01*
X141136271Y-121342271D01*
X141215603Y-121245603D01*
X141335739Y-121147011D01*
X141355844Y-121130511D01*
X141515843Y-121044990D01*
X141689452Y-120992326D01*
X141779655Y-120983442D01*
X141824755Y-120979000D01*
X142375245Y-120979000D01*
X142420345Y-120983442D01*
X142420345Y-120983442D01*
G37*
G36*
X79020345Y-120883442D02*
G01*
X79110548Y-120892326D01*
X79284157Y-120944990D01*
X79444156Y-121030511D01*
X79487729Y-121066271D01*
X79584397Y-121145603D01*
X79663729Y-121242271D01*
X79699489Y-121285844D01*
X79785010Y-121445843D01*
X79837674Y-121619452D01*
X79855456Y-121800000D01*
X79837674Y-121980548D01*
X79785010Y-122154157D01*
X79699489Y-122314156D01*
X79663729Y-122357729D01*
X79584397Y-122454397D01*
X79487729Y-122533729D01*
X79444156Y-122569489D01*
X79284157Y-122655010D01*
X79110548Y-122707674D01*
X79020345Y-122716558D01*
X78975245Y-122721000D01*
X78424755Y-122721000D01*
X78379655Y-122716558D01*
X78289452Y-122707674D01*
X78115843Y-122655010D01*
X77955844Y-122569489D01*
X77912271Y-122533729D01*
X77815603Y-122454397D01*
X77736271Y-122357729D01*
X77700511Y-122314156D01*
X77614990Y-122154157D01*
X77562326Y-121980548D01*
X77544544Y-121800000D01*
X77562326Y-121619452D01*
X77614990Y-121445843D01*
X77700511Y-121285844D01*
X77736271Y-121242271D01*
X77815603Y-121145603D01*
X77912271Y-121066271D01*
X77955844Y-121030511D01*
X78115843Y-120944990D01*
X78289452Y-120892326D01*
X78379655Y-120883442D01*
X78424755Y-120879000D01*
X78975245Y-120879000D01*
X79020345Y-120883442D01*
X79020345Y-120883442D01*
G37*
G36*
X127901000Y-120801000D02*
G01*
X126999000Y-120801000D01*
X126999000Y-118799000D01*
X127901000Y-118799000D01*
X127901000Y-120801000D01*
X127901000Y-120801000D01*
G37*
G36*
X143109561Y-118442966D02*
G01*
X143142383Y-118452923D01*
X143172632Y-118469092D01*
X143199148Y-118490852D01*
X143220908Y-118517368D01*
X143237077Y-118547617D01*
X143247034Y-118580439D01*
X143251000Y-118620713D01*
X143251000Y-120099287D01*
X143247034Y-120139561D01*
X143237077Y-120172383D01*
X143220908Y-120202632D01*
X143199148Y-120229148D01*
X143172632Y-120250908D01*
X143142383Y-120267077D01*
X143109561Y-120277034D01*
X143069287Y-120281000D01*
X141130713Y-120281000D01*
X141090439Y-120277034D01*
X141057617Y-120267077D01*
X141027368Y-120250908D01*
X141000852Y-120229148D01*
X140979092Y-120202632D01*
X140962923Y-120172383D01*
X140952966Y-120139561D01*
X140949000Y-120099287D01*
X140949000Y-118620713D01*
X140952966Y-118580439D01*
X140962923Y-118547617D01*
X140979092Y-118517368D01*
X141000852Y-118490852D01*
X141027368Y-118469092D01*
X141057617Y-118452923D01*
X141090439Y-118442966D01*
X141130713Y-118439000D01*
X143069287Y-118439000D01*
X143109561Y-118442966D01*
X143109561Y-118442966D01*
G37*
G36*
X79709561Y-118342966D02*
G01*
X79742383Y-118352923D01*
X79772632Y-118369092D01*
X79799148Y-118390852D01*
X79820908Y-118417368D01*
X79837077Y-118447617D01*
X79847034Y-118480439D01*
X79851000Y-118520713D01*
X79851000Y-119999287D01*
X79847034Y-120039561D01*
X79837077Y-120072383D01*
X79820908Y-120102632D01*
X79799148Y-120129148D01*
X79772632Y-120150908D01*
X79742383Y-120167077D01*
X79709561Y-120177034D01*
X79669287Y-120181000D01*
X77730713Y-120181000D01*
X77690439Y-120177034D01*
X77657617Y-120167077D01*
X77627368Y-120150908D01*
X77600852Y-120129148D01*
X77579092Y-120102632D01*
X77562923Y-120072383D01*
X77552966Y-120039561D01*
X77549000Y-119999287D01*
X77549000Y-118520713D01*
X77552966Y-118480439D01*
X77562923Y-118447617D01*
X77579092Y-118417368D01*
X77600852Y-118390852D01*
X77627368Y-118369092D01*
X77657617Y-118352923D01*
X77690439Y-118342966D01*
X77730713Y-118339000D01*
X79669287Y-118339000D01*
X79709561Y-118342966D01*
X79709561Y-118342966D01*
G37*
G36*
X104507811Y-116928605D02*
G01*
X104546867Y-116940453D01*
X104582862Y-116959693D01*
X104614414Y-116985586D01*
X104640307Y-117017138D01*
X104659547Y-117053133D01*
X104671395Y-117092189D01*
X104676000Y-117138949D01*
X104676000Y-118061051D01*
X104671395Y-118107811D01*
X104659547Y-118146867D01*
X104640307Y-118182862D01*
X104614414Y-118214414D01*
X104582862Y-118240307D01*
X104546867Y-118259547D01*
X104507811Y-118271395D01*
X104465082Y-118275603D01*
X104441049Y-118280383D01*
X104418410Y-118289761D01*
X104398036Y-118303374D01*
X104380709Y-118320701D01*
X104367095Y-118341076D01*
X104357717Y-118363715D01*
X104352937Y-118387748D01*
X104352937Y-118412252D01*
X104357717Y-118436285D01*
X104367095Y-118458924D01*
X104380708Y-118479298D01*
X104398035Y-118496625D01*
X104418410Y-118510239D01*
X104441049Y-118519617D01*
X104465082Y-118524397D01*
X104507811Y-118528605D01*
X104546867Y-118540453D01*
X104582862Y-118559693D01*
X104614414Y-118585586D01*
X104640307Y-118617138D01*
X104659547Y-118653133D01*
X104671395Y-118692189D01*
X104676000Y-118738949D01*
X104676000Y-119661051D01*
X104671395Y-119707811D01*
X104659547Y-119746867D01*
X104640307Y-119782862D01*
X104614414Y-119814414D01*
X104582862Y-119840307D01*
X104546867Y-119859547D01*
X104507811Y-119871395D01*
X104461051Y-119876000D01*
X103738949Y-119876000D01*
X103692189Y-119871395D01*
X103653133Y-119859547D01*
X103617138Y-119840307D01*
X103585586Y-119814414D01*
X103559693Y-119782862D01*
X103540453Y-119746867D01*
X103528605Y-119707811D01*
X103524000Y-119661051D01*
X103524000Y-118738949D01*
X103528605Y-118692189D01*
X103540453Y-118653133D01*
X103559693Y-118617138D01*
X103585586Y-118585586D01*
X103617138Y-118559693D01*
X103653133Y-118540453D01*
X103692189Y-118528605D01*
X103734918Y-118524397D01*
X103758951Y-118519617D01*
X103781590Y-118510239D01*
X103801964Y-118496626D01*
X103819291Y-118479299D01*
X103832905Y-118458924D01*
X103842283Y-118436285D01*
X103847063Y-118412252D01*
X103847063Y-118387748D01*
X103842283Y-118363715D01*
X103832905Y-118341076D01*
X103819292Y-118320702D01*
X103801965Y-118303375D01*
X103781590Y-118289761D01*
X103758951Y-118280383D01*
X103734918Y-118275603D01*
X103692189Y-118271395D01*
X103653133Y-118259547D01*
X103617138Y-118240307D01*
X103585586Y-118214414D01*
X103559693Y-118182862D01*
X103540453Y-118146867D01*
X103528605Y-118107811D01*
X103524000Y-118061051D01*
X103524000Y-117138949D01*
X103528605Y-117092189D01*
X103540453Y-117053133D01*
X103559693Y-117017138D01*
X103585586Y-116985586D01*
X103617138Y-116959693D01*
X103653133Y-116940453D01*
X103692189Y-116928605D01*
X103738949Y-116924000D01*
X104461051Y-116924000D01*
X104507811Y-116928605D01*
X104507811Y-116928605D01*
G37*
G36*
X106964499Y-118678445D02*
G01*
X107001995Y-118689820D01*
X107036554Y-118708292D01*
X107066847Y-118733153D01*
X107091708Y-118763446D01*
X107110180Y-118798005D01*
X107121555Y-118835501D01*
X107126000Y-118880638D01*
X107126000Y-119619362D01*
X107121555Y-119664499D01*
X107110180Y-119701995D01*
X107091708Y-119736554D01*
X107066847Y-119766847D01*
X107036554Y-119791708D01*
X107001995Y-119810180D01*
X106964499Y-119821555D01*
X106919362Y-119826000D01*
X106280638Y-119826000D01*
X106235501Y-119821555D01*
X106198005Y-119810180D01*
X106163446Y-119791708D01*
X106133153Y-119766847D01*
X106108292Y-119736554D01*
X106089820Y-119701995D01*
X106078445Y-119664499D01*
X106074000Y-119619362D01*
X106074000Y-118880638D01*
X106078445Y-118835501D01*
X106089820Y-118798005D01*
X106108292Y-118763446D01*
X106133153Y-118733153D01*
X106163446Y-118708292D01*
X106198005Y-118689820D01*
X106235501Y-118678445D01*
X106280638Y-118674000D01*
X106919362Y-118674000D01*
X106964499Y-118678445D01*
X106964499Y-118678445D01*
G37*
G36*
X123364499Y-117878445D02*
G01*
X123401995Y-117889820D01*
X123436554Y-117908292D01*
X123466847Y-117933153D01*
X123491708Y-117963446D01*
X123510180Y-117998005D01*
X123521555Y-118035501D01*
X123526000Y-118080638D01*
X123526000Y-118819362D01*
X123521555Y-118864499D01*
X123510180Y-118901995D01*
X123491708Y-118936554D01*
X123466847Y-118966847D01*
X123436554Y-118991708D01*
X123401995Y-119010180D01*
X123364499Y-119021555D01*
X123319362Y-119026000D01*
X122680638Y-119026000D01*
X122635501Y-119021555D01*
X122598005Y-119010180D01*
X122563446Y-118991708D01*
X122533153Y-118966847D01*
X122508292Y-118936554D01*
X122489820Y-118901995D01*
X122478445Y-118864499D01*
X122474000Y-118819362D01*
X122474000Y-118080638D01*
X122478445Y-118035501D01*
X122489820Y-117998005D01*
X122508292Y-117963446D01*
X122533153Y-117933153D01*
X122563446Y-117908292D01*
X122598005Y-117889820D01*
X122635501Y-117878445D01*
X122680638Y-117874000D01*
X123319362Y-117874000D01*
X123364499Y-117878445D01*
X123364499Y-117878445D01*
G37*
G36*
X116651000Y-118651000D02*
G01*
X114349000Y-118651000D01*
X114349000Y-117349000D01*
X116651000Y-117349000D01*
X116651000Y-118651000D01*
X116651000Y-118651000D01*
G37*
G36*
X106964499Y-116928445D02*
G01*
X107001995Y-116939820D01*
X107036554Y-116958292D01*
X107066847Y-116983153D01*
X107091708Y-117013446D01*
X107110180Y-117048005D01*
X107121555Y-117085501D01*
X107126000Y-117130638D01*
X107126000Y-117869362D01*
X107121555Y-117914499D01*
X107110180Y-117951995D01*
X107091708Y-117986554D01*
X107066847Y-118016847D01*
X107036554Y-118041708D01*
X107001995Y-118060180D01*
X106964499Y-118071555D01*
X106919362Y-118076000D01*
X106280638Y-118076000D01*
X106235501Y-118071555D01*
X106198005Y-118060180D01*
X106163446Y-118041708D01*
X106133153Y-118016847D01*
X106108292Y-117986554D01*
X106089820Y-117951995D01*
X106078445Y-117914499D01*
X106074000Y-117869362D01*
X106074000Y-117130638D01*
X106078445Y-117085501D01*
X106089820Y-117048005D01*
X106108292Y-117013446D01*
X106133153Y-116983153D01*
X106163446Y-116958292D01*
X106198005Y-116939820D01*
X106235501Y-116928445D01*
X106280638Y-116924000D01*
X106919362Y-116924000D01*
X106964499Y-116928445D01*
X106964499Y-116928445D01*
G37*
G36*
X128851000Y-117801000D02*
G01*
X127949000Y-117801000D01*
X127949000Y-115799000D01*
X128851000Y-115799000D01*
X128851000Y-117801000D01*
X128851000Y-117801000D01*
G37*
G36*
X126951000Y-117801000D02*
G01*
X126049000Y-117801000D01*
X126049000Y-115799000D01*
X126951000Y-115799000D01*
X126951000Y-117801000D01*
X126951000Y-117801000D01*
G37*
G36*
X110451000Y-117501000D02*
G01*
X108149000Y-117501000D01*
X108149000Y-113899000D01*
X110451000Y-113899000D01*
X110451000Y-117501000D01*
X110451000Y-117501000D01*
G37*
G36*
X123364499Y-116128445D02*
G01*
X123401995Y-116139820D01*
X123436554Y-116158292D01*
X123466847Y-116183153D01*
X123491708Y-116213446D01*
X123510180Y-116248005D01*
X123521555Y-116285501D01*
X123526000Y-116330638D01*
X123526000Y-117069362D01*
X123521555Y-117114499D01*
X123510180Y-117151995D01*
X123491708Y-117186554D01*
X123466847Y-117216847D01*
X123436554Y-117241708D01*
X123401995Y-117260180D01*
X123364499Y-117271555D01*
X123319362Y-117276000D01*
X122680638Y-117276000D01*
X122635501Y-117271555D01*
X122598005Y-117260180D01*
X122563446Y-117241708D01*
X122533153Y-117216847D01*
X122508292Y-117186554D01*
X122489820Y-117151995D01*
X122478445Y-117114499D01*
X122474000Y-117069362D01*
X122474000Y-116330638D01*
X122478445Y-116285501D01*
X122489820Y-116248005D01*
X122508292Y-116213446D01*
X122533153Y-116183153D01*
X122563446Y-116158292D01*
X122598005Y-116139820D01*
X122635501Y-116128445D01*
X122680638Y-116124000D01*
X123319362Y-116124000D01*
X123364499Y-116128445D01*
X123364499Y-116128445D01*
G37*
G36*
X133389499Y-115478445D02*
G01*
X133426995Y-115489820D01*
X133461554Y-115508292D01*
X133491847Y-115533153D01*
X133516708Y-115563446D01*
X133535180Y-115598005D01*
X133546555Y-115635501D01*
X133551000Y-115680638D01*
X133551000Y-116319362D01*
X133546555Y-116364499D01*
X133535180Y-116401995D01*
X133516708Y-116436554D01*
X133491847Y-116466847D01*
X133461554Y-116491708D01*
X133426995Y-116510180D01*
X133389499Y-116521555D01*
X133344362Y-116526000D01*
X132605638Y-116526000D01*
X132560501Y-116521555D01*
X132523005Y-116510180D01*
X132488446Y-116491708D01*
X132458153Y-116466847D01*
X132433292Y-116436554D01*
X132414820Y-116401995D01*
X132403445Y-116364499D01*
X132399000Y-116319362D01*
X132399000Y-115680638D01*
X132403445Y-115635501D01*
X132414820Y-115598005D01*
X132433292Y-115563446D01*
X132458153Y-115533153D01*
X132488446Y-115508292D01*
X132523005Y-115489820D01*
X132560501Y-115478445D01*
X132605638Y-115474000D01*
X133344362Y-115474000D01*
X133389499Y-115478445D01*
X133389499Y-115478445D01*
G37*
G36*
X131639499Y-115478445D02*
G01*
X131676995Y-115489820D01*
X131711554Y-115508292D01*
X131741847Y-115533153D01*
X131766708Y-115563446D01*
X131785180Y-115598005D01*
X131796555Y-115635501D01*
X131801000Y-115680638D01*
X131801000Y-116319362D01*
X131796555Y-116364499D01*
X131785180Y-116401995D01*
X131766708Y-116436554D01*
X131741847Y-116466847D01*
X131711554Y-116491708D01*
X131676995Y-116510180D01*
X131639499Y-116521555D01*
X131594362Y-116526000D01*
X130855638Y-116526000D01*
X130810501Y-116521555D01*
X130773005Y-116510180D01*
X130738446Y-116491708D01*
X130708153Y-116466847D01*
X130683292Y-116436554D01*
X130664820Y-116401995D01*
X130653445Y-116364499D01*
X130649000Y-116319362D01*
X130649000Y-115680638D01*
X130653445Y-115635501D01*
X130664820Y-115598005D01*
X130683292Y-115563446D01*
X130708153Y-115533153D01*
X130738446Y-115508292D01*
X130773005Y-115489820D01*
X130810501Y-115478445D01*
X130855638Y-115474000D01*
X131594362Y-115474000D01*
X131639499Y-115478445D01*
X131639499Y-115478445D01*
G37*
G36*
X116651000Y-116351000D02*
G01*
X114349000Y-116351000D01*
X114349000Y-115049000D01*
X116651000Y-115049000D01*
X116651000Y-116351000D01*
X116651000Y-116351000D01*
G37*
G36*
X121607811Y-112828605D02*
G01*
X121646867Y-112840453D01*
X121682862Y-112859693D01*
X121714414Y-112885586D01*
X121740307Y-112917138D01*
X121759547Y-112953133D01*
X121771395Y-112992189D01*
X121776000Y-113038949D01*
X121776000Y-113961051D01*
X121771395Y-114007811D01*
X121759547Y-114046867D01*
X121740307Y-114082862D01*
X121714414Y-114114414D01*
X121682862Y-114140307D01*
X121646867Y-114159547D01*
X121607811Y-114171395D01*
X121565082Y-114175603D01*
X121541049Y-114180383D01*
X121518410Y-114189761D01*
X121498036Y-114203374D01*
X121480709Y-114220701D01*
X121467095Y-114241076D01*
X121457717Y-114263715D01*
X121452937Y-114287748D01*
X121452937Y-114312252D01*
X121457717Y-114336285D01*
X121467095Y-114358924D01*
X121480708Y-114379298D01*
X121498035Y-114396625D01*
X121518410Y-114410239D01*
X121541049Y-114419617D01*
X121565082Y-114424397D01*
X121607811Y-114428605D01*
X121646867Y-114440453D01*
X121682862Y-114459693D01*
X121714414Y-114485586D01*
X121740307Y-114517138D01*
X121759547Y-114553133D01*
X121771395Y-114592189D01*
X121776000Y-114638949D01*
X121776000Y-115561051D01*
X121771395Y-115607811D01*
X121759547Y-115646867D01*
X121740307Y-115682862D01*
X121714414Y-115714414D01*
X121682862Y-115740307D01*
X121646867Y-115759547D01*
X121607811Y-115771395D01*
X121561051Y-115776000D01*
X120838949Y-115776000D01*
X120792189Y-115771395D01*
X120753133Y-115759547D01*
X120717138Y-115740307D01*
X120685586Y-115714414D01*
X120659693Y-115682862D01*
X120640453Y-115646867D01*
X120628605Y-115607811D01*
X120624000Y-115561051D01*
X120624000Y-114638949D01*
X120628605Y-114592189D01*
X120640453Y-114553133D01*
X120659693Y-114517138D01*
X120685586Y-114485586D01*
X120717138Y-114459693D01*
X120753133Y-114440453D01*
X120792189Y-114428605D01*
X120834918Y-114424397D01*
X120858951Y-114419617D01*
X120881590Y-114410239D01*
X120901964Y-114396626D01*
X120919291Y-114379299D01*
X120932905Y-114358924D01*
X120942283Y-114336285D01*
X120947063Y-114312252D01*
X120947063Y-114287748D01*
X120942283Y-114263715D01*
X120932905Y-114241076D01*
X120919292Y-114220702D01*
X120901965Y-114203375D01*
X120881590Y-114189761D01*
X120858951Y-114180383D01*
X120834918Y-114175603D01*
X120792189Y-114171395D01*
X120753133Y-114159547D01*
X120717138Y-114140307D01*
X120685586Y-114114414D01*
X120659693Y-114082862D01*
X120640453Y-114046867D01*
X120628605Y-114007811D01*
X120624000Y-113961051D01*
X120624000Y-113038949D01*
X120628605Y-112992189D01*
X120640453Y-112953133D01*
X120659693Y-112917138D01*
X120685586Y-112885586D01*
X120717138Y-112859693D01*
X120753133Y-112840453D01*
X120792189Y-112828605D01*
X120838949Y-112824000D01*
X121561051Y-112824000D01*
X121607811Y-112828605D01*
X121607811Y-112828605D01*
G37*
G36*
X118864499Y-114628445D02*
G01*
X118901995Y-114639820D01*
X118936554Y-114658292D01*
X118966847Y-114683153D01*
X118991708Y-114713446D01*
X119010180Y-114748005D01*
X119021555Y-114785501D01*
X119026000Y-114830638D01*
X119026000Y-115569362D01*
X119021555Y-115614499D01*
X119010180Y-115651995D01*
X118991708Y-115686554D01*
X118966847Y-115716847D01*
X118936554Y-115741708D01*
X118901995Y-115760180D01*
X118864499Y-115771555D01*
X118819362Y-115776000D01*
X118180638Y-115776000D01*
X118135501Y-115771555D01*
X118098005Y-115760180D01*
X118063446Y-115741708D01*
X118033153Y-115716847D01*
X118008292Y-115686554D01*
X117989820Y-115651995D01*
X117978445Y-115614499D01*
X117974000Y-115569362D01*
X117974000Y-114830638D01*
X117978445Y-114785501D01*
X117989820Y-114748005D01*
X118008292Y-114713446D01*
X118033153Y-114683153D01*
X118063446Y-114658292D01*
X118098005Y-114639820D01*
X118135501Y-114628445D01*
X118180638Y-114624000D01*
X118819362Y-114624000D01*
X118864499Y-114628445D01*
X118864499Y-114628445D01*
G37*
G36*
X116651000Y-114051000D02*
G01*
X114349000Y-114051000D01*
X114349000Y-112749000D01*
X116651000Y-112749000D01*
X116651000Y-114051000D01*
X116651000Y-114051000D01*
G37*
G36*
X118864499Y-112878445D02*
G01*
X118901995Y-112889820D01*
X118936554Y-112908292D01*
X118966847Y-112933153D01*
X118991708Y-112963446D01*
X119010180Y-112998005D01*
X119021555Y-113035501D01*
X119026000Y-113080638D01*
X119026000Y-113819362D01*
X119021555Y-113864499D01*
X119010180Y-113901995D01*
X118991708Y-113936554D01*
X118966847Y-113966847D01*
X118936554Y-113991708D01*
X118901995Y-114010180D01*
X118864499Y-114021555D01*
X118819362Y-114026000D01*
X118180638Y-114026000D01*
X118135501Y-114021555D01*
X118098005Y-114010180D01*
X118063446Y-113991708D01*
X118033153Y-113966847D01*
X118008292Y-113936554D01*
X117989820Y-113901995D01*
X117978445Y-113864499D01*
X117974000Y-113819362D01*
X117974000Y-113080638D01*
X117978445Y-113035501D01*
X117989820Y-112998005D01*
X118008292Y-112963446D01*
X118033153Y-112933153D01*
X118063446Y-112908292D01*
X118098005Y-112889820D01*
X118135501Y-112878445D01*
X118180638Y-112874000D01*
X118819362Y-112874000D01*
X118864499Y-112878445D01*
X118864499Y-112878445D01*
G37*
G36*
X129164499Y-112678445D02*
G01*
X129201995Y-112689820D01*
X129236554Y-112708292D01*
X129266847Y-112733153D01*
X129291708Y-112763446D01*
X129310180Y-112798005D01*
X129321555Y-112835501D01*
X129326000Y-112880638D01*
X129326000Y-113519362D01*
X129321555Y-113564499D01*
X129310180Y-113601995D01*
X129291708Y-113636554D01*
X129266847Y-113666847D01*
X129236554Y-113691708D01*
X129201995Y-113710180D01*
X129164499Y-113721555D01*
X129119362Y-113726000D01*
X128380638Y-113726000D01*
X128335501Y-113721555D01*
X128298005Y-113710180D01*
X128263446Y-113691708D01*
X128233153Y-113666847D01*
X128208292Y-113636554D01*
X128189820Y-113601995D01*
X128178445Y-113564499D01*
X128174000Y-113519362D01*
X128174000Y-112880638D01*
X128178445Y-112835501D01*
X128189820Y-112798005D01*
X128208292Y-112763446D01*
X128233153Y-112733153D01*
X128263446Y-112708292D01*
X128298005Y-112689820D01*
X128335501Y-112678445D01*
X128380638Y-112674000D01*
X129119362Y-112674000D01*
X129164499Y-112678445D01*
X129164499Y-112678445D01*
G37*
G36*
X130914499Y-112678445D02*
G01*
X130951995Y-112689820D01*
X130986554Y-112708292D01*
X131016847Y-112733153D01*
X131041708Y-112763446D01*
X131060180Y-112798005D01*
X131071555Y-112835501D01*
X131076000Y-112880638D01*
X131076000Y-113519362D01*
X131071555Y-113564499D01*
X131060180Y-113601995D01*
X131041708Y-113636554D01*
X131016847Y-113666847D01*
X130986554Y-113691708D01*
X130951995Y-113710180D01*
X130914499Y-113721555D01*
X130869362Y-113726000D01*
X130130638Y-113726000D01*
X130085501Y-113721555D01*
X130048005Y-113710180D01*
X130013446Y-113691708D01*
X129983153Y-113666847D01*
X129958292Y-113636554D01*
X129939820Y-113601995D01*
X129928445Y-113564499D01*
X129924000Y-113519362D01*
X129924000Y-112880638D01*
X129928445Y-112835501D01*
X129939820Y-112798005D01*
X129958292Y-112763446D01*
X129983153Y-112733153D01*
X130013446Y-112708292D01*
X130048005Y-112689820D01*
X130085501Y-112678445D01*
X130130638Y-112674000D01*
X130869362Y-112674000D01*
X130914499Y-112678445D01*
X130914499Y-112678445D01*
G37*
G36*
X98464499Y-111503445D02*
G01*
X98501995Y-111514820D01*
X98536554Y-111533292D01*
X98566847Y-111558153D01*
X98591708Y-111588446D01*
X98610180Y-111623005D01*
X98621555Y-111660501D01*
X98626000Y-111705638D01*
X98626000Y-112444362D01*
X98621555Y-112489499D01*
X98610180Y-112526995D01*
X98591708Y-112561554D01*
X98566847Y-112591847D01*
X98536554Y-112616708D01*
X98501995Y-112635180D01*
X98464499Y-112646555D01*
X98419362Y-112651000D01*
X97780638Y-112651000D01*
X97735501Y-112646555D01*
X97698005Y-112635180D01*
X97663446Y-112616708D01*
X97633153Y-112591847D01*
X97608292Y-112561554D01*
X97589820Y-112526995D01*
X97578445Y-112489499D01*
X97574000Y-112444362D01*
X97574000Y-111705638D01*
X97578445Y-111660501D01*
X97589820Y-111623005D01*
X97608292Y-111588446D01*
X97633153Y-111558153D01*
X97663446Y-111533292D01*
X97698005Y-111514820D01*
X97735501Y-111503445D01*
X97780638Y-111499000D01*
X98419362Y-111499000D01*
X98464499Y-111503445D01*
X98464499Y-111503445D01*
G37*
G36*
X96064499Y-111378445D02*
G01*
X96101995Y-111389820D01*
X96136554Y-111408292D01*
X96166847Y-111433153D01*
X96191708Y-111463446D01*
X96210180Y-111498005D01*
X96221555Y-111535501D01*
X96226000Y-111580638D01*
X96226000Y-112319362D01*
X96221555Y-112364499D01*
X96210180Y-112401995D01*
X96191708Y-112436554D01*
X96166847Y-112466847D01*
X96136554Y-112491708D01*
X96101995Y-112510180D01*
X96064499Y-112521555D01*
X96019362Y-112526000D01*
X95380638Y-112526000D01*
X95335501Y-112521555D01*
X95298005Y-112510180D01*
X95263446Y-112491708D01*
X95233153Y-112466847D01*
X95208292Y-112436554D01*
X95189820Y-112401995D01*
X95178445Y-112364499D01*
X95174000Y-112319362D01*
X95174000Y-111580638D01*
X95178445Y-111535501D01*
X95189820Y-111498005D01*
X95208292Y-111463446D01*
X95233153Y-111433153D01*
X95263446Y-111408292D01*
X95298005Y-111389820D01*
X95335501Y-111378445D01*
X95380638Y-111374000D01*
X96019362Y-111374000D01*
X96064499Y-111378445D01*
X96064499Y-111378445D01*
G37*
G36*
X93707811Y-109528605D02*
G01*
X93746867Y-109540453D01*
X93782862Y-109559693D01*
X93814414Y-109585586D01*
X93840307Y-109617138D01*
X93859547Y-109653133D01*
X93871395Y-109692189D01*
X93876000Y-109738949D01*
X93876000Y-110661051D01*
X93871395Y-110707811D01*
X93859547Y-110746867D01*
X93840307Y-110782862D01*
X93814414Y-110814414D01*
X93782862Y-110840307D01*
X93746867Y-110859547D01*
X93707811Y-110871395D01*
X93665082Y-110875603D01*
X93641049Y-110880383D01*
X93618410Y-110889761D01*
X93598036Y-110903374D01*
X93580709Y-110920701D01*
X93567095Y-110941076D01*
X93557717Y-110963715D01*
X93552937Y-110987748D01*
X93552937Y-111012252D01*
X93557717Y-111036285D01*
X93567095Y-111058924D01*
X93580708Y-111079298D01*
X93598035Y-111096625D01*
X93618410Y-111110239D01*
X93641049Y-111119617D01*
X93665082Y-111124397D01*
X93707811Y-111128605D01*
X93746867Y-111140453D01*
X93782862Y-111159693D01*
X93814414Y-111185586D01*
X93840307Y-111217138D01*
X93859547Y-111253133D01*
X93871395Y-111292189D01*
X93876000Y-111338949D01*
X93876000Y-112261051D01*
X93871395Y-112307811D01*
X93859547Y-112346867D01*
X93840307Y-112382862D01*
X93814414Y-112414414D01*
X93782862Y-112440307D01*
X93746867Y-112459547D01*
X93707811Y-112471395D01*
X93661051Y-112476000D01*
X92938949Y-112476000D01*
X92892189Y-112471395D01*
X92853133Y-112459547D01*
X92817138Y-112440307D01*
X92785586Y-112414414D01*
X92759693Y-112382862D01*
X92740453Y-112346867D01*
X92728605Y-112307811D01*
X92724000Y-112261051D01*
X92724000Y-111338949D01*
X92728605Y-111292189D01*
X92740453Y-111253133D01*
X92759693Y-111217138D01*
X92785586Y-111185586D01*
X92817138Y-111159693D01*
X92853133Y-111140453D01*
X92892189Y-111128605D01*
X92934918Y-111124397D01*
X92958951Y-111119617D01*
X92981590Y-111110239D01*
X93001964Y-111096626D01*
X93019291Y-111079299D01*
X93032905Y-111058924D01*
X93042283Y-111036285D01*
X93047063Y-111012252D01*
X93047063Y-110987748D01*
X93042283Y-110963715D01*
X93032905Y-110941076D01*
X93019292Y-110920702D01*
X93001965Y-110903375D01*
X92981590Y-110889761D01*
X92958951Y-110880383D01*
X92934918Y-110875603D01*
X92892189Y-110871395D01*
X92853133Y-110859547D01*
X92817138Y-110840307D01*
X92785586Y-110814414D01*
X92759693Y-110782862D01*
X92740453Y-110746867D01*
X92728605Y-110707811D01*
X92724000Y-110661051D01*
X92724000Y-109738949D01*
X92728605Y-109692189D01*
X92740453Y-109653133D01*
X92759693Y-109617138D01*
X92785586Y-109585586D01*
X92817138Y-109559693D01*
X92853133Y-109540453D01*
X92892189Y-109528605D01*
X92938949Y-109524000D01*
X93661051Y-109524000D01*
X93707811Y-109528605D01*
X93707811Y-109528605D01*
G37*
G36*
X98464499Y-109753445D02*
G01*
X98501995Y-109764820D01*
X98536554Y-109783292D01*
X98566847Y-109808153D01*
X98591708Y-109838446D01*
X98610180Y-109873005D01*
X98621555Y-109910501D01*
X98626000Y-109955638D01*
X98626000Y-110694362D01*
X98621555Y-110739499D01*
X98610180Y-110776995D01*
X98591708Y-110811554D01*
X98566847Y-110841847D01*
X98536554Y-110866708D01*
X98501995Y-110885180D01*
X98464499Y-110896555D01*
X98419362Y-110901000D01*
X97780638Y-110901000D01*
X97735501Y-110896555D01*
X97698005Y-110885180D01*
X97663446Y-110866708D01*
X97633153Y-110841847D01*
X97608292Y-110811554D01*
X97589820Y-110776995D01*
X97578445Y-110739499D01*
X97574000Y-110694362D01*
X97574000Y-109955638D01*
X97578445Y-109910501D01*
X97589820Y-109873005D01*
X97608292Y-109838446D01*
X97633153Y-109808153D01*
X97663446Y-109783292D01*
X97698005Y-109764820D01*
X97735501Y-109753445D01*
X97780638Y-109749000D01*
X98419362Y-109749000D01*
X98464499Y-109753445D01*
X98464499Y-109753445D01*
G37*
G36*
X96064499Y-109628445D02*
G01*
X96101995Y-109639820D01*
X96136554Y-109658292D01*
X96166847Y-109683153D01*
X96191708Y-109713446D01*
X96210180Y-109748005D01*
X96221555Y-109785501D01*
X96226000Y-109830638D01*
X96226000Y-110569362D01*
X96221555Y-110614499D01*
X96210180Y-110651995D01*
X96191708Y-110686554D01*
X96166847Y-110716847D01*
X96136554Y-110741708D01*
X96101995Y-110760180D01*
X96064499Y-110771555D01*
X96019362Y-110776000D01*
X95380638Y-110776000D01*
X95335501Y-110771555D01*
X95298005Y-110760180D01*
X95263446Y-110741708D01*
X95233153Y-110716847D01*
X95208292Y-110686554D01*
X95189820Y-110651995D01*
X95178445Y-110614499D01*
X95174000Y-110569362D01*
X95174000Y-109830638D01*
X95178445Y-109785501D01*
X95189820Y-109748005D01*
X95208292Y-109713446D01*
X95233153Y-109683153D01*
X95263446Y-109658292D01*
X95298005Y-109639820D01*
X95335501Y-109628445D01*
X95380638Y-109624000D01*
X96019362Y-109624000D01*
X96064499Y-109628445D01*
X96064499Y-109628445D01*
G37*
G36*
X120007811Y-105628605D02*
G01*
X120046867Y-105640453D01*
X120082862Y-105659693D01*
X120114414Y-105685586D01*
X120140307Y-105717138D01*
X120159547Y-105753133D01*
X120171395Y-105792189D01*
X120176000Y-105838949D01*
X120176000Y-106761051D01*
X120171395Y-106807811D01*
X120159547Y-106846867D01*
X120140307Y-106882862D01*
X120114414Y-106914414D01*
X120082862Y-106940307D01*
X120046867Y-106959547D01*
X120007811Y-106971395D01*
X119965082Y-106975603D01*
X119941049Y-106980383D01*
X119918410Y-106989761D01*
X119898036Y-107003374D01*
X119880709Y-107020701D01*
X119867095Y-107041076D01*
X119857717Y-107063715D01*
X119852937Y-107087748D01*
X119852937Y-107112252D01*
X119857717Y-107136285D01*
X119867095Y-107158924D01*
X119880708Y-107179298D01*
X119898035Y-107196625D01*
X119918410Y-107210239D01*
X119941049Y-107219617D01*
X119965082Y-107224397D01*
X120007811Y-107228605D01*
X120046867Y-107240453D01*
X120082862Y-107259693D01*
X120114414Y-107285586D01*
X120140307Y-107317138D01*
X120159547Y-107353133D01*
X120171395Y-107392189D01*
X120176000Y-107438949D01*
X120176000Y-108361051D01*
X120171395Y-108407811D01*
X120159547Y-108446867D01*
X120140307Y-108482862D01*
X120114414Y-108514414D01*
X120082862Y-108540307D01*
X120046867Y-108559547D01*
X120007811Y-108571395D01*
X119961051Y-108576000D01*
X119238949Y-108576000D01*
X119192189Y-108571395D01*
X119153133Y-108559547D01*
X119117138Y-108540307D01*
X119085586Y-108514414D01*
X119059693Y-108482862D01*
X119040453Y-108446867D01*
X119028605Y-108407811D01*
X119024000Y-108361051D01*
X119024000Y-107438949D01*
X119028605Y-107392189D01*
X119040453Y-107353133D01*
X119059693Y-107317138D01*
X119085586Y-107285586D01*
X119117138Y-107259693D01*
X119153133Y-107240453D01*
X119192189Y-107228605D01*
X119234918Y-107224397D01*
X119258951Y-107219617D01*
X119281590Y-107210239D01*
X119301964Y-107196626D01*
X119319291Y-107179299D01*
X119332905Y-107158924D01*
X119342283Y-107136285D01*
X119347063Y-107112252D01*
X119347063Y-107087748D01*
X119342283Y-107063715D01*
X119332905Y-107041076D01*
X119319292Y-107020702D01*
X119301965Y-107003375D01*
X119281590Y-106989761D01*
X119258951Y-106980383D01*
X119234918Y-106975603D01*
X119192189Y-106971395D01*
X119153133Y-106959547D01*
X119117138Y-106940307D01*
X119085586Y-106914414D01*
X119059693Y-106882862D01*
X119040453Y-106846867D01*
X119028605Y-106807811D01*
X119024000Y-106761051D01*
X119024000Y-105838949D01*
X119028605Y-105792189D01*
X119040453Y-105753133D01*
X119059693Y-105717138D01*
X119085586Y-105685586D01*
X119117138Y-105659693D01*
X119153133Y-105640453D01*
X119192189Y-105628605D01*
X119238949Y-105624000D01*
X119961051Y-105624000D01*
X120007811Y-105628605D01*
X120007811Y-105628605D01*
G37*
G36*
X112164499Y-107378445D02*
G01*
X112201995Y-107389820D01*
X112236554Y-107408292D01*
X112266847Y-107433153D01*
X112291708Y-107463446D01*
X112310180Y-107498005D01*
X112321555Y-107535501D01*
X112326000Y-107580638D01*
X112326000Y-108319362D01*
X112321555Y-108364499D01*
X112310180Y-108401995D01*
X112291708Y-108436554D01*
X112266847Y-108466847D01*
X112236554Y-108491708D01*
X112201995Y-108510180D01*
X112164499Y-108521555D01*
X112119362Y-108526000D01*
X111480638Y-108526000D01*
X111435501Y-108521555D01*
X111398005Y-108510180D01*
X111363446Y-108491708D01*
X111333153Y-108466847D01*
X111308292Y-108436554D01*
X111289820Y-108401995D01*
X111278445Y-108364499D01*
X111274000Y-108319362D01*
X111274000Y-107580638D01*
X111278445Y-107535501D01*
X111289820Y-107498005D01*
X111308292Y-107463446D01*
X111333153Y-107433153D01*
X111363446Y-107408292D01*
X111398005Y-107389820D01*
X111435501Y-107378445D01*
X111480638Y-107374000D01*
X112119362Y-107374000D01*
X112164499Y-107378445D01*
X112164499Y-107378445D01*
G37*
G36*
X116164499Y-107378445D02*
G01*
X116201995Y-107389820D01*
X116236554Y-107408292D01*
X116266847Y-107433153D01*
X116291708Y-107463446D01*
X116310180Y-107498005D01*
X116321555Y-107535501D01*
X116326000Y-107580638D01*
X116326000Y-108319362D01*
X116321555Y-108364499D01*
X116310180Y-108401995D01*
X116291708Y-108436554D01*
X116266847Y-108466847D01*
X116236554Y-108491708D01*
X116201995Y-108510180D01*
X116164499Y-108521555D01*
X116119362Y-108526000D01*
X115480638Y-108526000D01*
X115435501Y-108521555D01*
X115398005Y-108510180D01*
X115363446Y-108491708D01*
X115333153Y-108466847D01*
X115308292Y-108436554D01*
X115289820Y-108401995D01*
X115278445Y-108364499D01*
X115274000Y-108319362D01*
X115274000Y-107580638D01*
X115278445Y-107535501D01*
X115289820Y-107498005D01*
X115308292Y-107463446D01*
X115333153Y-107433153D01*
X115363446Y-107408292D01*
X115398005Y-107389820D01*
X115435501Y-107378445D01*
X115480638Y-107374000D01*
X116119362Y-107374000D01*
X116164499Y-107378445D01*
X116164499Y-107378445D01*
G37*
G36*
X107564499Y-107203445D02*
G01*
X107601995Y-107214820D01*
X107636554Y-107233292D01*
X107666847Y-107258153D01*
X107691708Y-107288446D01*
X107710180Y-107323005D01*
X107721555Y-107360501D01*
X107726000Y-107405638D01*
X107726000Y-108144362D01*
X107721555Y-108189499D01*
X107710180Y-108226995D01*
X107691708Y-108261554D01*
X107666847Y-108291847D01*
X107636554Y-108316708D01*
X107601995Y-108335180D01*
X107564499Y-108346555D01*
X107519362Y-108351000D01*
X106880638Y-108351000D01*
X106835501Y-108346555D01*
X106798005Y-108335180D01*
X106763446Y-108316708D01*
X106733153Y-108291847D01*
X106708292Y-108261554D01*
X106689820Y-108226995D01*
X106678445Y-108189499D01*
X106674000Y-108144362D01*
X106674000Y-107405638D01*
X106678445Y-107360501D01*
X106689820Y-107323005D01*
X106708292Y-107288446D01*
X106733153Y-107258153D01*
X106763446Y-107233292D01*
X106798005Y-107214820D01*
X106835501Y-107203445D01*
X106880638Y-107199000D01*
X107519362Y-107199000D01*
X107564499Y-107203445D01*
X107564499Y-107203445D01*
G37*
G36*
X116164499Y-105628445D02*
G01*
X116201995Y-105639820D01*
X116236554Y-105658292D01*
X116266847Y-105683153D01*
X116291708Y-105713446D01*
X116310180Y-105748005D01*
X116321555Y-105785501D01*
X116326000Y-105830638D01*
X116326000Y-106569362D01*
X116321555Y-106614499D01*
X116310180Y-106651995D01*
X116291708Y-106686554D01*
X116266847Y-106716847D01*
X116236554Y-106741708D01*
X116201995Y-106760180D01*
X116164499Y-106771555D01*
X116119362Y-106776000D01*
X115480638Y-106776000D01*
X115435501Y-106771555D01*
X115398005Y-106760180D01*
X115363446Y-106741708D01*
X115333153Y-106716847D01*
X115308292Y-106686554D01*
X115289820Y-106651995D01*
X115278445Y-106614499D01*
X115274000Y-106569362D01*
X115274000Y-105830638D01*
X115278445Y-105785501D01*
X115289820Y-105748005D01*
X115308292Y-105713446D01*
X115333153Y-105683153D01*
X115363446Y-105658292D01*
X115398005Y-105639820D01*
X115435501Y-105628445D01*
X115480638Y-105624000D01*
X116119362Y-105624000D01*
X116164499Y-105628445D01*
X116164499Y-105628445D01*
G37*
G36*
X112164499Y-105628445D02*
G01*
X112201995Y-105639820D01*
X112236554Y-105658292D01*
X112266847Y-105683153D01*
X112291708Y-105713446D01*
X112310180Y-105748005D01*
X112321555Y-105785501D01*
X112326000Y-105830638D01*
X112326000Y-106569362D01*
X112321555Y-106614499D01*
X112310180Y-106651995D01*
X112291708Y-106686554D01*
X112266847Y-106716847D01*
X112236554Y-106741708D01*
X112201995Y-106760180D01*
X112164499Y-106771555D01*
X112119362Y-106776000D01*
X111480638Y-106776000D01*
X111435501Y-106771555D01*
X111398005Y-106760180D01*
X111363446Y-106741708D01*
X111333153Y-106716847D01*
X111308292Y-106686554D01*
X111289820Y-106651995D01*
X111278445Y-106614499D01*
X111274000Y-106569362D01*
X111274000Y-105830638D01*
X111278445Y-105785501D01*
X111289820Y-105748005D01*
X111308292Y-105713446D01*
X111333153Y-105683153D01*
X111363446Y-105658292D01*
X111398005Y-105639820D01*
X111435501Y-105628445D01*
X111480638Y-105624000D01*
X112119362Y-105624000D01*
X112164499Y-105628445D01*
X112164499Y-105628445D01*
G37*
G36*
X107564499Y-105453445D02*
G01*
X107601995Y-105464820D01*
X107636554Y-105483292D01*
X107666847Y-105508153D01*
X107691708Y-105538446D01*
X107710180Y-105573005D01*
X107721555Y-105610501D01*
X107726000Y-105655638D01*
X107726000Y-106394362D01*
X107721555Y-106439499D01*
X107710180Y-106476995D01*
X107691708Y-106511554D01*
X107666847Y-106541847D01*
X107636554Y-106566708D01*
X107601995Y-106585180D01*
X107564499Y-106596555D01*
X107519362Y-106601000D01*
X106880638Y-106601000D01*
X106835501Y-106596555D01*
X106798005Y-106585180D01*
X106763446Y-106566708D01*
X106733153Y-106541847D01*
X106708292Y-106511554D01*
X106689820Y-106476995D01*
X106678445Y-106439499D01*
X106674000Y-106394362D01*
X106674000Y-105655638D01*
X106678445Y-105610501D01*
X106689820Y-105573005D01*
X106708292Y-105538446D01*
X106733153Y-105508153D01*
X106763446Y-105483292D01*
X106798005Y-105464820D01*
X106835501Y-105453445D01*
X106880638Y-105449000D01*
X107519362Y-105449000D01*
X107564499Y-105453445D01*
X107564499Y-105453445D01*
G37*
G36*
X110340548Y-99962326D02*
G01*
X110514157Y-100014990D01*
X110674156Y-100100511D01*
X110688612Y-100112375D01*
X110814397Y-100215603D01*
X110893729Y-100312271D01*
X110929489Y-100355844D01*
X111015010Y-100515843D01*
X111067674Y-100689452D01*
X111081000Y-100824757D01*
X111081000Y-101375244D01*
X111067674Y-101510548D01*
X111015010Y-101684157D01*
X110929489Y-101844156D01*
X110893729Y-101887729D01*
X110814397Y-101984397D01*
X110674155Y-102099489D01*
X110514156Y-102185010D01*
X110340547Y-102237674D01*
X110160000Y-102255456D01*
X109979452Y-102237674D01*
X109805843Y-102185010D01*
X109645844Y-102099489D01*
X109602271Y-102063729D01*
X109505603Y-101984397D01*
X109390511Y-101844155D01*
X109304991Y-101684158D01*
X109304990Y-101684156D01*
X109252326Y-101510547D01*
X109239000Y-101375243D01*
X109239000Y-100824756D01*
X109252326Y-100689452D01*
X109304990Y-100515843D01*
X109390512Y-100355844D01*
X109400832Y-100343269D01*
X109505604Y-100215603D01*
X109631389Y-100112375D01*
X109645845Y-100100511D01*
X109805844Y-100014990D01*
X109979453Y-99962326D01*
X110160000Y-99944544D01*
X110340548Y-99962326D01*
X110340548Y-99962326D01*
G37*
G36*
X112880548Y-99962326D02*
G01*
X113054157Y-100014990D01*
X113214156Y-100100511D01*
X113228612Y-100112375D01*
X113354397Y-100215603D01*
X113433729Y-100312271D01*
X113469489Y-100355844D01*
X113555010Y-100515843D01*
X113607674Y-100689452D01*
X113621000Y-100824757D01*
X113621000Y-101375244D01*
X113607674Y-101510548D01*
X113555010Y-101684157D01*
X113469489Y-101844156D01*
X113433729Y-101887729D01*
X113354397Y-101984397D01*
X113214155Y-102099489D01*
X113054156Y-102185010D01*
X112880547Y-102237674D01*
X112700000Y-102255456D01*
X112519452Y-102237674D01*
X112345843Y-102185010D01*
X112185844Y-102099489D01*
X112142271Y-102063729D01*
X112045603Y-101984397D01*
X111930511Y-101844155D01*
X111844991Y-101684158D01*
X111844990Y-101684156D01*
X111792326Y-101510547D01*
X111779000Y-101375243D01*
X111779000Y-100824756D01*
X111792326Y-100689452D01*
X111844990Y-100515843D01*
X111930512Y-100355844D01*
X111940832Y-100343269D01*
X112045604Y-100215603D01*
X112171389Y-100112375D01*
X112185845Y-100100511D01*
X112345844Y-100014990D01*
X112519453Y-99962326D01*
X112700000Y-99944544D01*
X112880548Y-99962326D01*
X112880548Y-99962326D01*
G37*
G36*
X115420548Y-99962326D02*
G01*
X115594157Y-100014990D01*
X115754156Y-100100511D01*
X115768612Y-100112375D01*
X115894397Y-100215603D01*
X115973729Y-100312271D01*
X116009489Y-100355844D01*
X116095010Y-100515843D01*
X116147674Y-100689452D01*
X116161000Y-100824757D01*
X116161000Y-101375244D01*
X116147674Y-101510548D01*
X116095010Y-101684157D01*
X116009489Y-101844156D01*
X115973729Y-101887729D01*
X115894397Y-101984397D01*
X115754155Y-102099489D01*
X115594156Y-102185010D01*
X115420547Y-102237674D01*
X115240000Y-102255456D01*
X115059452Y-102237674D01*
X114885843Y-102185010D01*
X114725844Y-102099489D01*
X114682271Y-102063729D01*
X114585603Y-101984397D01*
X114470511Y-101844155D01*
X114384991Y-101684158D01*
X114384990Y-101684156D01*
X114332326Y-101510547D01*
X114319000Y-101375243D01*
X114319000Y-100824756D01*
X114332326Y-100689452D01*
X114384990Y-100515843D01*
X114470512Y-100355844D01*
X114480832Y-100343269D01*
X114585604Y-100215603D01*
X114711389Y-100112375D01*
X114725845Y-100100511D01*
X114885844Y-100014990D01*
X115059453Y-99962326D01*
X115240000Y-99944544D01*
X115420548Y-99962326D01*
X115420548Y-99962326D01*
G37*
G36*
X107800548Y-99962326D02*
G01*
X107974157Y-100014990D01*
X108134156Y-100100511D01*
X108148612Y-100112375D01*
X108274397Y-100215603D01*
X108353729Y-100312271D01*
X108389489Y-100355844D01*
X108475010Y-100515843D01*
X108527674Y-100689452D01*
X108541000Y-100824757D01*
X108541000Y-101375244D01*
X108527674Y-101510548D01*
X108475010Y-101684157D01*
X108389489Y-101844156D01*
X108353729Y-101887729D01*
X108274397Y-101984397D01*
X108134155Y-102099489D01*
X107974156Y-102185010D01*
X107800547Y-102237674D01*
X107620000Y-102255456D01*
X107439452Y-102237674D01*
X107265843Y-102185010D01*
X107105844Y-102099489D01*
X107062271Y-102063729D01*
X106965603Y-101984397D01*
X106850511Y-101844155D01*
X106764991Y-101684158D01*
X106764990Y-101684156D01*
X106712326Y-101510547D01*
X106699000Y-101375243D01*
X106699000Y-100824756D01*
X106712326Y-100689452D01*
X106764990Y-100515843D01*
X106850512Y-100355844D01*
X106860832Y-100343269D01*
X106965604Y-100215603D01*
X107091389Y-100112375D01*
X107105845Y-100100511D01*
X107265844Y-100014990D01*
X107439453Y-99962326D01*
X107620000Y-99944544D01*
X107800548Y-99962326D01*
X107800548Y-99962326D01*
G37*
G36*
X118559561Y-99952966D02*
G01*
X118592383Y-99962923D01*
X118622632Y-99979092D01*
X118649148Y-100000852D01*
X118670908Y-100027368D01*
X118687077Y-100057617D01*
X118697034Y-100090439D01*
X118701000Y-100130713D01*
X118701000Y-102069287D01*
X118697034Y-102109561D01*
X118687077Y-102142383D01*
X118670908Y-102172632D01*
X118649148Y-102199148D01*
X118622632Y-102220908D01*
X118592383Y-102237077D01*
X118559561Y-102247034D01*
X118519287Y-102251000D01*
X117040713Y-102251000D01*
X117000439Y-102247034D01*
X116967617Y-102237077D01*
X116937368Y-102220908D01*
X116910852Y-102199148D01*
X116889092Y-102172632D01*
X116872923Y-102142383D01*
X116862966Y-102109561D01*
X116859000Y-102069287D01*
X116859000Y-100130713D01*
X116862966Y-100090439D01*
X116872923Y-100057617D01*
X116889092Y-100027368D01*
X116910852Y-100000852D01*
X116937368Y-99979092D01*
X116967617Y-99962923D01*
X117000439Y-99952966D01*
X117040713Y-99949000D01*
X118519287Y-99949000D01*
X118559561Y-99952966D01*
X118559561Y-99952966D01*
G37*
G36*
X130164499Y-99703445D02*
G01*
X130201995Y-99714820D01*
X130236554Y-99733292D01*
X130266847Y-99758153D01*
X130291708Y-99788446D01*
X130310180Y-99823005D01*
X130321555Y-99860501D01*
X130326000Y-99905638D01*
X130326000Y-100644362D01*
X130321555Y-100689499D01*
X130310180Y-100726995D01*
X130291708Y-100761554D01*
X130266847Y-100791847D01*
X130236554Y-100816708D01*
X130201995Y-100835180D01*
X130164499Y-100846555D01*
X130119362Y-100851000D01*
X129480638Y-100851000D01*
X129435501Y-100846555D01*
X129398005Y-100835180D01*
X129363446Y-100816708D01*
X129333153Y-100791847D01*
X129308292Y-100761554D01*
X129289820Y-100726995D01*
X129278445Y-100689499D01*
X129274000Y-100644362D01*
X129274000Y-99905638D01*
X129278445Y-99860501D01*
X129289820Y-99823005D01*
X129308292Y-99788446D01*
X129333153Y-99758153D01*
X129363446Y-99733292D01*
X129398005Y-99714820D01*
X129435501Y-99703445D01*
X129480638Y-99699000D01*
X130119362Y-99699000D01*
X130164499Y-99703445D01*
X130164499Y-99703445D01*
G37*
G36*
X130164499Y-97953445D02*
G01*
X130201995Y-97964820D01*
X130236554Y-97983292D01*
X130266847Y-98008153D01*
X130291708Y-98038446D01*
X130310180Y-98073005D01*
X130321555Y-98110501D01*
X130326000Y-98155638D01*
X130326000Y-98894362D01*
X130321555Y-98939499D01*
X130310180Y-98976995D01*
X130291708Y-99011554D01*
X130266847Y-99041847D01*
X130236554Y-99066708D01*
X130201995Y-99085180D01*
X130164499Y-99096555D01*
X130119362Y-99101000D01*
X129480638Y-99101000D01*
X129435501Y-99096555D01*
X129398005Y-99085180D01*
X129363446Y-99066708D01*
X129333153Y-99041847D01*
X129308292Y-99011554D01*
X129289820Y-98976995D01*
X129278445Y-98939499D01*
X129274000Y-98894362D01*
X129274000Y-98155638D01*
X129278445Y-98110501D01*
X129289820Y-98073005D01*
X129308292Y-98038446D01*
X129333153Y-98008153D01*
X129363446Y-97983292D01*
X129398005Y-97964820D01*
X129435501Y-97953445D01*
X129480638Y-97949000D01*
X130119362Y-97949000D01*
X130164499Y-97953445D01*
X130164499Y-97953445D01*
G37*
G36*
X126964499Y-97803445D02*
G01*
X127001995Y-97814820D01*
X127036554Y-97833292D01*
X127066847Y-97858153D01*
X127091708Y-97888446D01*
X127110180Y-97923005D01*
X127121555Y-97960501D01*
X127126000Y-98005638D01*
X127126000Y-98744362D01*
X127121555Y-98789499D01*
X127110180Y-98826995D01*
X127091708Y-98861554D01*
X127066847Y-98891847D01*
X127036554Y-98916708D01*
X127001995Y-98935180D01*
X126964499Y-98946555D01*
X126919362Y-98951000D01*
X126280638Y-98951000D01*
X126235501Y-98946555D01*
X126198005Y-98935180D01*
X126163446Y-98916708D01*
X126133153Y-98891847D01*
X126108292Y-98861554D01*
X126089820Y-98826995D01*
X126078445Y-98789499D01*
X126074000Y-98744362D01*
X126074000Y-98005638D01*
X126078445Y-97960501D01*
X126089820Y-97923005D01*
X126108292Y-97888446D01*
X126133153Y-97858153D01*
X126163446Y-97833292D01*
X126198005Y-97814820D01*
X126235501Y-97803445D01*
X126280638Y-97799000D01*
X126919362Y-97799000D01*
X126964499Y-97803445D01*
X126964499Y-97803445D01*
G37*
G36*
X126964499Y-96053445D02*
G01*
X127001995Y-96064820D01*
X127036554Y-96083292D01*
X127066847Y-96108153D01*
X127091708Y-96138446D01*
X127110180Y-96173005D01*
X127121555Y-96210501D01*
X127126000Y-96255638D01*
X127126000Y-96994362D01*
X127121555Y-97039499D01*
X127110180Y-97076995D01*
X127091708Y-97111554D01*
X127066847Y-97141847D01*
X127036554Y-97166708D01*
X127001995Y-97185180D01*
X126964499Y-97196555D01*
X126919362Y-97201000D01*
X126280638Y-97201000D01*
X126235501Y-97196555D01*
X126198005Y-97185180D01*
X126163446Y-97166708D01*
X126133153Y-97141847D01*
X126108292Y-97111554D01*
X126089820Y-97076995D01*
X126078445Y-97039499D01*
X126074000Y-96994362D01*
X126074000Y-96255638D01*
X126078445Y-96210501D01*
X126089820Y-96173005D01*
X126108292Y-96138446D01*
X126133153Y-96108153D01*
X126163446Y-96083292D01*
X126198005Y-96064820D01*
X126235501Y-96053445D01*
X126280638Y-96049000D01*
X126919362Y-96049000D01*
X126964499Y-96053445D01*
X126964499Y-96053445D01*
G37*
G36*
X122214499Y-91878445D02*
G01*
X122251995Y-91889820D01*
X122286554Y-91908292D01*
X122316847Y-91933153D01*
X122341708Y-91963446D01*
X122360180Y-91998005D01*
X122371555Y-92035501D01*
X122376000Y-92080638D01*
X122376000Y-92719362D01*
X122371555Y-92764499D01*
X122360180Y-92801995D01*
X122341708Y-92836554D01*
X122316847Y-92866847D01*
X122286554Y-92891708D01*
X122251995Y-92910180D01*
X122214499Y-92921555D01*
X122169362Y-92926000D01*
X121430638Y-92926000D01*
X121385501Y-92921555D01*
X121348005Y-92910180D01*
X121313446Y-92891708D01*
X121283153Y-92866847D01*
X121258292Y-92836554D01*
X121239820Y-92801995D01*
X121228445Y-92764499D01*
X121224000Y-92719362D01*
X121224000Y-92080638D01*
X121228445Y-92035501D01*
X121239820Y-91998005D01*
X121258292Y-91963446D01*
X121283153Y-91933153D01*
X121313446Y-91908292D01*
X121348005Y-91889820D01*
X121385501Y-91878445D01*
X121430638Y-91874000D01*
X122169362Y-91874000D01*
X122214499Y-91878445D01*
X122214499Y-91878445D01*
G37*
G36*
X120464499Y-91878445D02*
G01*
X120501995Y-91889820D01*
X120536554Y-91908292D01*
X120566847Y-91933153D01*
X120591708Y-91963446D01*
X120610180Y-91998005D01*
X120621555Y-92035501D01*
X120626000Y-92080638D01*
X120626000Y-92719362D01*
X120621555Y-92764499D01*
X120610180Y-92801995D01*
X120591708Y-92836554D01*
X120566847Y-92866847D01*
X120536554Y-92891708D01*
X120501995Y-92910180D01*
X120464499Y-92921555D01*
X120419362Y-92926000D01*
X119680638Y-92926000D01*
X119635501Y-92921555D01*
X119598005Y-92910180D01*
X119563446Y-92891708D01*
X119533153Y-92866847D01*
X119508292Y-92836554D01*
X119489820Y-92801995D01*
X119478445Y-92764499D01*
X119474000Y-92719362D01*
X119474000Y-92080638D01*
X119478445Y-92035501D01*
X119489820Y-91998005D01*
X119508292Y-91963446D01*
X119533153Y-91933153D01*
X119563446Y-91908292D01*
X119598005Y-91889820D01*
X119635501Y-91878445D01*
X119680638Y-91874000D01*
X120419362Y-91874000D01*
X120464499Y-91878445D01*
X120464499Y-91878445D01*
G37*
M02*
