G04 #@! TF.GenerationSoftware,KiCad,Pcbnew,5.1.1-8be2ce7~80~ubuntu18.04.1*
G04 #@! TF.CreationDate,2019-04-20T15:40:35+02:00*
G04 #@! TF.ProjectId,megazord,6d656761-7a6f-4726-942e-6b696361645f,rev?*
G04 #@! TF.SameCoordinates,Original*
G04 #@! TF.FileFunction,Copper,L2,Bot*
G04 #@! TF.FilePolarity,Positive*
%FSLAX46Y46*%
G04 Gerber Fmt 4.6, Leading zero omitted, Abs format (unit mm)*
G04 Created by KiCad (PCBNEW 5.1.1-8be2ce7~80~ubuntu18.04.1) date 2019-04-20 15:40:35*
%MOMM*%
%LPD*%
G04 APERTURE LIST*
%ADD10C,0.300000*%
%ADD11C,0.100000*%
%ADD12C,0.950000*%
%ADD13C,1.050000*%
%ADD14R,1.700000X1.700000*%
%ADD15O,1.700000X1.700000*%
%ADD16C,1.740000*%
%ADD17O,2.200000X1.740000*%
%ADD18O,1.700000X2.000000*%
%ADD19C,1.700000*%
%ADD20R,0.800000X1.900000*%
%ADD21R,2.200000X1.200000*%
%ADD22R,2.200000X3.500000*%
%ADD23O,1.740000X2.200000*%
%ADD24C,1.000000*%
%ADD25C,1.500000*%
%ADD26C,0.800000*%
%ADD27C,0.500000*%
%ADD28C,1.000000*%
%ADD29C,1.500000*%
%ADD30C,2.000000*%
%ADD31C,0.250000*%
%ADD32C,0.400000*%
G04 APERTURE END LIST*
D10*
X83235714Y-104554761D02*
X83735714Y-103602380D01*
X84092857Y-104554761D02*
X84092857Y-102554761D01*
X83521428Y-102554761D01*
X83378571Y-102650000D01*
X83307142Y-102745238D01*
X83235714Y-102935714D01*
X83235714Y-103221428D01*
X83307142Y-103411904D01*
X83378571Y-103507142D01*
X83521428Y-103602380D01*
X84092857Y-103602380D01*
X82378571Y-104554761D02*
X82521428Y-104459523D01*
X82592857Y-104364285D01*
X82664285Y-104173809D01*
X82664285Y-103602380D01*
X82592857Y-103411904D01*
X82521428Y-103316666D01*
X82378571Y-103221428D01*
X82164285Y-103221428D01*
X82021428Y-103316666D01*
X81950000Y-103411904D01*
X81878571Y-103602380D01*
X81878571Y-104173809D01*
X81950000Y-104364285D01*
X82021428Y-104459523D01*
X82164285Y-104554761D01*
X82378571Y-104554761D01*
X81235714Y-104554761D02*
X81235714Y-102554761D01*
X81235714Y-103316666D02*
X81092857Y-103221428D01*
X80807142Y-103221428D01*
X80664285Y-103316666D01*
X80592857Y-103411904D01*
X80521428Y-103602380D01*
X80521428Y-104173809D01*
X80592857Y-104364285D01*
X80664285Y-104459523D01*
X80807142Y-104554761D01*
X81092857Y-104554761D01*
X81235714Y-104459523D01*
X79664285Y-104554761D02*
X79807142Y-104459523D01*
X79878571Y-104364285D01*
X79950000Y-104173809D01*
X79950000Y-103602380D01*
X79878571Y-103411904D01*
X79807142Y-103316666D01*
X79664285Y-103221428D01*
X79450000Y-103221428D01*
X79307142Y-103316666D01*
X79235714Y-103411904D01*
X79164285Y-103602380D01*
X79164285Y-104173809D01*
X79235714Y-104364285D01*
X79307142Y-104459523D01*
X79450000Y-104554761D01*
X79664285Y-104554761D01*
X78735714Y-103221428D02*
X78164285Y-103221428D01*
X78521428Y-102554761D02*
X78521428Y-104269047D01*
X78450000Y-104459523D01*
X78307142Y-104554761D01*
X78164285Y-104554761D01*
X75807142Y-104554761D02*
X76521428Y-104554761D01*
X76521428Y-102554761D01*
X75307142Y-104554761D02*
X75307142Y-103221428D01*
X75307142Y-102554761D02*
X75378571Y-102650000D01*
X75307142Y-102745238D01*
X75235714Y-102650000D01*
X75307142Y-102554761D01*
X75307142Y-102745238D01*
X74592857Y-103221428D02*
X74592857Y-104554761D01*
X74592857Y-103411904D02*
X74521428Y-103316666D01*
X74378571Y-103221428D01*
X74164285Y-103221428D01*
X74021428Y-103316666D01*
X73950000Y-103507142D01*
X73950000Y-104554761D01*
X72664285Y-104459523D02*
X72807142Y-104554761D01*
X73092857Y-104554761D01*
X73235714Y-104459523D01*
X73307142Y-104269047D01*
X73307142Y-103507142D01*
X73235714Y-103316666D01*
X73092857Y-103221428D01*
X72807142Y-103221428D01*
X72664285Y-103316666D01*
X72592857Y-103507142D01*
X72592857Y-103697619D01*
X73307142Y-103888095D01*
X71450000Y-103507142D02*
X71950000Y-103507142D01*
X71950000Y-104554761D02*
X71950000Y-102554761D01*
X71235714Y-102554761D01*
X70450000Y-104554761D02*
X70592857Y-104459523D01*
X70664285Y-104364285D01*
X70735714Y-104173809D01*
X70735714Y-103602380D01*
X70664285Y-103411904D01*
X70592857Y-103316666D01*
X70450000Y-103221428D01*
X70235714Y-103221428D01*
X70092857Y-103316666D01*
X70021428Y-103411904D01*
X69950000Y-103602380D01*
X69950000Y-104173809D01*
X70021428Y-104364285D01*
X70092857Y-104459523D01*
X70235714Y-104554761D01*
X70450000Y-104554761D01*
X69092857Y-104554761D02*
X69235714Y-104459523D01*
X69307142Y-104269047D01*
X69307142Y-102554761D01*
X68307142Y-104554761D02*
X68450000Y-104459523D01*
X68521428Y-104269047D01*
X68521428Y-102554761D01*
X67521428Y-104554761D02*
X67664285Y-104459523D01*
X67735714Y-104364285D01*
X67807142Y-104173809D01*
X67807142Y-103602380D01*
X67735714Y-103411904D01*
X67664285Y-103316666D01*
X67521428Y-103221428D01*
X67307142Y-103221428D01*
X67164285Y-103316666D01*
X67092857Y-103411904D01*
X67021428Y-103602380D01*
X67021428Y-104173809D01*
X67092857Y-104364285D01*
X67164285Y-104459523D01*
X67307142Y-104554761D01*
X67521428Y-104554761D01*
X66521428Y-103221428D02*
X66235714Y-104554761D01*
X65950000Y-103602380D01*
X65664285Y-104554761D01*
X65378571Y-103221428D01*
X64235714Y-104459523D02*
X64378571Y-104554761D01*
X64664285Y-104554761D01*
X64807142Y-104459523D01*
X64878571Y-104269047D01*
X64878571Y-103507142D01*
X64807142Y-103316666D01*
X64664285Y-103221428D01*
X64378571Y-103221428D01*
X64235714Y-103316666D01*
X64164285Y-103507142D01*
X64164285Y-103697619D01*
X64878571Y-103888095D01*
X63521428Y-104554761D02*
X63521428Y-103221428D01*
X63521428Y-103602380D02*
X63450000Y-103411904D01*
X63378571Y-103316666D01*
X63235714Y-103221428D01*
X63092857Y-103221428D01*
X79950000Y-105854761D02*
X79950000Y-106235714D01*
X79378571Y-105854761D02*
X79378571Y-106235714D01*
X78735714Y-107854761D02*
X78735714Y-105854761D01*
X78235714Y-107283333D01*
X77735714Y-105854761D01*
X77735714Y-107854761D01*
X76450000Y-107759523D02*
X76592857Y-107854761D01*
X76878571Y-107854761D01*
X77021428Y-107759523D01*
X77092857Y-107569047D01*
X77092857Y-106807142D01*
X77021428Y-106616666D01*
X76878571Y-106521428D01*
X76592857Y-106521428D01*
X76450000Y-106616666D01*
X76378571Y-106807142D01*
X76378571Y-106997619D01*
X77092857Y-107188095D01*
X75092857Y-106521428D02*
X75092857Y-108140476D01*
X75164285Y-108330952D01*
X75235714Y-108426190D01*
X75378571Y-108521428D01*
X75592857Y-108521428D01*
X75735714Y-108426190D01*
X75092857Y-107759523D02*
X75235714Y-107854761D01*
X75521428Y-107854761D01*
X75664285Y-107759523D01*
X75735714Y-107664285D01*
X75807142Y-107473809D01*
X75807142Y-106902380D01*
X75735714Y-106711904D01*
X75664285Y-106616666D01*
X75521428Y-106521428D01*
X75235714Y-106521428D01*
X75092857Y-106616666D01*
X73735714Y-107854761D02*
X73735714Y-106807142D01*
X73807142Y-106616666D01*
X73950000Y-106521428D01*
X74235714Y-106521428D01*
X74378571Y-106616666D01*
X73735714Y-107759523D02*
X73878571Y-107854761D01*
X74235714Y-107854761D01*
X74378571Y-107759523D01*
X74450000Y-107569047D01*
X74450000Y-107378571D01*
X74378571Y-107188095D01*
X74235714Y-107092857D01*
X73878571Y-107092857D01*
X73735714Y-106997619D01*
X73164285Y-105854761D02*
X72164285Y-105854761D01*
X73164285Y-107854761D01*
X72164285Y-107854761D01*
X71378571Y-107854761D02*
X71521428Y-107759523D01*
X71592857Y-107664285D01*
X71664285Y-107473809D01*
X71664285Y-106902380D01*
X71592857Y-106711904D01*
X71521428Y-106616666D01*
X71378571Y-106521428D01*
X71164285Y-106521428D01*
X71021428Y-106616666D01*
X70950000Y-106711904D01*
X70878571Y-106902380D01*
X70878571Y-107473809D01*
X70950000Y-107664285D01*
X71021428Y-107759523D01*
X71164285Y-107854761D01*
X71378571Y-107854761D01*
X70235714Y-107854761D02*
X70235714Y-106521428D01*
X70235714Y-106902380D02*
X70164285Y-106711904D01*
X70092857Y-106616666D01*
X69950000Y-106521428D01*
X69807142Y-106521428D01*
X68664285Y-107854761D02*
X68664285Y-105854761D01*
X68664285Y-107759523D02*
X68807142Y-107854761D01*
X69092857Y-107854761D01*
X69235714Y-107759523D01*
X69307142Y-107664285D01*
X69378571Y-107473809D01*
X69378571Y-106902380D01*
X69307142Y-106711904D01*
X69235714Y-106616666D01*
X69092857Y-106521428D01*
X68807142Y-106521428D01*
X68664285Y-106616666D01*
X68021428Y-105854761D02*
X68021428Y-106235714D01*
X67450000Y-105854761D02*
X67450000Y-106235714D01*
X81164285Y-112645238D02*
X81092857Y-112550000D01*
X80950000Y-112454761D01*
X80592857Y-112454761D01*
X80450000Y-112550000D01*
X80378571Y-112645238D01*
X80307142Y-112835714D01*
X80307142Y-113026190D01*
X80378571Y-113311904D01*
X81235714Y-114454761D01*
X80307142Y-114454761D01*
X79878571Y-112645238D02*
X79592857Y-112359523D01*
X79307142Y-112645238D01*
X78878571Y-112645238D02*
X78807142Y-112550000D01*
X78664285Y-112454761D01*
X78307142Y-112454761D01*
X78164285Y-112550000D01*
X78092857Y-112645238D01*
X78021428Y-112835714D01*
X78021428Y-113026190D01*
X78092857Y-113311904D01*
X78950000Y-114454761D01*
X78021428Y-114454761D01*
X77092857Y-112454761D02*
X76950000Y-112454761D01*
X76807142Y-112550000D01*
X76735714Y-112645238D01*
X76664285Y-112835714D01*
X76592857Y-113216666D01*
X76592857Y-113692857D01*
X76664285Y-114073809D01*
X76735714Y-114264285D01*
X76807142Y-114359523D01*
X76950000Y-114454761D01*
X77092857Y-114454761D01*
X77235714Y-114359523D01*
X77307142Y-114264285D01*
X77378571Y-114073809D01*
X77450000Y-113692857D01*
X77450000Y-113216666D01*
X77378571Y-112835714D01*
X77307142Y-112645238D01*
X77235714Y-112550000D01*
X77092857Y-112454761D01*
X74950000Y-112454761D02*
X73950000Y-112454761D01*
X74950000Y-114454761D01*
X73950000Y-114454761D01*
X71878571Y-115121428D02*
X71878571Y-112264285D01*
X69307142Y-115121428D02*
X69307142Y-112264285D01*
X67092857Y-114454761D02*
X67092857Y-112454761D01*
X66735714Y-112454761D01*
X66521428Y-112550000D01*
X66378571Y-112740476D01*
X66307142Y-112930952D01*
X66235714Y-113311904D01*
X66235714Y-113597619D01*
X66307142Y-113978571D01*
X66378571Y-114169047D01*
X66521428Y-114359523D01*
X66735714Y-114454761D01*
X67092857Y-114454761D01*
X158942857Y-105004761D02*
X158942857Y-103004761D01*
X158371428Y-103004761D01*
X158228571Y-103100000D01*
X158157142Y-103195238D01*
X158085714Y-103385714D01*
X158085714Y-103671428D01*
X158157142Y-103861904D01*
X158228571Y-103957142D01*
X158371428Y-104052380D01*
X158942857Y-104052380D01*
X156800000Y-105004761D02*
X156800000Y-103957142D01*
X156871428Y-103766666D01*
X157014285Y-103671428D01*
X157300000Y-103671428D01*
X157442857Y-103766666D01*
X156800000Y-104909523D02*
X156942857Y-105004761D01*
X157300000Y-105004761D01*
X157442857Y-104909523D01*
X157514285Y-104719047D01*
X157514285Y-104528571D01*
X157442857Y-104338095D01*
X157300000Y-104242857D01*
X156942857Y-104242857D01*
X156800000Y-104147619D01*
X156300000Y-103671428D02*
X155728571Y-103671428D01*
X156085714Y-103004761D02*
X156085714Y-104719047D01*
X156014285Y-104909523D01*
X155871428Y-105004761D01*
X155728571Y-105004761D01*
X155228571Y-105004761D02*
X155228571Y-103671428D01*
X155228571Y-104052380D02*
X155157142Y-103861904D01*
X155085714Y-103766666D01*
X154942857Y-103671428D01*
X154800000Y-103671428D01*
X154442857Y-103671428D02*
X154085714Y-105004761D01*
X153728571Y-103671428D02*
X154085714Y-105004761D01*
X154228571Y-105480952D01*
X154300000Y-105576190D01*
X154442857Y-105671428D01*
X153157142Y-105004761D02*
X153157142Y-103004761D01*
X153014285Y-104242857D02*
X152585714Y-105004761D01*
X152585714Y-103671428D02*
X153157142Y-104433333D01*
X150871428Y-104909523D02*
X150657142Y-105004761D01*
X150300000Y-105004761D01*
X150157142Y-104909523D01*
X150085714Y-104814285D01*
X150014285Y-104623809D01*
X150014285Y-104433333D01*
X150085714Y-104242857D01*
X150157142Y-104147619D01*
X150300000Y-104052380D01*
X150585714Y-103957142D01*
X150728571Y-103861904D01*
X150800000Y-103766666D01*
X150871428Y-103576190D01*
X150871428Y-103385714D01*
X150800000Y-103195238D01*
X150728571Y-103100000D01*
X150585714Y-103004761D01*
X150228571Y-103004761D01*
X150014285Y-103100000D01*
X149514285Y-103671428D02*
X148728571Y-103671428D01*
X149514285Y-105004761D01*
X148728571Y-105004761D01*
X148300000Y-103671428D02*
X147942857Y-105004761D01*
X147585714Y-103671428D02*
X147942857Y-105004761D01*
X148085714Y-105480952D01*
X148157142Y-105576190D01*
X148300000Y-105671428D01*
X146371428Y-105004761D02*
X146371428Y-103004761D01*
X146371428Y-104909523D02*
X146514285Y-105004761D01*
X146800000Y-105004761D01*
X146942857Y-104909523D01*
X147014285Y-104814285D01*
X147085714Y-104623809D01*
X147085714Y-104052380D01*
X147014285Y-103861904D01*
X146942857Y-103766666D01*
X146800000Y-103671428D01*
X146514285Y-103671428D01*
X146371428Y-103766666D01*
X145442857Y-105004761D02*
X145585714Y-104909523D01*
X145657142Y-104719047D01*
X145657142Y-103004761D01*
X144871428Y-105004761D02*
X144871428Y-103671428D01*
X144871428Y-103004761D02*
X144942857Y-103100000D01*
X144871428Y-103195238D01*
X144800000Y-103100000D01*
X144871428Y-103004761D01*
X144871428Y-103195238D01*
X144157142Y-105004761D02*
X144157142Y-103004761D01*
X144014285Y-104242857D02*
X143585714Y-105004761D01*
X143585714Y-103671428D02*
X144157142Y-104433333D01*
X156014285Y-106495238D02*
X155942857Y-106400000D01*
X155800000Y-106304761D01*
X155442857Y-106304761D01*
X155300000Y-106400000D01*
X155228571Y-106495238D01*
X155157142Y-106685714D01*
X155157142Y-106876190D01*
X155228571Y-107161904D01*
X156085714Y-108304761D01*
X155157142Y-108304761D01*
X154228571Y-106304761D02*
X154085714Y-106304761D01*
X153942857Y-106400000D01*
X153871428Y-106495238D01*
X153800000Y-106685714D01*
X153728571Y-107066666D01*
X153728571Y-107542857D01*
X153800000Y-107923809D01*
X153871428Y-108114285D01*
X153942857Y-108209523D01*
X154085714Y-108304761D01*
X154228571Y-108304761D01*
X154371428Y-108209523D01*
X154442857Y-108114285D01*
X154514285Y-107923809D01*
X154585714Y-107542857D01*
X154585714Y-107066666D01*
X154514285Y-106685714D01*
X154442857Y-106495238D01*
X154371428Y-106400000D01*
X154228571Y-106304761D01*
X153085714Y-108114285D02*
X153014285Y-108209523D01*
X153085714Y-108304761D01*
X153157142Y-108209523D01*
X153085714Y-108114285D01*
X153085714Y-108304761D01*
X152085714Y-106304761D02*
X151942857Y-106304761D01*
X151800000Y-106400000D01*
X151728571Y-106495238D01*
X151657142Y-106685714D01*
X151585714Y-107066666D01*
X151585714Y-107542857D01*
X151657142Y-107923809D01*
X151728571Y-108114285D01*
X151800000Y-108209523D01*
X151942857Y-108304761D01*
X152085714Y-108304761D01*
X152228571Y-108209523D01*
X152300000Y-108114285D01*
X152371428Y-107923809D01*
X152442857Y-107542857D01*
X152442857Y-107066666D01*
X152371428Y-106685714D01*
X152300000Y-106495238D01*
X152228571Y-106400000D01*
X152085714Y-106304761D01*
X150300000Y-106971428D02*
X150300000Y-108304761D01*
X150657142Y-106209523D02*
X151014285Y-107638095D01*
X150085714Y-107638095D01*
X149514285Y-108114285D02*
X149442857Y-108209523D01*
X149514285Y-108304761D01*
X149585714Y-108209523D01*
X149514285Y-108114285D01*
X149514285Y-108304761D01*
X148014285Y-108304761D02*
X148871428Y-108304761D01*
X148442857Y-108304761D02*
X148442857Y-106304761D01*
X148585714Y-106590476D01*
X148728571Y-106780952D01*
X148871428Y-106876190D01*
X147300000Y-108304761D02*
X147014285Y-108304761D01*
X146871428Y-108209523D01*
X146800000Y-108114285D01*
X146657142Y-107828571D01*
X146585714Y-107447619D01*
X146585714Y-106685714D01*
X146657142Y-106495238D01*
X146728571Y-106400000D01*
X146871428Y-106304761D01*
X147157142Y-106304761D01*
X147300000Y-106400000D01*
X147371428Y-106495238D01*
X147442857Y-106685714D01*
X147442857Y-107161904D01*
X147371428Y-107352380D01*
X147300000Y-107447619D01*
X147157142Y-107542857D01*
X146871428Y-107542857D01*
X146728571Y-107447619D01*
X146657142Y-107352380D01*
X146585714Y-107161904D01*
X162550000Y-111604761D02*
X162550000Y-109604761D01*
X162050000Y-111033333D01*
X161550000Y-109604761D01*
X161550000Y-111604761D01*
X160835714Y-111604761D02*
X160835714Y-110271428D01*
X160835714Y-109604761D02*
X160907142Y-109700000D01*
X160835714Y-109795238D01*
X160764285Y-109700000D01*
X160835714Y-109604761D01*
X160835714Y-109795238D01*
X159550000Y-111509523D02*
X159692857Y-111604761D01*
X159978571Y-111604761D01*
X160121428Y-111509523D01*
X160192857Y-111319047D01*
X160192857Y-110557142D01*
X160121428Y-110366666D01*
X159978571Y-110271428D01*
X159692857Y-110271428D01*
X159550000Y-110366666D01*
X159478571Y-110557142D01*
X159478571Y-110747619D01*
X160192857Y-110938095D01*
X158835714Y-111604761D02*
X158835714Y-110271428D01*
X158835714Y-110652380D02*
X158764285Y-110461904D01*
X158692857Y-110366666D01*
X158550000Y-110271428D01*
X158407142Y-110271428D01*
X157907142Y-110271428D02*
X157907142Y-111604761D01*
X157907142Y-110461904D02*
X157835714Y-110366666D01*
X157692857Y-110271428D01*
X157478571Y-110271428D01*
X157335714Y-110366666D01*
X157264285Y-110557142D01*
X157264285Y-111604761D01*
X156550000Y-111604761D02*
X156550000Y-110271428D01*
X156550000Y-109604761D02*
X156621428Y-109700000D01*
X156550000Y-109795238D01*
X156478571Y-109700000D01*
X156550000Y-109604761D01*
X156550000Y-109795238D01*
X155192857Y-111509523D02*
X155335714Y-111604761D01*
X155621428Y-111604761D01*
X155764285Y-111509523D01*
X155835714Y-111414285D01*
X155907142Y-111223809D01*
X155907142Y-110652380D01*
X155835714Y-110461904D01*
X155764285Y-110366666D01*
X155621428Y-110271428D01*
X155335714Y-110271428D01*
X155192857Y-110366666D01*
X154764285Y-110271428D02*
X154192857Y-110271428D01*
X154550000Y-109604761D02*
X154550000Y-111319047D01*
X154478571Y-111509523D01*
X154335714Y-111604761D01*
X154192857Y-111604761D01*
X153835714Y-110271428D02*
X153550000Y-111604761D01*
X153264285Y-110652380D01*
X152978571Y-111604761D01*
X152692857Y-110271428D01*
X151907142Y-111604761D02*
X152050000Y-111509523D01*
X152121428Y-111414285D01*
X152192857Y-111223809D01*
X152192857Y-110652380D01*
X152121428Y-110461904D01*
X152050000Y-110366666D01*
X151907142Y-110271428D01*
X151692857Y-110271428D01*
X151550000Y-110366666D01*
X151478571Y-110461904D01*
X151407142Y-110652380D01*
X151407142Y-111223809D01*
X151478571Y-111414285D01*
X151550000Y-111509523D01*
X151692857Y-111604761D01*
X151907142Y-111604761D01*
X149692857Y-109795238D02*
X149621428Y-109700000D01*
X149478571Y-109604761D01*
X149121428Y-109604761D01*
X148978571Y-109700000D01*
X148907142Y-109795238D01*
X148835714Y-109985714D01*
X148835714Y-110176190D01*
X148907142Y-110461904D01*
X149764285Y-111604761D01*
X148835714Y-111604761D01*
X147050000Y-110271428D02*
X147050000Y-112271428D01*
X147050000Y-110366666D02*
X146907142Y-110271428D01*
X146621428Y-110271428D01*
X146478571Y-110366666D01*
X146407142Y-110461904D01*
X146335714Y-110652380D01*
X146335714Y-111223809D01*
X146407142Y-111414285D01*
X146478571Y-111509523D01*
X146621428Y-111604761D01*
X146907142Y-111604761D01*
X147050000Y-111509523D01*
X145692857Y-111604761D02*
X145692857Y-110271428D01*
X145692857Y-110652380D02*
X145621428Y-110461904D01*
X145550000Y-110366666D01*
X145407142Y-110271428D01*
X145264285Y-110271428D01*
X144550000Y-111604761D02*
X144692857Y-111509523D01*
X144764285Y-111414285D01*
X144835714Y-111223809D01*
X144835714Y-110652380D01*
X144764285Y-110461904D01*
X144692857Y-110366666D01*
X144550000Y-110271428D01*
X144335714Y-110271428D01*
X144192857Y-110366666D01*
X144121428Y-110461904D01*
X144050000Y-110652380D01*
X144050000Y-111223809D01*
X144121428Y-111414285D01*
X144192857Y-111509523D01*
X144335714Y-111604761D01*
X144550000Y-111604761D01*
X143407142Y-110271428D02*
X143407142Y-111985714D01*
X143478571Y-112176190D01*
X143621428Y-112271428D01*
X143692857Y-112271428D01*
X143407142Y-109604761D02*
X143478571Y-109700000D01*
X143407142Y-109795238D01*
X143335714Y-109700000D01*
X143407142Y-109604761D01*
X143407142Y-109795238D01*
X142121428Y-111509523D02*
X142264285Y-111604761D01*
X142550000Y-111604761D01*
X142692857Y-111509523D01*
X142764285Y-111319047D01*
X142764285Y-110557142D01*
X142692857Y-110366666D01*
X142550000Y-110271428D01*
X142264285Y-110271428D01*
X142121428Y-110366666D01*
X142050000Y-110557142D01*
X142050000Y-110747619D01*
X142764285Y-110938095D01*
X141407142Y-111604761D02*
X141407142Y-109604761D01*
X141264285Y-110842857D02*
X140835714Y-111604761D01*
X140835714Y-110271428D02*
X141407142Y-111033333D01*
X140407142Y-110271428D02*
X139835714Y-110271428D01*
X140192857Y-109604761D02*
X140192857Y-111319047D01*
X140121428Y-111509523D01*
X139978571Y-111604761D01*
X139835714Y-111604761D01*
D11*
G36*
X95960779Y-109676144D02*
G01*
X95983834Y-109679563D01*
X96006443Y-109685227D01*
X96028387Y-109693079D01*
X96049457Y-109703044D01*
X96069448Y-109715026D01*
X96088168Y-109728910D01*
X96105438Y-109744562D01*
X96121090Y-109761832D01*
X96134974Y-109780552D01*
X96146956Y-109800543D01*
X96156921Y-109821613D01*
X96164773Y-109843557D01*
X96170437Y-109866166D01*
X96173856Y-109889221D01*
X96175000Y-109912500D01*
X96175000Y-110487500D01*
X96173856Y-110510779D01*
X96170437Y-110533834D01*
X96164773Y-110556443D01*
X96156921Y-110578387D01*
X96146956Y-110599457D01*
X96134974Y-110619448D01*
X96121090Y-110638168D01*
X96105438Y-110655438D01*
X96088168Y-110671090D01*
X96069448Y-110684974D01*
X96049457Y-110696956D01*
X96028387Y-110706921D01*
X96006443Y-110714773D01*
X95983834Y-110720437D01*
X95960779Y-110723856D01*
X95937500Y-110725000D01*
X95462500Y-110725000D01*
X95439221Y-110723856D01*
X95416166Y-110720437D01*
X95393557Y-110714773D01*
X95371613Y-110706921D01*
X95350543Y-110696956D01*
X95330552Y-110684974D01*
X95311832Y-110671090D01*
X95294562Y-110655438D01*
X95278910Y-110638168D01*
X95265026Y-110619448D01*
X95253044Y-110599457D01*
X95243079Y-110578387D01*
X95235227Y-110556443D01*
X95229563Y-110533834D01*
X95226144Y-110510779D01*
X95225000Y-110487500D01*
X95225000Y-109912500D01*
X95226144Y-109889221D01*
X95229563Y-109866166D01*
X95235227Y-109843557D01*
X95243079Y-109821613D01*
X95253044Y-109800543D01*
X95265026Y-109780552D01*
X95278910Y-109761832D01*
X95294562Y-109744562D01*
X95311832Y-109728910D01*
X95330552Y-109715026D01*
X95350543Y-109703044D01*
X95371613Y-109693079D01*
X95393557Y-109685227D01*
X95416166Y-109679563D01*
X95439221Y-109676144D01*
X95462500Y-109675000D01*
X95937500Y-109675000D01*
X95960779Y-109676144D01*
X95960779Y-109676144D01*
G37*
D12*
X95700000Y-110200000D03*
D11*
G36*
X95960779Y-111426144D02*
G01*
X95983834Y-111429563D01*
X96006443Y-111435227D01*
X96028387Y-111443079D01*
X96049457Y-111453044D01*
X96069448Y-111465026D01*
X96088168Y-111478910D01*
X96105438Y-111494562D01*
X96121090Y-111511832D01*
X96134974Y-111530552D01*
X96146956Y-111550543D01*
X96156921Y-111571613D01*
X96164773Y-111593557D01*
X96170437Y-111616166D01*
X96173856Y-111639221D01*
X96175000Y-111662500D01*
X96175000Y-112237500D01*
X96173856Y-112260779D01*
X96170437Y-112283834D01*
X96164773Y-112306443D01*
X96156921Y-112328387D01*
X96146956Y-112349457D01*
X96134974Y-112369448D01*
X96121090Y-112388168D01*
X96105438Y-112405438D01*
X96088168Y-112421090D01*
X96069448Y-112434974D01*
X96049457Y-112446956D01*
X96028387Y-112456921D01*
X96006443Y-112464773D01*
X95983834Y-112470437D01*
X95960779Y-112473856D01*
X95937500Y-112475000D01*
X95462500Y-112475000D01*
X95439221Y-112473856D01*
X95416166Y-112470437D01*
X95393557Y-112464773D01*
X95371613Y-112456921D01*
X95350543Y-112446956D01*
X95330552Y-112434974D01*
X95311832Y-112421090D01*
X95294562Y-112405438D01*
X95278910Y-112388168D01*
X95265026Y-112369448D01*
X95253044Y-112349457D01*
X95243079Y-112328387D01*
X95235227Y-112306443D01*
X95229563Y-112283834D01*
X95226144Y-112260779D01*
X95225000Y-112237500D01*
X95225000Y-111662500D01*
X95226144Y-111639221D01*
X95229563Y-111616166D01*
X95235227Y-111593557D01*
X95243079Y-111571613D01*
X95253044Y-111550543D01*
X95265026Y-111530552D01*
X95278910Y-111511832D01*
X95294562Y-111494562D01*
X95311832Y-111478910D01*
X95330552Y-111465026D01*
X95350543Y-111453044D01*
X95371613Y-111443079D01*
X95393557Y-111435227D01*
X95416166Y-111429563D01*
X95439221Y-111426144D01*
X95462500Y-111425000D01*
X95937500Y-111425000D01*
X95960779Y-111426144D01*
X95960779Y-111426144D01*
G37*
D12*
X95700000Y-111950000D03*
D11*
G36*
X126860779Y-97851144D02*
G01*
X126883834Y-97854563D01*
X126906443Y-97860227D01*
X126928387Y-97868079D01*
X126949457Y-97878044D01*
X126969448Y-97890026D01*
X126988168Y-97903910D01*
X127005438Y-97919562D01*
X127021090Y-97936832D01*
X127034974Y-97955552D01*
X127046956Y-97975543D01*
X127056921Y-97996613D01*
X127064773Y-98018557D01*
X127070437Y-98041166D01*
X127073856Y-98064221D01*
X127075000Y-98087500D01*
X127075000Y-98662500D01*
X127073856Y-98685779D01*
X127070437Y-98708834D01*
X127064773Y-98731443D01*
X127056921Y-98753387D01*
X127046956Y-98774457D01*
X127034974Y-98794448D01*
X127021090Y-98813168D01*
X127005438Y-98830438D01*
X126988168Y-98846090D01*
X126969448Y-98859974D01*
X126949457Y-98871956D01*
X126928387Y-98881921D01*
X126906443Y-98889773D01*
X126883834Y-98895437D01*
X126860779Y-98898856D01*
X126837500Y-98900000D01*
X126362500Y-98900000D01*
X126339221Y-98898856D01*
X126316166Y-98895437D01*
X126293557Y-98889773D01*
X126271613Y-98881921D01*
X126250543Y-98871956D01*
X126230552Y-98859974D01*
X126211832Y-98846090D01*
X126194562Y-98830438D01*
X126178910Y-98813168D01*
X126165026Y-98794448D01*
X126153044Y-98774457D01*
X126143079Y-98753387D01*
X126135227Y-98731443D01*
X126129563Y-98708834D01*
X126126144Y-98685779D01*
X126125000Y-98662500D01*
X126125000Y-98087500D01*
X126126144Y-98064221D01*
X126129563Y-98041166D01*
X126135227Y-98018557D01*
X126143079Y-97996613D01*
X126153044Y-97975543D01*
X126165026Y-97955552D01*
X126178910Y-97936832D01*
X126194562Y-97919562D01*
X126211832Y-97903910D01*
X126230552Y-97890026D01*
X126250543Y-97878044D01*
X126271613Y-97868079D01*
X126293557Y-97860227D01*
X126316166Y-97854563D01*
X126339221Y-97851144D01*
X126362500Y-97850000D01*
X126837500Y-97850000D01*
X126860779Y-97851144D01*
X126860779Y-97851144D01*
G37*
D12*
X126600000Y-98375000D03*
D11*
G36*
X126860779Y-96101144D02*
G01*
X126883834Y-96104563D01*
X126906443Y-96110227D01*
X126928387Y-96118079D01*
X126949457Y-96128044D01*
X126969448Y-96140026D01*
X126988168Y-96153910D01*
X127005438Y-96169562D01*
X127021090Y-96186832D01*
X127034974Y-96205552D01*
X127046956Y-96225543D01*
X127056921Y-96246613D01*
X127064773Y-96268557D01*
X127070437Y-96291166D01*
X127073856Y-96314221D01*
X127075000Y-96337500D01*
X127075000Y-96912500D01*
X127073856Y-96935779D01*
X127070437Y-96958834D01*
X127064773Y-96981443D01*
X127056921Y-97003387D01*
X127046956Y-97024457D01*
X127034974Y-97044448D01*
X127021090Y-97063168D01*
X127005438Y-97080438D01*
X126988168Y-97096090D01*
X126969448Y-97109974D01*
X126949457Y-97121956D01*
X126928387Y-97131921D01*
X126906443Y-97139773D01*
X126883834Y-97145437D01*
X126860779Y-97148856D01*
X126837500Y-97150000D01*
X126362500Y-97150000D01*
X126339221Y-97148856D01*
X126316166Y-97145437D01*
X126293557Y-97139773D01*
X126271613Y-97131921D01*
X126250543Y-97121956D01*
X126230552Y-97109974D01*
X126211832Y-97096090D01*
X126194562Y-97080438D01*
X126178910Y-97063168D01*
X126165026Y-97044448D01*
X126153044Y-97024457D01*
X126143079Y-97003387D01*
X126135227Y-96981443D01*
X126129563Y-96958834D01*
X126126144Y-96935779D01*
X126125000Y-96912500D01*
X126125000Y-96337500D01*
X126126144Y-96314221D01*
X126129563Y-96291166D01*
X126135227Y-96268557D01*
X126143079Y-96246613D01*
X126153044Y-96225543D01*
X126165026Y-96205552D01*
X126178910Y-96186832D01*
X126194562Y-96169562D01*
X126211832Y-96153910D01*
X126230552Y-96140026D01*
X126250543Y-96128044D01*
X126271613Y-96118079D01*
X126293557Y-96110227D01*
X126316166Y-96104563D01*
X126339221Y-96101144D01*
X126362500Y-96100000D01*
X126837500Y-96100000D01*
X126860779Y-96101144D01*
X126860779Y-96101144D01*
G37*
D12*
X126600000Y-96625000D03*
D11*
G36*
X98360779Y-111551144D02*
G01*
X98383834Y-111554563D01*
X98406443Y-111560227D01*
X98428387Y-111568079D01*
X98449457Y-111578044D01*
X98469448Y-111590026D01*
X98488168Y-111603910D01*
X98505438Y-111619562D01*
X98521090Y-111636832D01*
X98534974Y-111655552D01*
X98546956Y-111675543D01*
X98556921Y-111696613D01*
X98564773Y-111718557D01*
X98570437Y-111741166D01*
X98573856Y-111764221D01*
X98575000Y-111787500D01*
X98575000Y-112362500D01*
X98573856Y-112385779D01*
X98570437Y-112408834D01*
X98564773Y-112431443D01*
X98556921Y-112453387D01*
X98546956Y-112474457D01*
X98534974Y-112494448D01*
X98521090Y-112513168D01*
X98505438Y-112530438D01*
X98488168Y-112546090D01*
X98469448Y-112559974D01*
X98449457Y-112571956D01*
X98428387Y-112581921D01*
X98406443Y-112589773D01*
X98383834Y-112595437D01*
X98360779Y-112598856D01*
X98337500Y-112600000D01*
X97862500Y-112600000D01*
X97839221Y-112598856D01*
X97816166Y-112595437D01*
X97793557Y-112589773D01*
X97771613Y-112581921D01*
X97750543Y-112571956D01*
X97730552Y-112559974D01*
X97711832Y-112546090D01*
X97694562Y-112530438D01*
X97678910Y-112513168D01*
X97665026Y-112494448D01*
X97653044Y-112474457D01*
X97643079Y-112453387D01*
X97635227Y-112431443D01*
X97629563Y-112408834D01*
X97626144Y-112385779D01*
X97625000Y-112362500D01*
X97625000Y-111787500D01*
X97626144Y-111764221D01*
X97629563Y-111741166D01*
X97635227Y-111718557D01*
X97643079Y-111696613D01*
X97653044Y-111675543D01*
X97665026Y-111655552D01*
X97678910Y-111636832D01*
X97694562Y-111619562D01*
X97711832Y-111603910D01*
X97730552Y-111590026D01*
X97750543Y-111578044D01*
X97771613Y-111568079D01*
X97793557Y-111560227D01*
X97816166Y-111554563D01*
X97839221Y-111551144D01*
X97862500Y-111550000D01*
X98337500Y-111550000D01*
X98360779Y-111551144D01*
X98360779Y-111551144D01*
G37*
D12*
X98100000Y-112075000D03*
D11*
G36*
X98360779Y-109801144D02*
G01*
X98383834Y-109804563D01*
X98406443Y-109810227D01*
X98428387Y-109818079D01*
X98449457Y-109828044D01*
X98469448Y-109840026D01*
X98488168Y-109853910D01*
X98505438Y-109869562D01*
X98521090Y-109886832D01*
X98534974Y-109905552D01*
X98546956Y-109925543D01*
X98556921Y-109946613D01*
X98564773Y-109968557D01*
X98570437Y-109991166D01*
X98573856Y-110014221D01*
X98575000Y-110037500D01*
X98575000Y-110612500D01*
X98573856Y-110635779D01*
X98570437Y-110658834D01*
X98564773Y-110681443D01*
X98556921Y-110703387D01*
X98546956Y-110724457D01*
X98534974Y-110744448D01*
X98521090Y-110763168D01*
X98505438Y-110780438D01*
X98488168Y-110796090D01*
X98469448Y-110809974D01*
X98449457Y-110821956D01*
X98428387Y-110831921D01*
X98406443Y-110839773D01*
X98383834Y-110845437D01*
X98360779Y-110848856D01*
X98337500Y-110850000D01*
X97862500Y-110850000D01*
X97839221Y-110848856D01*
X97816166Y-110845437D01*
X97793557Y-110839773D01*
X97771613Y-110831921D01*
X97750543Y-110821956D01*
X97730552Y-110809974D01*
X97711832Y-110796090D01*
X97694562Y-110780438D01*
X97678910Y-110763168D01*
X97665026Y-110744448D01*
X97653044Y-110724457D01*
X97643079Y-110703387D01*
X97635227Y-110681443D01*
X97629563Y-110658834D01*
X97626144Y-110635779D01*
X97625000Y-110612500D01*
X97625000Y-110037500D01*
X97626144Y-110014221D01*
X97629563Y-109991166D01*
X97635227Y-109968557D01*
X97643079Y-109946613D01*
X97653044Y-109925543D01*
X97665026Y-109905552D01*
X97678910Y-109886832D01*
X97694562Y-109869562D01*
X97711832Y-109853910D01*
X97730552Y-109840026D01*
X97750543Y-109828044D01*
X97771613Y-109818079D01*
X97793557Y-109810227D01*
X97816166Y-109804563D01*
X97839221Y-109801144D01*
X97862500Y-109800000D01*
X98337500Y-109800000D01*
X98360779Y-109801144D01*
X98360779Y-109801144D01*
G37*
D12*
X98100000Y-110325000D03*
D11*
G36*
X104399505Y-118576204D02*
G01*
X104423773Y-118579804D01*
X104447572Y-118585765D01*
X104470671Y-118594030D01*
X104492850Y-118604520D01*
X104513893Y-118617132D01*
X104533599Y-118631747D01*
X104551777Y-118648223D01*
X104568253Y-118666401D01*
X104582868Y-118686107D01*
X104595480Y-118707150D01*
X104605970Y-118729329D01*
X104614235Y-118752428D01*
X104620196Y-118776227D01*
X104623796Y-118800495D01*
X104625000Y-118824999D01*
X104625000Y-119575001D01*
X104623796Y-119599505D01*
X104620196Y-119623773D01*
X104614235Y-119647572D01*
X104605970Y-119670671D01*
X104595480Y-119692850D01*
X104582868Y-119713893D01*
X104568253Y-119733599D01*
X104551777Y-119751777D01*
X104533599Y-119768253D01*
X104513893Y-119782868D01*
X104492850Y-119795480D01*
X104470671Y-119805970D01*
X104447572Y-119814235D01*
X104423773Y-119820196D01*
X104399505Y-119823796D01*
X104375001Y-119825000D01*
X103824999Y-119825000D01*
X103800495Y-119823796D01*
X103776227Y-119820196D01*
X103752428Y-119814235D01*
X103729329Y-119805970D01*
X103707150Y-119795480D01*
X103686107Y-119782868D01*
X103666401Y-119768253D01*
X103648223Y-119751777D01*
X103631747Y-119733599D01*
X103617132Y-119713893D01*
X103604520Y-119692850D01*
X103594030Y-119670671D01*
X103585765Y-119647572D01*
X103579804Y-119623773D01*
X103576204Y-119599505D01*
X103575000Y-119575001D01*
X103575000Y-118824999D01*
X103576204Y-118800495D01*
X103579804Y-118776227D01*
X103585765Y-118752428D01*
X103594030Y-118729329D01*
X103604520Y-118707150D01*
X103617132Y-118686107D01*
X103631747Y-118666401D01*
X103648223Y-118648223D01*
X103666401Y-118631747D01*
X103686107Y-118617132D01*
X103707150Y-118604520D01*
X103729329Y-118594030D01*
X103752428Y-118585765D01*
X103776227Y-118579804D01*
X103800495Y-118576204D01*
X103824999Y-118575000D01*
X104375001Y-118575000D01*
X104399505Y-118576204D01*
X104399505Y-118576204D01*
G37*
D13*
X104100000Y-119200000D03*
D11*
G36*
X104399505Y-116976204D02*
G01*
X104423773Y-116979804D01*
X104447572Y-116985765D01*
X104470671Y-116994030D01*
X104492850Y-117004520D01*
X104513893Y-117017132D01*
X104533599Y-117031747D01*
X104551777Y-117048223D01*
X104568253Y-117066401D01*
X104582868Y-117086107D01*
X104595480Y-117107150D01*
X104605970Y-117129329D01*
X104614235Y-117152428D01*
X104620196Y-117176227D01*
X104623796Y-117200495D01*
X104625000Y-117224999D01*
X104625000Y-117975001D01*
X104623796Y-117999505D01*
X104620196Y-118023773D01*
X104614235Y-118047572D01*
X104605970Y-118070671D01*
X104595480Y-118092850D01*
X104582868Y-118113893D01*
X104568253Y-118133599D01*
X104551777Y-118151777D01*
X104533599Y-118168253D01*
X104513893Y-118182868D01*
X104492850Y-118195480D01*
X104470671Y-118205970D01*
X104447572Y-118214235D01*
X104423773Y-118220196D01*
X104399505Y-118223796D01*
X104375001Y-118225000D01*
X103824999Y-118225000D01*
X103800495Y-118223796D01*
X103776227Y-118220196D01*
X103752428Y-118214235D01*
X103729329Y-118205970D01*
X103707150Y-118195480D01*
X103686107Y-118182868D01*
X103666401Y-118168253D01*
X103648223Y-118151777D01*
X103631747Y-118133599D01*
X103617132Y-118113893D01*
X103604520Y-118092850D01*
X103594030Y-118070671D01*
X103585765Y-118047572D01*
X103579804Y-118023773D01*
X103576204Y-117999505D01*
X103575000Y-117975001D01*
X103575000Y-117224999D01*
X103576204Y-117200495D01*
X103579804Y-117176227D01*
X103585765Y-117152428D01*
X103594030Y-117129329D01*
X103604520Y-117107150D01*
X103617132Y-117086107D01*
X103631747Y-117066401D01*
X103648223Y-117048223D01*
X103666401Y-117031747D01*
X103686107Y-117017132D01*
X103707150Y-117004520D01*
X103729329Y-116994030D01*
X103752428Y-116985765D01*
X103776227Y-116979804D01*
X103800495Y-116976204D01*
X103824999Y-116975000D01*
X104375001Y-116975000D01*
X104399505Y-116976204D01*
X104399505Y-116976204D01*
G37*
D13*
X104100000Y-117600000D03*
D11*
G36*
X131535779Y-115526144D02*
G01*
X131558834Y-115529563D01*
X131581443Y-115535227D01*
X131603387Y-115543079D01*
X131624457Y-115553044D01*
X131644448Y-115565026D01*
X131663168Y-115578910D01*
X131680438Y-115594562D01*
X131696090Y-115611832D01*
X131709974Y-115630552D01*
X131721956Y-115650543D01*
X131731921Y-115671613D01*
X131739773Y-115693557D01*
X131745437Y-115716166D01*
X131748856Y-115739221D01*
X131750000Y-115762500D01*
X131750000Y-116237500D01*
X131748856Y-116260779D01*
X131745437Y-116283834D01*
X131739773Y-116306443D01*
X131731921Y-116328387D01*
X131721956Y-116349457D01*
X131709974Y-116369448D01*
X131696090Y-116388168D01*
X131680438Y-116405438D01*
X131663168Y-116421090D01*
X131644448Y-116434974D01*
X131624457Y-116446956D01*
X131603387Y-116456921D01*
X131581443Y-116464773D01*
X131558834Y-116470437D01*
X131535779Y-116473856D01*
X131512500Y-116475000D01*
X130937500Y-116475000D01*
X130914221Y-116473856D01*
X130891166Y-116470437D01*
X130868557Y-116464773D01*
X130846613Y-116456921D01*
X130825543Y-116446956D01*
X130805552Y-116434974D01*
X130786832Y-116421090D01*
X130769562Y-116405438D01*
X130753910Y-116388168D01*
X130740026Y-116369448D01*
X130728044Y-116349457D01*
X130718079Y-116328387D01*
X130710227Y-116306443D01*
X130704563Y-116283834D01*
X130701144Y-116260779D01*
X130700000Y-116237500D01*
X130700000Y-115762500D01*
X130701144Y-115739221D01*
X130704563Y-115716166D01*
X130710227Y-115693557D01*
X130718079Y-115671613D01*
X130728044Y-115650543D01*
X130740026Y-115630552D01*
X130753910Y-115611832D01*
X130769562Y-115594562D01*
X130786832Y-115578910D01*
X130805552Y-115565026D01*
X130825543Y-115553044D01*
X130846613Y-115543079D01*
X130868557Y-115535227D01*
X130891166Y-115529563D01*
X130914221Y-115526144D01*
X130937500Y-115525000D01*
X131512500Y-115525000D01*
X131535779Y-115526144D01*
X131535779Y-115526144D01*
G37*
D12*
X131225000Y-116000000D03*
D11*
G36*
X133285779Y-115526144D02*
G01*
X133308834Y-115529563D01*
X133331443Y-115535227D01*
X133353387Y-115543079D01*
X133374457Y-115553044D01*
X133394448Y-115565026D01*
X133413168Y-115578910D01*
X133430438Y-115594562D01*
X133446090Y-115611832D01*
X133459974Y-115630552D01*
X133471956Y-115650543D01*
X133481921Y-115671613D01*
X133489773Y-115693557D01*
X133495437Y-115716166D01*
X133498856Y-115739221D01*
X133500000Y-115762500D01*
X133500000Y-116237500D01*
X133498856Y-116260779D01*
X133495437Y-116283834D01*
X133489773Y-116306443D01*
X133481921Y-116328387D01*
X133471956Y-116349457D01*
X133459974Y-116369448D01*
X133446090Y-116388168D01*
X133430438Y-116405438D01*
X133413168Y-116421090D01*
X133394448Y-116434974D01*
X133374457Y-116446956D01*
X133353387Y-116456921D01*
X133331443Y-116464773D01*
X133308834Y-116470437D01*
X133285779Y-116473856D01*
X133262500Y-116475000D01*
X132687500Y-116475000D01*
X132664221Y-116473856D01*
X132641166Y-116470437D01*
X132618557Y-116464773D01*
X132596613Y-116456921D01*
X132575543Y-116446956D01*
X132555552Y-116434974D01*
X132536832Y-116421090D01*
X132519562Y-116405438D01*
X132503910Y-116388168D01*
X132490026Y-116369448D01*
X132478044Y-116349457D01*
X132468079Y-116328387D01*
X132460227Y-116306443D01*
X132454563Y-116283834D01*
X132451144Y-116260779D01*
X132450000Y-116237500D01*
X132450000Y-115762500D01*
X132451144Y-115739221D01*
X132454563Y-115716166D01*
X132460227Y-115693557D01*
X132468079Y-115671613D01*
X132478044Y-115650543D01*
X132490026Y-115630552D01*
X132503910Y-115611832D01*
X132519562Y-115594562D01*
X132536832Y-115578910D01*
X132555552Y-115565026D01*
X132575543Y-115553044D01*
X132596613Y-115543079D01*
X132618557Y-115535227D01*
X132641166Y-115529563D01*
X132664221Y-115526144D01*
X132687500Y-115525000D01*
X133262500Y-115525000D01*
X133285779Y-115526144D01*
X133285779Y-115526144D01*
G37*
D12*
X132975000Y-116000000D03*
D11*
G36*
X121499505Y-112876204D02*
G01*
X121523773Y-112879804D01*
X121547572Y-112885765D01*
X121570671Y-112894030D01*
X121592850Y-112904520D01*
X121613893Y-112917132D01*
X121633599Y-112931747D01*
X121651777Y-112948223D01*
X121668253Y-112966401D01*
X121682868Y-112986107D01*
X121695480Y-113007150D01*
X121705970Y-113029329D01*
X121714235Y-113052428D01*
X121720196Y-113076227D01*
X121723796Y-113100495D01*
X121725000Y-113124999D01*
X121725000Y-113875001D01*
X121723796Y-113899505D01*
X121720196Y-113923773D01*
X121714235Y-113947572D01*
X121705970Y-113970671D01*
X121695480Y-113992850D01*
X121682868Y-114013893D01*
X121668253Y-114033599D01*
X121651777Y-114051777D01*
X121633599Y-114068253D01*
X121613893Y-114082868D01*
X121592850Y-114095480D01*
X121570671Y-114105970D01*
X121547572Y-114114235D01*
X121523773Y-114120196D01*
X121499505Y-114123796D01*
X121475001Y-114125000D01*
X120924999Y-114125000D01*
X120900495Y-114123796D01*
X120876227Y-114120196D01*
X120852428Y-114114235D01*
X120829329Y-114105970D01*
X120807150Y-114095480D01*
X120786107Y-114082868D01*
X120766401Y-114068253D01*
X120748223Y-114051777D01*
X120731747Y-114033599D01*
X120717132Y-114013893D01*
X120704520Y-113992850D01*
X120694030Y-113970671D01*
X120685765Y-113947572D01*
X120679804Y-113923773D01*
X120676204Y-113899505D01*
X120675000Y-113875001D01*
X120675000Y-113124999D01*
X120676204Y-113100495D01*
X120679804Y-113076227D01*
X120685765Y-113052428D01*
X120694030Y-113029329D01*
X120704520Y-113007150D01*
X120717132Y-112986107D01*
X120731747Y-112966401D01*
X120748223Y-112948223D01*
X120766401Y-112931747D01*
X120786107Y-112917132D01*
X120807150Y-112904520D01*
X120829329Y-112894030D01*
X120852428Y-112885765D01*
X120876227Y-112879804D01*
X120900495Y-112876204D01*
X120924999Y-112875000D01*
X121475001Y-112875000D01*
X121499505Y-112876204D01*
X121499505Y-112876204D01*
G37*
D13*
X121200000Y-113500000D03*
D11*
G36*
X121499505Y-114476204D02*
G01*
X121523773Y-114479804D01*
X121547572Y-114485765D01*
X121570671Y-114494030D01*
X121592850Y-114504520D01*
X121613893Y-114517132D01*
X121633599Y-114531747D01*
X121651777Y-114548223D01*
X121668253Y-114566401D01*
X121682868Y-114586107D01*
X121695480Y-114607150D01*
X121705970Y-114629329D01*
X121714235Y-114652428D01*
X121720196Y-114676227D01*
X121723796Y-114700495D01*
X121725000Y-114724999D01*
X121725000Y-115475001D01*
X121723796Y-115499505D01*
X121720196Y-115523773D01*
X121714235Y-115547572D01*
X121705970Y-115570671D01*
X121695480Y-115592850D01*
X121682868Y-115613893D01*
X121668253Y-115633599D01*
X121651777Y-115651777D01*
X121633599Y-115668253D01*
X121613893Y-115682868D01*
X121592850Y-115695480D01*
X121570671Y-115705970D01*
X121547572Y-115714235D01*
X121523773Y-115720196D01*
X121499505Y-115723796D01*
X121475001Y-115725000D01*
X120924999Y-115725000D01*
X120900495Y-115723796D01*
X120876227Y-115720196D01*
X120852428Y-115714235D01*
X120829329Y-115705970D01*
X120807150Y-115695480D01*
X120786107Y-115682868D01*
X120766401Y-115668253D01*
X120748223Y-115651777D01*
X120731747Y-115633599D01*
X120717132Y-115613893D01*
X120704520Y-115592850D01*
X120694030Y-115570671D01*
X120685765Y-115547572D01*
X120679804Y-115523773D01*
X120676204Y-115499505D01*
X120675000Y-115475001D01*
X120675000Y-114724999D01*
X120676204Y-114700495D01*
X120679804Y-114676227D01*
X120685765Y-114652428D01*
X120694030Y-114629329D01*
X120704520Y-114607150D01*
X120717132Y-114586107D01*
X120731747Y-114566401D01*
X120748223Y-114548223D01*
X120766401Y-114531747D01*
X120786107Y-114517132D01*
X120807150Y-114504520D01*
X120829329Y-114494030D01*
X120852428Y-114485765D01*
X120876227Y-114479804D01*
X120900495Y-114476204D01*
X120924999Y-114475000D01*
X121475001Y-114475000D01*
X121499505Y-114476204D01*
X121499505Y-114476204D01*
G37*
D13*
X121200000Y-115100000D03*
D11*
G36*
X130060779Y-98001144D02*
G01*
X130083834Y-98004563D01*
X130106443Y-98010227D01*
X130128387Y-98018079D01*
X130149457Y-98028044D01*
X130169448Y-98040026D01*
X130188168Y-98053910D01*
X130205438Y-98069562D01*
X130221090Y-98086832D01*
X130234974Y-98105552D01*
X130246956Y-98125543D01*
X130256921Y-98146613D01*
X130264773Y-98168557D01*
X130270437Y-98191166D01*
X130273856Y-98214221D01*
X130275000Y-98237500D01*
X130275000Y-98812500D01*
X130273856Y-98835779D01*
X130270437Y-98858834D01*
X130264773Y-98881443D01*
X130256921Y-98903387D01*
X130246956Y-98924457D01*
X130234974Y-98944448D01*
X130221090Y-98963168D01*
X130205438Y-98980438D01*
X130188168Y-98996090D01*
X130169448Y-99009974D01*
X130149457Y-99021956D01*
X130128387Y-99031921D01*
X130106443Y-99039773D01*
X130083834Y-99045437D01*
X130060779Y-99048856D01*
X130037500Y-99050000D01*
X129562500Y-99050000D01*
X129539221Y-99048856D01*
X129516166Y-99045437D01*
X129493557Y-99039773D01*
X129471613Y-99031921D01*
X129450543Y-99021956D01*
X129430552Y-99009974D01*
X129411832Y-98996090D01*
X129394562Y-98980438D01*
X129378910Y-98963168D01*
X129365026Y-98944448D01*
X129353044Y-98924457D01*
X129343079Y-98903387D01*
X129335227Y-98881443D01*
X129329563Y-98858834D01*
X129326144Y-98835779D01*
X129325000Y-98812500D01*
X129325000Y-98237500D01*
X129326144Y-98214221D01*
X129329563Y-98191166D01*
X129335227Y-98168557D01*
X129343079Y-98146613D01*
X129353044Y-98125543D01*
X129365026Y-98105552D01*
X129378910Y-98086832D01*
X129394562Y-98069562D01*
X129411832Y-98053910D01*
X129430552Y-98040026D01*
X129450543Y-98028044D01*
X129471613Y-98018079D01*
X129493557Y-98010227D01*
X129516166Y-98004563D01*
X129539221Y-98001144D01*
X129562500Y-98000000D01*
X130037500Y-98000000D01*
X130060779Y-98001144D01*
X130060779Y-98001144D01*
G37*
D12*
X129800000Y-98525000D03*
D11*
G36*
X130060779Y-99751144D02*
G01*
X130083834Y-99754563D01*
X130106443Y-99760227D01*
X130128387Y-99768079D01*
X130149457Y-99778044D01*
X130169448Y-99790026D01*
X130188168Y-99803910D01*
X130205438Y-99819562D01*
X130221090Y-99836832D01*
X130234974Y-99855552D01*
X130246956Y-99875543D01*
X130256921Y-99896613D01*
X130264773Y-99918557D01*
X130270437Y-99941166D01*
X130273856Y-99964221D01*
X130275000Y-99987500D01*
X130275000Y-100562500D01*
X130273856Y-100585779D01*
X130270437Y-100608834D01*
X130264773Y-100631443D01*
X130256921Y-100653387D01*
X130246956Y-100674457D01*
X130234974Y-100694448D01*
X130221090Y-100713168D01*
X130205438Y-100730438D01*
X130188168Y-100746090D01*
X130169448Y-100759974D01*
X130149457Y-100771956D01*
X130128387Y-100781921D01*
X130106443Y-100789773D01*
X130083834Y-100795437D01*
X130060779Y-100798856D01*
X130037500Y-100800000D01*
X129562500Y-100800000D01*
X129539221Y-100798856D01*
X129516166Y-100795437D01*
X129493557Y-100789773D01*
X129471613Y-100781921D01*
X129450543Y-100771956D01*
X129430552Y-100759974D01*
X129411832Y-100746090D01*
X129394562Y-100730438D01*
X129378910Y-100713168D01*
X129365026Y-100694448D01*
X129353044Y-100674457D01*
X129343079Y-100653387D01*
X129335227Y-100631443D01*
X129329563Y-100608834D01*
X129326144Y-100585779D01*
X129325000Y-100562500D01*
X129325000Y-99987500D01*
X129326144Y-99964221D01*
X129329563Y-99941166D01*
X129335227Y-99918557D01*
X129343079Y-99896613D01*
X129353044Y-99875543D01*
X129365026Y-99855552D01*
X129378910Y-99836832D01*
X129394562Y-99819562D01*
X129411832Y-99803910D01*
X129430552Y-99790026D01*
X129450543Y-99778044D01*
X129471613Y-99768079D01*
X129493557Y-99760227D01*
X129516166Y-99754563D01*
X129539221Y-99751144D01*
X129562500Y-99750000D01*
X130037500Y-99750000D01*
X130060779Y-99751144D01*
X130060779Y-99751144D01*
G37*
D12*
X129800000Y-100275000D03*
D14*
X124800000Y-123300000D03*
D15*
X127340000Y-123300000D03*
X129880000Y-123300000D03*
D11*
G36*
X130810779Y-112726144D02*
G01*
X130833834Y-112729563D01*
X130856443Y-112735227D01*
X130878387Y-112743079D01*
X130899457Y-112753044D01*
X130919448Y-112765026D01*
X130938168Y-112778910D01*
X130955438Y-112794562D01*
X130971090Y-112811832D01*
X130984974Y-112830552D01*
X130996956Y-112850543D01*
X131006921Y-112871613D01*
X131014773Y-112893557D01*
X131020437Y-112916166D01*
X131023856Y-112939221D01*
X131025000Y-112962500D01*
X131025000Y-113437500D01*
X131023856Y-113460779D01*
X131020437Y-113483834D01*
X131014773Y-113506443D01*
X131006921Y-113528387D01*
X130996956Y-113549457D01*
X130984974Y-113569448D01*
X130971090Y-113588168D01*
X130955438Y-113605438D01*
X130938168Y-113621090D01*
X130919448Y-113634974D01*
X130899457Y-113646956D01*
X130878387Y-113656921D01*
X130856443Y-113664773D01*
X130833834Y-113670437D01*
X130810779Y-113673856D01*
X130787500Y-113675000D01*
X130212500Y-113675000D01*
X130189221Y-113673856D01*
X130166166Y-113670437D01*
X130143557Y-113664773D01*
X130121613Y-113656921D01*
X130100543Y-113646956D01*
X130080552Y-113634974D01*
X130061832Y-113621090D01*
X130044562Y-113605438D01*
X130028910Y-113588168D01*
X130015026Y-113569448D01*
X130003044Y-113549457D01*
X129993079Y-113528387D01*
X129985227Y-113506443D01*
X129979563Y-113483834D01*
X129976144Y-113460779D01*
X129975000Y-113437500D01*
X129975000Y-112962500D01*
X129976144Y-112939221D01*
X129979563Y-112916166D01*
X129985227Y-112893557D01*
X129993079Y-112871613D01*
X130003044Y-112850543D01*
X130015026Y-112830552D01*
X130028910Y-112811832D01*
X130044562Y-112794562D01*
X130061832Y-112778910D01*
X130080552Y-112765026D01*
X130100543Y-112753044D01*
X130121613Y-112743079D01*
X130143557Y-112735227D01*
X130166166Y-112729563D01*
X130189221Y-112726144D01*
X130212500Y-112725000D01*
X130787500Y-112725000D01*
X130810779Y-112726144D01*
X130810779Y-112726144D01*
G37*
D12*
X130500000Y-113200000D03*
D11*
G36*
X129060779Y-112726144D02*
G01*
X129083834Y-112729563D01*
X129106443Y-112735227D01*
X129128387Y-112743079D01*
X129149457Y-112753044D01*
X129169448Y-112765026D01*
X129188168Y-112778910D01*
X129205438Y-112794562D01*
X129221090Y-112811832D01*
X129234974Y-112830552D01*
X129246956Y-112850543D01*
X129256921Y-112871613D01*
X129264773Y-112893557D01*
X129270437Y-112916166D01*
X129273856Y-112939221D01*
X129275000Y-112962500D01*
X129275000Y-113437500D01*
X129273856Y-113460779D01*
X129270437Y-113483834D01*
X129264773Y-113506443D01*
X129256921Y-113528387D01*
X129246956Y-113549457D01*
X129234974Y-113569448D01*
X129221090Y-113588168D01*
X129205438Y-113605438D01*
X129188168Y-113621090D01*
X129169448Y-113634974D01*
X129149457Y-113646956D01*
X129128387Y-113656921D01*
X129106443Y-113664773D01*
X129083834Y-113670437D01*
X129060779Y-113673856D01*
X129037500Y-113675000D01*
X128462500Y-113675000D01*
X128439221Y-113673856D01*
X128416166Y-113670437D01*
X128393557Y-113664773D01*
X128371613Y-113656921D01*
X128350543Y-113646956D01*
X128330552Y-113634974D01*
X128311832Y-113621090D01*
X128294562Y-113605438D01*
X128278910Y-113588168D01*
X128265026Y-113569448D01*
X128253044Y-113549457D01*
X128243079Y-113528387D01*
X128235227Y-113506443D01*
X128229563Y-113483834D01*
X128226144Y-113460779D01*
X128225000Y-113437500D01*
X128225000Y-112962500D01*
X128226144Y-112939221D01*
X128229563Y-112916166D01*
X128235227Y-112893557D01*
X128243079Y-112871613D01*
X128253044Y-112850543D01*
X128265026Y-112830552D01*
X128278910Y-112811832D01*
X128294562Y-112794562D01*
X128311832Y-112778910D01*
X128330552Y-112765026D01*
X128350543Y-112753044D01*
X128371613Y-112743079D01*
X128393557Y-112735227D01*
X128416166Y-112729563D01*
X128439221Y-112726144D01*
X128462500Y-112725000D01*
X129037500Y-112725000D01*
X129060779Y-112726144D01*
X129060779Y-112726144D01*
G37*
D12*
X128750000Y-113200000D03*
D11*
G36*
X106860779Y-116976144D02*
G01*
X106883834Y-116979563D01*
X106906443Y-116985227D01*
X106928387Y-116993079D01*
X106949457Y-117003044D01*
X106969448Y-117015026D01*
X106988168Y-117028910D01*
X107005438Y-117044562D01*
X107021090Y-117061832D01*
X107034974Y-117080552D01*
X107046956Y-117100543D01*
X107056921Y-117121613D01*
X107064773Y-117143557D01*
X107070437Y-117166166D01*
X107073856Y-117189221D01*
X107075000Y-117212500D01*
X107075000Y-117787500D01*
X107073856Y-117810779D01*
X107070437Y-117833834D01*
X107064773Y-117856443D01*
X107056921Y-117878387D01*
X107046956Y-117899457D01*
X107034974Y-117919448D01*
X107021090Y-117938168D01*
X107005438Y-117955438D01*
X106988168Y-117971090D01*
X106969448Y-117984974D01*
X106949457Y-117996956D01*
X106928387Y-118006921D01*
X106906443Y-118014773D01*
X106883834Y-118020437D01*
X106860779Y-118023856D01*
X106837500Y-118025000D01*
X106362500Y-118025000D01*
X106339221Y-118023856D01*
X106316166Y-118020437D01*
X106293557Y-118014773D01*
X106271613Y-118006921D01*
X106250543Y-117996956D01*
X106230552Y-117984974D01*
X106211832Y-117971090D01*
X106194562Y-117955438D01*
X106178910Y-117938168D01*
X106165026Y-117919448D01*
X106153044Y-117899457D01*
X106143079Y-117878387D01*
X106135227Y-117856443D01*
X106129563Y-117833834D01*
X106126144Y-117810779D01*
X106125000Y-117787500D01*
X106125000Y-117212500D01*
X106126144Y-117189221D01*
X106129563Y-117166166D01*
X106135227Y-117143557D01*
X106143079Y-117121613D01*
X106153044Y-117100543D01*
X106165026Y-117080552D01*
X106178910Y-117061832D01*
X106194562Y-117044562D01*
X106211832Y-117028910D01*
X106230552Y-117015026D01*
X106250543Y-117003044D01*
X106271613Y-116993079D01*
X106293557Y-116985227D01*
X106316166Y-116979563D01*
X106339221Y-116976144D01*
X106362500Y-116975000D01*
X106837500Y-116975000D01*
X106860779Y-116976144D01*
X106860779Y-116976144D01*
G37*
D12*
X106600000Y-117500000D03*
D11*
G36*
X106860779Y-118726144D02*
G01*
X106883834Y-118729563D01*
X106906443Y-118735227D01*
X106928387Y-118743079D01*
X106949457Y-118753044D01*
X106969448Y-118765026D01*
X106988168Y-118778910D01*
X107005438Y-118794562D01*
X107021090Y-118811832D01*
X107034974Y-118830552D01*
X107046956Y-118850543D01*
X107056921Y-118871613D01*
X107064773Y-118893557D01*
X107070437Y-118916166D01*
X107073856Y-118939221D01*
X107075000Y-118962500D01*
X107075000Y-119537500D01*
X107073856Y-119560779D01*
X107070437Y-119583834D01*
X107064773Y-119606443D01*
X107056921Y-119628387D01*
X107046956Y-119649457D01*
X107034974Y-119669448D01*
X107021090Y-119688168D01*
X107005438Y-119705438D01*
X106988168Y-119721090D01*
X106969448Y-119734974D01*
X106949457Y-119746956D01*
X106928387Y-119756921D01*
X106906443Y-119764773D01*
X106883834Y-119770437D01*
X106860779Y-119773856D01*
X106837500Y-119775000D01*
X106362500Y-119775000D01*
X106339221Y-119773856D01*
X106316166Y-119770437D01*
X106293557Y-119764773D01*
X106271613Y-119756921D01*
X106250543Y-119746956D01*
X106230552Y-119734974D01*
X106211832Y-119721090D01*
X106194562Y-119705438D01*
X106178910Y-119688168D01*
X106165026Y-119669448D01*
X106153044Y-119649457D01*
X106143079Y-119628387D01*
X106135227Y-119606443D01*
X106129563Y-119583834D01*
X106126144Y-119560779D01*
X106125000Y-119537500D01*
X106125000Y-118962500D01*
X106126144Y-118939221D01*
X106129563Y-118916166D01*
X106135227Y-118893557D01*
X106143079Y-118871613D01*
X106153044Y-118850543D01*
X106165026Y-118830552D01*
X106178910Y-118811832D01*
X106194562Y-118794562D01*
X106211832Y-118778910D01*
X106230552Y-118765026D01*
X106250543Y-118753044D01*
X106271613Y-118743079D01*
X106293557Y-118735227D01*
X106316166Y-118729563D01*
X106339221Y-118726144D01*
X106362500Y-118725000D01*
X106837500Y-118725000D01*
X106860779Y-118726144D01*
X106860779Y-118726144D01*
G37*
D12*
X106600000Y-119250000D03*
D11*
G36*
X116060779Y-105676144D02*
G01*
X116083834Y-105679563D01*
X116106443Y-105685227D01*
X116128387Y-105693079D01*
X116149457Y-105703044D01*
X116169448Y-105715026D01*
X116188168Y-105728910D01*
X116205438Y-105744562D01*
X116221090Y-105761832D01*
X116234974Y-105780552D01*
X116246956Y-105800543D01*
X116256921Y-105821613D01*
X116264773Y-105843557D01*
X116270437Y-105866166D01*
X116273856Y-105889221D01*
X116275000Y-105912500D01*
X116275000Y-106487500D01*
X116273856Y-106510779D01*
X116270437Y-106533834D01*
X116264773Y-106556443D01*
X116256921Y-106578387D01*
X116246956Y-106599457D01*
X116234974Y-106619448D01*
X116221090Y-106638168D01*
X116205438Y-106655438D01*
X116188168Y-106671090D01*
X116169448Y-106684974D01*
X116149457Y-106696956D01*
X116128387Y-106706921D01*
X116106443Y-106714773D01*
X116083834Y-106720437D01*
X116060779Y-106723856D01*
X116037500Y-106725000D01*
X115562500Y-106725000D01*
X115539221Y-106723856D01*
X115516166Y-106720437D01*
X115493557Y-106714773D01*
X115471613Y-106706921D01*
X115450543Y-106696956D01*
X115430552Y-106684974D01*
X115411832Y-106671090D01*
X115394562Y-106655438D01*
X115378910Y-106638168D01*
X115365026Y-106619448D01*
X115353044Y-106599457D01*
X115343079Y-106578387D01*
X115335227Y-106556443D01*
X115329563Y-106533834D01*
X115326144Y-106510779D01*
X115325000Y-106487500D01*
X115325000Y-105912500D01*
X115326144Y-105889221D01*
X115329563Y-105866166D01*
X115335227Y-105843557D01*
X115343079Y-105821613D01*
X115353044Y-105800543D01*
X115365026Y-105780552D01*
X115378910Y-105761832D01*
X115394562Y-105744562D01*
X115411832Y-105728910D01*
X115430552Y-105715026D01*
X115450543Y-105703044D01*
X115471613Y-105693079D01*
X115493557Y-105685227D01*
X115516166Y-105679563D01*
X115539221Y-105676144D01*
X115562500Y-105675000D01*
X116037500Y-105675000D01*
X116060779Y-105676144D01*
X116060779Y-105676144D01*
G37*
D12*
X115800000Y-106200000D03*
D11*
G36*
X116060779Y-107426144D02*
G01*
X116083834Y-107429563D01*
X116106443Y-107435227D01*
X116128387Y-107443079D01*
X116149457Y-107453044D01*
X116169448Y-107465026D01*
X116188168Y-107478910D01*
X116205438Y-107494562D01*
X116221090Y-107511832D01*
X116234974Y-107530552D01*
X116246956Y-107550543D01*
X116256921Y-107571613D01*
X116264773Y-107593557D01*
X116270437Y-107616166D01*
X116273856Y-107639221D01*
X116275000Y-107662500D01*
X116275000Y-108237500D01*
X116273856Y-108260779D01*
X116270437Y-108283834D01*
X116264773Y-108306443D01*
X116256921Y-108328387D01*
X116246956Y-108349457D01*
X116234974Y-108369448D01*
X116221090Y-108388168D01*
X116205438Y-108405438D01*
X116188168Y-108421090D01*
X116169448Y-108434974D01*
X116149457Y-108446956D01*
X116128387Y-108456921D01*
X116106443Y-108464773D01*
X116083834Y-108470437D01*
X116060779Y-108473856D01*
X116037500Y-108475000D01*
X115562500Y-108475000D01*
X115539221Y-108473856D01*
X115516166Y-108470437D01*
X115493557Y-108464773D01*
X115471613Y-108456921D01*
X115450543Y-108446956D01*
X115430552Y-108434974D01*
X115411832Y-108421090D01*
X115394562Y-108405438D01*
X115378910Y-108388168D01*
X115365026Y-108369448D01*
X115353044Y-108349457D01*
X115343079Y-108328387D01*
X115335227Y-108306443D01*
X115329563Y-108283834D01*
X115326144Y-108260779D01*
X115325000Y-108237500D01*
X115325000Y-107662500D01*
X115326144Y-107639221D01*
X115329563Y-107616166D01*
X115335227Y-107593557D01*
X115343079Y-107571613D01*
X115353044Y-107550543D01*
X115365026Y-107530552D01*
X115378910Y-107511832D01*
X115394562Y-107494562D01*
X115411832Y-107478910D01*
X115430552Y-107465026D01*
X115450543Y-107453044D01*
X115471613Y-107443079D01*
X115493557Y-107435227D01*
X115516166Y-107429563D01*
X115539221Y-107426144D01*
X115562500Y-107425000D01*
X116037500Y-107425000D01*
X116060779Y-107426144D01*
X116060779Y-107426144D01*
G37*
D12*
X115800000Y-107950000D03*
D11*
G36*
X79574505Y-118391204D02*
G01*
X79598773Y-118394804D01*
X79622572Y-118400765D01*
X79645671Y-118409030D01*
X79667850Y-118419520D01*
X79688893Y-118432132D01*
X79708599Y-118446747D01*
X79726777Y-118463223D01*
X79743253Y-118481401D01*
X79757868Y-118501107D01*
X79770480Y-118522150D01*
X79780970Y-118544329D01*
X79789235Y-118567428D01*
X79795196Y-118591227D01*
X79798796Y-118615495D01*
X79800000Y-118639999D01*
X79800000Y-119880001D01*
X79798796Y-119904505D01*
X79795196Y-119928773D01*
X79789235Y-119952572D01*
X79780970Y-119975671D01*
X79770480Y-119997850D01*
X79757868Y-120018893D01*
X79743253Y-120038599D01*
X79726777Y-120056777D01*
X79708599Y-120073253D01*
X79688893Y-120087868D01*
X79667850Y-120100480D01*
X79645671Y-120110970D01*
X79622572Y-120119235D01*
X79598773Y-120125196D01*
X79574505Y-120128796D01*
X79550001Y-120130000D01*
X77849999Y-120130000D01*
X77825495Y-120128796D01*
X77801227Y-120125196D01*
X77777428Y-120119235D01*
X77754329Y-120110970D01*
X77732150Y-120100480D01*
X77711107Y-120087868D01*
X77691401Y-120073253D01*
X77673223Y-120056777D01*
X77656747Y-120038599D01*
X77642132Y-120018893D01*
X77629520Y-119997850D01*
X77619030Y-119975671D01*
X77610765Y-119952572D01*
X77604804Y-119928773D01*
X77601204Y-119904505D01*
X77600000Y-119880001D01*
X77600000Y-118639999D01*
X77601204Y-118615495D01*
X77604804Y-118591227D01*
X77610765Y-118567428D01*
X77619030Y-118544329D01*
X77629520Y-118522150D01*
X77642132Y-118501107D01*
X77656747Y-118481401D01*
X77673223Y-118463223D01*
X77691401Y-118446747D01*
X77711107Y-118432132D01*
X77732150Y-118419520D01*
X77754329Y-118409030D01*
X77777428Y-118400765D01*
X77801227Y-118394804D01*
X77825495Y-118391204D01*
X77849999Y-118390000D01*
X79550001Y-118390000D01*
X79574505Y-118391204D01*
X79574505Y-118391204D01*
G37*
D16*
X78700000Y-119260000D03*
D17*
X78700000Y-121800000D03*
X142100000Y-121900000D03*
D11*
G36*
X142974505Y-118491204D02*
G01*
X142998773Y-118494804D01*
X143022572Y-118500765D01*
X143045671Y-118509030D01*
X143067850Y-118519520D01*
X143088893Y-118532132D01*
X143108599Y-118546747D01*
X143126777Y-118563223D01*
X143143253Y-118581401D01*
X143157868Y-118601107D01*
X143170480Y-118622150D01*
X143180970Y-118644329D01*
X143189235Y-118667428D01*
X143195196Y-118691227D01*
X143198796Y-118715495D01*
X143200000Y-118739999D01*
X143200000Y-119980001D01*
X143198796Y-120004505D01*
X143195196Y-120028773D01*
X143189235Y-120052572D01*
X143180970Y-120075671D01*
X143170480Y-120097850D01*
X143157868Y-120118893D01*
X143143253Y-120138599D01*
X143126777Y-120156777D01*
X143108599Y-120173253D01*
X143088893Y-120187868D01*
X143067850Y-120200480D01*
X143045671Y-120210970D01*
X143022572Y-120219235D01*
X142998773Y-120225196D01*
X142974505Y-120228796D01*
X142950001Y-120230000D01*
X141249999Y-120230000D01*
X141225495Y-120228796D01*
X141201227Y-120225196D01*
X141177428Y-120219235D01*
X141154329Y-120210970D01*
X141132150Y-120200480D01*
X141111107Y-120187868D01*
X141091401Y-120173253D01*
X141073223Y-120156777D01*
X141056747Y-120138599D01*
X141042132Y-120118893D01*
X141029520Y-120097850D01*
X141019030Y-120075671D01*
X141010765Y-120052572D01*
X141004804Y-120028773D01*
X141001204Y-120004505D01*
X141000000Y-119980001D01*
X141000000Y-118739999D01*
X141001204Y-118715495D01*
X141004804Y-118691227D01*
X141010765Y-118667428D01*
X141019030Y-118644329D01*
X141029520Y-118622150D01*
X141042132Y-118601107D01*
X141056747Y-118581401D01*
X141073223Y-118563223D01*
X141091401Y-118546747D01*
X141111107Y-118532132D01*
X141132150Y-118519520D01*
X141154329Y-118509030D01*
X141177428Y-118500765D01*
X141201227Y-118494804D01*
X141225495Y-118491204D01*
X141249999Y-118490000D01*
X142950001Y-118490000D01*
X142974505Y-118491204D01*
X142974505Y-118491204D01*
G37*
D16*
X142100000Y-119360000D03*
D11*
G36*
X123260779Y-117926144D02*
G01*
X123283834Y-117929563D01*
X123306443Y-117935227D01*
X123328387Y-117943079D01*
X123349457Y-117953044D01*
X123369448Y-117965026D01*
X123388168Y-117978910D01*
X123405438Y-117994562D01*
X123421090Y-118011832D01*
X123434974Y-118030552D01*
X123446956Y-118050543D01*
X123456921Y-118071613D01*
X123464773Y-118093557D01*
X123470437Y-118116166D01*
X123473856Y-118139221D01*
X123475000Y-118162500D01*
X123475000Y-118737500D01*
X123473856Y-118760779D01*
X123470437Y-118783834D01*
X123464773Y-118806443D01*
X123456921Y-118828387D01*
X123446956Y-118849457D01*
X123434974Y-118869448D01*
X123421090Y-118888168D01*
X123405438Y-118905438D01*
X123388168Y-118921090D01*
X123369448Y-118934974D01*
X123349457Y-118946956D01*
X123328387Y-118956921D01*
X123306443Y-118964773D01*
X123283834Y-118970437D01*
X123260779Y-118973856D01*
X123237500Y-118975000D01*
X122762500Y-118975000D01*
X122739221Y-118973856D01*
X122716166Y-118970437D01*
X122693557Y-118964773D01*
X122671613Y-118956921D01*
X122650543Y-118946956D01*
X122630552Y-118934974D01*
X122611832Y-118921090D01*
X122594562Y-118905438D01*
X122578910Y-118888168D01*
X122565026Y-118869448D01*
X122553044Y-118849457D01*
X122543079Y-118828387D01*
X122535227Y-118806443D01*
X122529563Y-118783834D01*
X122526144Y-118760779D01*
X122525000Y-118737500D01*
X122525000Y-118162500D01*
X122526144Y-118139221D01*
X122529563Y-118116166D01*
X122535227Y-118093557D01*
X122543079Y-118071613D01*
X122553044Y-118050543D01*
X122565026Y-118030552D01*
X122578910Y-118011832D01*
X122594562Y-117994562D01*
X122611832Y-117978910D01*
X122630552Y-117965026D01*
X122650543Y-117953044D01*
X122671613Y-117943079D01*
X122693557Y-117935227D01*
X122716166Y-117929563D01*
X122739221Y-117926144D01*
X122762500Y-117925000D01*
X123237500Y-117925000D01*
X123260779Y-117926144D01*
X123260779Y-117926144D01*
G37*
D12*
X123000000Y-118450000D03*
D11*
G36*
X123260779Y-116176144D02*
G01*
X123283834Y-116179563D01*
X123306443Y-116185227D01*
X123328387Y-116193079D01*
X123349457Y-116203044D01*
X123369448Y-116215026D01*
X123388168Y-116228910D01*
X123405438Y-116244562D01*
X123421090Y-116261832D01*
X123434974Y-116280552D01*
X123446956Y-116300543D01*
X123456921Y-116321613D01*
X123464773Y-116343557D01*
X123470437Y-116366166D01*
X123473856Y-116389221D01*
X123475000Y-116412500D01*
X123475000Y-116987500D01*
X123473856Y-117010779D01*
X123470437Y-117033834D01*
X123464773Y-117056443D01*
X123456921Y-117078387D01*
X123446956Y-117099457D01*
X123434974Y-117119448D01*
X123421090Y-117138168D01*
X123405438Y-117155438D01*
X123388168Y-117171090D01*
X123369448Y-117184974D01*
X123349457Y-117196956D01*
X123328387Y-117206921D01*
X123306443Y-117214773D01*
X123283834Y-117220437D01*
X123260779Y-117223856D01*
X123237500Y-117225000D01*
X122762500Y-117225000D01*
X122739221Y-117223856D01*
X122716166Y-117220437D01*
X122693557Y-117214773D01*
X122671613Y-117206921D01*
X122650543Y-117196956D01*
X122630552Y-117184974D01*
X122611832Y-117171090D01*
X122594562Y-117155438D01*
X122578910Y-117138168D01*
X122565026Y-117119448D01*
X122553044Y-117099457D01*
X122543079Y-117078387D01*
X122535227Y-117056443D01*
X122529563Y-117033834D01*
X122526144Y-117010779D01*
X122525000Y-116987500D01*
X122525000Y-116412500D01*
X122526144Y-116389221D01*
X122529563Y-116366166D01*
X122535227Y-116343557D01*
X122543079Y-116321613D01*
X122553044Y-116300543D01*
X122565026Y-116280552D01*
X122578910Y-116261832D01*
X122594562Y-116244562D01*
X122611832Y-116228910D01*
X122630552Y-116215026D01*
X122650543Y-116203044D01*
X122671613Y-116193079D01*
X122693557Y-116185227D01*
X122716166Y-116179563D01*
X122739221Y-116176144D01*
X122762500Y-116175000D01*
X123237500Y-116175000D01*
X123260779Y-116176144D01*
X123260779Y-116176144D01*
G37*
D12*
X123000000Y-116700000D03*
D18*
X117400000Y-121800000D03*
D11*
G36*
X115524504Y-120801204D02*
G01*
X115548773Y-120804804D01*
X115572571Y-120810765D01*
X115595671Y-120819030D01*
X115617849Y-120829520D01*
X115638893Y-120842133D01*
X115658598Y-120856747D01*
X115676777Y-120873223D01*
X115693253Y-120891402D01*
X115707867Y-120911107D01*
X115720480Y-120932151D01*
X115730970Y-120954329D01*
X115739235Y-120977429D01*
X115745196Y-121001227D01*
X115748796Y-121025496D01*
X115750000Y-121050000D01*
X115750000Y-122550000D01*
X115748796Y-122574504D01*
X115745196Y-122598773D01*
X115739235Y-122622571D01*
X115730970Y-122645671D01*
X115720480Y-122667849D01*
X115707867Y-122688893D01*
X115693253Y-122708598D01*
X115676777Y-122726777D01*
X115658598Y-122743253D01*
X115638893Y-122757867D01*
X115617849Y-122770480D01*
X115595671Y-122780970D01*
X115572571Y-122789235D01*
X115548773Y-122795196D01*
X115524504Y-122798796D01*
X115500000Y-122800000D01*
X114300000Y-122800000D01*
X114275496Y-122798796D01*
X114251227Y-122795196D01*
X114227429Y-122789235D01*
X114204329Y-122780970D01*
X114182151Y-122770480D01*
X114161107Y-122757867D01*
X114141402Y-122743253D01*
X114123223Y-122726777D01*
X114106747Y-122708598D01*
X114092133Y-122688893D01*
X114079520Y-122667849D01*
X114069030Y-122645671D01*
X114060765Y-122622571D01*
X114054804Y-122598773D01*
X114051204Y-122574504D01*
X114050000Y-122550000D01*
X114050000Y-121050000D01*
X114051204Y-121025496D01*
X114054804Y-121001227D01*
X114060765Y-120977429D01*
X114069030Y-120954329D01*
X114079520Y-120932151D01*
X114092133Y-120911107D01*
X114106747Y-120891402D01*
X114123223Y-120873223D01*
X114141402Y-120856747D01*
X114161107Y-120842133D01*
X114182151Y-120829520D01*
X114204329Y-120819030D01*
X114227429Y-120810765D01*
X114251227Y-120804804D01*
X114275496Y-120801204D01*
X114300000Y-120800000D01*
X115500000Y-120800000D01*
X115524504Y-120801204D01*
X115524504Y-120801204D01*
G37*
D19*
X114900000Y-121800000D03*
D11*
G36*
X118760779Y-114676144D02*
G01*
X118783834Y-114679563D01*
X118806443Y-114685227D01*
X118828387Y-114693079D01*
X118849457Y-114703044D01*
X118869448Y-114715026D01*
X118888168Y-114728910D01*
X118905438Y-114744562D01*
X118921090Y-114761832D01*
X118934974Y-114780552D01*
X118946956Y-114800543D01*
X118956921Y-114821613D01*
X118964773Y-114843557D01*
X118970437Y-114866166D01*
X118973856Y-114889221D01*
X118975000Y-114912500D01*
X118975000Y-115487500D01*
X118973856Y-115510779D01*
X118970437Y-115533834D01*
X118964773Y-115556443D01*
X118956921Y-115578387D01*
X118946956Y-115599457D01*
X118934974Y-115619448D01*
X118921090Y-115638168D01*
X118905438Y-115655438D01*
X118888168Y-115671090D01*
X118869448Y-115684974D01*
X118849457Y-115696956D01*
X118828387Y-115706921D01*
X118806443Y-115714773D01*
X118783834Y-115720437D01*
X118760779Y-115723856D01*
X118737500Y-115725000D01*
X118262500Y-115725000D01*
X118239221Y-115723856D01*
X118216166Y-115720437D01*
X118193557Y-115714773D01*
X118171613Y-115706921D01*
X118150543Y-115696956D01*
X118130552Y-115684974D01*
X118111832Y-115671090D01*
X118094562Y-115655438D01*
X118078910Y-115638168D01*
X118065026Y-115619448D01*
X118053044Y-115599457D01*
X118043079Y-115578387D01*
X118035227Y-115556443D01*
X118029563Y-115533834D01*
X118026144Y-115510779D01*
X118025000Y-115487500D01*
X118025000Y-114912500D01*
X118026144Y-114889221D01*
X118029563Y-114866166D01*
X118035227Y-114843557D01*
X118043079Y-114821613D01*
X118053044Y-114800543D01*
X118065026Y-114780552D01*
X118078910Y-114761832D01*
X118094562Y-114744562D01*
X118111832Y-114728910D01*
X118130552Y-114715026D01*
X118150543Y-114703044D01*
X118171613Y-114693079D01*
X118193557Y-114685227D01*
X118216166Y-114679563D01*
X118239221Y-114676144D01*
X118262500Y-114675000D01*
X118737500Y-114675000D01*
X118760779Y-114676144D01*
X118760779Y-114676144D01*
G37*
D12*
X118500000Y-115200000D03*
D11*
G36*
X118760779Y-112926144D02*
G01*
X118783834Y-112929563D01*
X118806443Y-112935227D01*
X118828387Y-112943079D01*
X118849457Y-112953044D01*
X118869448Y-112965026D01*
X118888168Y-112978910D01*
X118905438Y-112994562D01*
X118921090Y-113011832D01*
X118934974Y-113030552D01*
X118946956Y-113050543D01*
X118956921Y-113071613D01*
X118964773Y-113093557D01*
X118970437Y-113116166D01*
X118973856Y-113139221D01*
X118975000Y-113162500D01*
X118975000Y-113737500D01*
X118973856Y-113760779D01*
X118970437Y-113783834D01*
X118964773Y-113806443D01*
X118956921Y-113828387D01*
X118946956Y-113849457D01*
X118934974Y-113869448D01*
X118921090Y-113888168D01*
X118905438Y-113905438D01*
X118888168Y-113921090D01*
X118869448Y-113934974D01*
X118849457Y-113946956D01*
X118828387Y-113956921D01*
X118806443Y-113964773D01*
X118783834Y-113970437D01*
X118760779Y-113973856D01*
X118737500Y-113975000D01*
X118262500Y-113975000D01*
X118239221Y-113973856D01*
X118216166Y-113970437D01*
X118193557Y-113964773D01*
X118171613Y-113956921D01*
X118150543Y-113946956D01*
X118130552Y-113934974D01*
X118111832Y-113921090D01*
X118094562Y-113905438D01*
X118078910Y-113888168D01*
X118065026Y-113869448D01*
X118053044Y-113849457D01*
X118043079Y-113828387D01*
X118035227Y-113806443D01*
X118029563Y-113783834D01*
X118026144Y-113760779D01*
X118025000Y-113737500D01*
X118025000Y-113162500D01*
X118026144Y-113139221D01*
X118029563Y-113116166D01*
X118035227Y-113093557D01*
X118043079Y-113071613D01*
X118053044Y-113050543D01*
X118065026Y-113030552D01*
X118078910Y-113011832D01*
X118094562Y-112994562D01*
X118111832Y-112978910D01*
X118130552Y-112965026D01*
X118150543Y-112953044D01*
X118171613Y-112943079D01*
X118193557Y-112935227D01*
X118216166Y-112929563D01*
X118239221Y-112926144D01*
X118262500Y-112925000D01*
X118737500Y-112925000D01*
X118760779Y-112926144D01*
X118760779Y-112926144D01*
G37*
D12*
X118500000Y-113450000D03*
D20*
X126500000Y-116800000D03*
X128400000Y-116800000D03*
X127450000Y-119800000D03*
D11*
G36*
X119899505Y-105676204D02*
G01*
X119923773Y-105679804D01*
X119947572Y-105685765D01*
X119970671Y-105694030D01*
X119992850Y-105704520D01*
X120013893Y-105717132D01*
X120033599Y-105731747D01*
X120051777Y-105748223D01*
X120068253Y-105766401D01*
X120082868Y-105786107D01*
X120095480Y-105807150D01*
X120105970Y-105829329D01*
X120114235Y-105852428D01*
X120120196Y-105876227D01*
X120123796Y-105900495D01*
X120125000Y-105924999D01*
X120125000Y-106675001D01*
X120123796Y-106699505D01*
X120120196Y-106723773D01*
X120114235Y-106747572D01*
X120105970Y-106770671D01*
X120095480Y-106792850D01*
X120082868Y-106813893D01*
X120068253Y-106833599D01*
X120051777Y-106851777D01*
X120033599Y-106868253D01*
X120013893Y-106882868D01*
X119992850Y-106895480D01*
X119970671Y-106905970D01*
X119947572Y-106914235D01*
X119923773Y-106920196D01*
X119899505Y-106923796D01*
X119875001Y-106925000D01*
X119324999Y-106925000D01*
X119300495Y-106923796D01*
X119276227Y-106920196D01*
X119252428Y-106914235D01*
X119229329Y-106905970D01*
X119207150Y-106895480D01*
X119186107Y-106882868D01*
X119166401Y-106868253D01*
X119148223Y-106851777D01*
X119131747Y-106833599D01*
X119117132Y-106813893D01*
X119104520Y-106792850D01*
X119094030Y-106770671D01*
X119085765Y-106747572D01*
X119079804Y-106723773D01*
X119076204Y-106699505D01*
X119075000Y-106675001D01*
X119075000Y-105924999D01*
X119076204Y-105900495D01*
X119079804Y-105876227D01*
X119085765Y-105852428D01*
X119094030Y-105829329D01*
X119104520Y-105807150D01*
X119117132Y-105786107D01*
X119131747Y-105766401D01*
X119148223Y-105748223D01*
X119166401Y-105731747D01*
X119186107Y-105717132D01*
X119207150Y-105704520D01*
X119229329Y-105694030D01*
X119252428Y-105685765D01*
X119276227Y-105679804D01*
X119300495Y-105676204D01*
X119324999Y-105675000D01*
X119875001Y-105675000D01*
X119899505Y-105676204D01*
X119899505Y-105676204D01*
G37*
D13*
X119600000Y-106300000D03*
D11*
G36*
X119899505Y-107276204D02*
G01*
X119923773Y-107279804D01*
X119947572Y-107285765D01*
X119970671Y-107294030D01*
X119992850Y-107304520D01*
X120013893Y-107317132D01*
X120033599Y-107331747D01*
X120051777Y-107348223D01*
X120068253Y-107366401D01*
X120082868Y-107386107D01*
X120095480Y-107407150D01*
X120105970Y-107429329D01*
X120114235Y-107452428D01*
X120120196Y-107476227D01*
X120123796Y-107500495D01*
X120125000Y-107524999D01*
X120125000Y-108275001D01*
X120123796Y-108299505D01*
X120120196Y-108323773D01*
X120114235Y-108347572D01*
X120105970Y-108370671D01*
X120095480Y-108392850D01*
X120082868Y-108413893D01*
X120068253Y-108433599D01*
X120051777Y-108451777D01*
X120033599Y-108468253D01*
X120013893Y-108482868D01*
X119992850Y-108495480D01*
X119970671Y-108505970D01*
X119947572Y-108514235D01*
X119923773Y-108520196D01*
X119899505Y-108523796D01*
X119875001Y-108525000D01*
X119324999Y-108525000D01*
X119300495Y-108523796D01*
X119276227Y-108520196D01*
X119252428Y-108514235D01*
X119229329Y-108505970D01*
X119207150Y-108495480D01*
X119186107Y-108482868D01*
X119166401Y-108468253D01*
X119148223Y-108451777D01*
X119131747Y-108433599D01*
X119117132Y-108413893D01*
X119104520Y-108392850D01*
X119094030Y-108370671D01*
X119085765Y-108347572D01*
X119079804Y-108323773D01*
X119076204Y-108299505D01*
X119075000Y-108275001D01*
X119075000Y-107524999D01*
X119076204Y-107500495D01*
X119079804Y-107476227D01*
X119085765Y-107452428D01*
X119094030Y-107429329D01*
X119104520Y-107407150D01*
X119117132Y-107386107D01*
X119131747Y-107366401D01*
X119148223Y-107348223D01*
X119166401Y-107331747D01*
X119186107Y-107317132D01*
X119207150Y-107304520D01*
X119229329Y-107294030D01*
X119252428Y-107285765D01*
X119276227Y-107279804D01*
X119300495Y-107276204D01*
X119324999Y-107275000D01*
X119875001Y-107275000D01*
X119899505Y-107276204D01*
X119899505Y-107276204D01*
G37*
D13*
X119600000Y-107900000D03*
D21*
X115500000Y-113400000D03*
X115500000Y-115700000D03*
X115500000Y-118000000D03*
D22*
X109300000Y-115700000D03*
D11*
G36*
X120360779Y-91926144D02*
G01*
X120383834Y-91929563D01*
X120406443Y-91935227D01*
X120428387Y-91943079D01*
X120449457Y-91953044D01*
X120469448Y-91965026D01*
X120488168Y-91978910D01*
X120505438Y-91994562D01*
X120521090Y-92011832D01*
X120534974Y-92030552D01*
X120546956Y-92050543D01*
X120556921Y-92071613D01*
X120564773Y-92093557D01*
X120570437Y-92116166D01*
X120573856Y-92139221D01*
X120575000Y-92162500D01*
X120575000Y-92637500D01*
X120573856Y-92660779D01*
X120570437Y-92683834D01*
X120564773Y-92706443D01*
X120556921Y-92728387D01*
X120546956Y-92749457D01*
X120534974Y-92769448D01*
X120521090Y-92788168D01*
X120505438Y-92805438D01*
X120488168Y-92821090D01*
X120469448Y-92834974D01*
X120449457Y-92846956D01*
X120428387Y-92856921D01*
X120406443Y-92864773D01*
X120383834Y-92870437D01*
X120360779Y-92873856D01*
X120337500Y-92875000D01*
X119762500Y-92875000D01*
X119739221Y-92873856D01*
X119716166Y-92870437D01*
X119693557Y-92864773D01*
X119671613Y-92856921D01*
X119650543Y-92846956D01*
X119630552Y-92834974D01*
X119611832Y-92821090D01*
X119594562Y-92805438D01*
X119578910Y-92788168D01*
X119565026Y-92769448D01*
X119553044Y-92749457D01*
X119543079Y-92728387D01*
X119535227Y-92706443D01*
X119529563Y-92683834D01*
X119526144Y-92660779D01*
X119525000Y-92637500D01*
X119525000Y-92162500D01*
X119526144Y-92139221D01*
X119529563Y-92116166D01*
X119535227Y-92093557D01*
X119543079Y-92071613D01*
X119553044Y-92050543D01*
X119565026Y-92030552D01*
X119578910Y-92011832D01*
X119594562Y-91994562D01*
X119611832Y-91978910D01*
X119630552Y-91965026D01*
X119650543Y-91953044D01*
X119671613Y-91943079D01*
X119693557Y-91935227D01*
X119716166Y-91929563D01*
X119739221Y-91926144D01*
X119762500Y-91925000D01*
X120337500Y-91925000D01*
X120360779Y-91926144D01*
X120360779Y-91926144D01*
G37*
D12*
X120050000Y-92400000D03*
D11*
G36*
X122110779Y-91926144D02*
G01*
X122133834Y-91929563D01*
X122156443Y-91935227D01*
X122178387Y-91943079D01*
X122199457Y-91953044D01*
X122219448Y-91965026D01*
X122238168Y-91978910D01*
X122255438Y-91994562D01*
X122271090Y-92011832D01*
X122284974Y-92030552D01*
X122296956Y-92050543D01*
X122306921Y-92071613D01*
X122314773Y-92093557D01*
X122320437Y-92116166D01*
X122323856Y-92139221D01*
X122325000Y-92162500D01*
X122325000Y-92637500D01*
X122323856Y-92660779D01*
X122320437Y-92683834D01*
X122314773Y-92706443D01*
X122306921Y-92728387D01*
X122296956Y-92749457D01*
X122284974Y-92769448D01*
X122271090Y-92788168D01*
X122255438Y-92805438D01*
X122238168Y-92821090D01*
X122219448Y-92834974D01*
X122199457Y-92846956D01*
X122178387Y-92856921D01*
X122156443Y-92864773D01*
X122133834Y-92870437D01*
X122110779Y-92873856D01*
X122087500Y-92875000D01*
X121512500Y-92875000D01*
X121489221Y-92873856D01*
X121466166Y-92870437D01*
X121443557Y-92864773D01*
X121421613Y-92856921D01*
X121400543Y-92846956D01*
X121380552Y-92834974D01*
X121361832Y-92821090D01*
X121344562Y-92805438D01*
X121328910Y-92788168D01*
X121315026Y-92769448D01*
X121303044Y-92749457D01*
X121293079Y-92728387D01*
X121285227Y-92706443D01*
X121279563Y-92683834D01*
X121276144Y-92660779D01*
X121275000Y-92637500D01*
X121275000Y-92162500D01*
X121276144Y-92139221D01*
X121279563Y-92116166D01*
X121285227Y-92093557D01*
X121293079Y-92071613D01*
X121303044Y-92050543D01*
X121315026Y-92030552D01*
X121328910Y-92011832D01*
X121344562Y-91994562D01*
X121361832Y-91978910D01*
X121380552Y-91965026D01*
X121400543Y-91953044D01*
X121421613Y-91943079D01*
X121443557Y-91935227D01*
X121466166Y-91929563D01*
X121489221Y-91926144D01*
X121512500Y-91925000D01*
X122087500Y-91925000D01*
X122110779Y-91926144D01*
X122110779Y-91926144D01*
G37*
D12*
X121800000Y-92400000D03*
D11*
G36*
X112060779Y-107426144D02*
G01*
X112083834Y-107429563D01*
X112106443Y-107435227D01*
X112128387Y-107443079D01*
X112149457Y-107453044D01*
X112169448Y-107465026D01*
X112188168Y-107478910D01*
X112205438Y-107494562D01*
X112221090Y-107511832D01*
X112234974Y-107530552D01*
X112246956Y-107550543D01*
X112256921Y-107571613D01*
X112264773Y-107593557D01*
X112270437Y-107616166D01*
X112273856Y-107639221D01*
X112275000Y-107662500D01*
X112275000Y-108237500D01*
X112273856Y-108260779D01*
X112270437Y-108283834D01*
X112264773Y-108306443D01*
X112256921Y-108328387D01*
X112246956Y-108349457D01*
X112234974Y-108369448D01*
X112221090Y-108388168D01*
X112205438Y-108405438D01*
X112188168Y-108421090D01*
X112169448Y-108434974D01*
X112149457Y-108446956D01*
X112128387Y-108456921D01*
X112106443Y-108464773D01*
X112083834Y-108470437D01*
X112060779Y-108473856D01*
X112037500Y-108475000D01*
X111562500Y-108475000D01*
X111539221Y-108473856D01*
X111516166Y-108470437D01*
X111493557Y-108464773D01*
X111471613Y-108456921D01*
X111450543Y-108446956D01*
X111430552Y-108434974D01*
X111411832Y-108421090D01*
X111394562Y-108405438D01*
X111378910Y-108388168D01*
X111365026Y-108369448D01*
X111353044Y-108349457D01*
X111343079Y-108328387D01*
X111335227Y-108306443D01*
X111329563Y-108283834D01*
X111326144Y-108260779D01*
X111325000Y-108237500D01*
X111325000Y-107662500D01*
X111326144Y-107639221D01*
X111329563Y-107616166D01*
X111335227Y-107593557D01*
X111343079Y-107571613D01*
X111353044Y-107550543D01*
X111365026Y-107530552D01*
X111378910Y-107511832D01*
X111394562Y-107494562D01*
X111411832Y-107478910D01*
X111430552Y-107465026D01*
X111450543Y-107453044D01*
X111471613Y-107443079D01*
X111493557Y-107435227D01*
X111516166Y-107429563D01*
X111539221Y-107426144D01*
X111562500Y-107425000D01*
X112037500Y-107425000D01*
X112060779Y-107426144D01*
X112060779Y-107426144D01*
G37*
D12*
X111800000Y-107950000D03*
D11*
G36*
X112060779Y-105676144D02*
G01*
X112083834Y-105679563D01*
X112106443Y-105685227D01*
X112128387Y-105693079D01*
X112149457Y-105703044D01*
X112169448Y-105715026D01*
X112188168Y-105728910D01*
X112205438Y-105744562D01*
X112221090Y-105761832D01*
X112234974Y-105780552D01*
X112246956Y-105800543D01*
X112256921Y-105821613D01*
X112264773Y-105843557D01*
X112270437Y-105866166D01*
X112273856Y-105889221D01*
X112275000Y-105912500D01*
X112275000Y-106487500D01*
X112273856Y-106510779D01*
X112270437Y-106533834D01*
X112264773Y-106556443D01*
X112256921Y-106578387D01*
X112246956Y-106599457D01*
X112234974Y-106619448D01*
X112221090Y-106638168D01*
X112205438Y-106655438D01*
X112188168Y-106671090D01*
X112169448Y-106684974D01*
X112149457Y-106696956D01*
X112128387Y-106706921D01*
X112106443Y-106714773D01*
X112083834Y-106720437D01*
X112060779Y-106723856D01*
X112037500Y-106725000D01*
X111562500Y-106725000D01*
X111539221Y-106723856D01*
X111516166Y-106720437D01*
X111493557Y-106714773D01*
X111471613Y-106706921D01*
X111450543Y-106696956D01*
X111430552Y-106684974D01*
X111411832Y-106671090D01*
X111394562Y-106655438D01*
X111378910Y-106638168D01*
X111365026Y-106619448D01*
X111353044Y-106599457D01*
X111343079Y-106578387D01*
X111335227Y-106556443D01*
X111329563Y-106533834D01*
X111326144Y-106510779D01*
X111325000Y-106487500D01*
X111325000Y-105912500D01*
X111326144Y-105889221D01*
X111329563Y-105866166D01*
X111335227Y-105843557D01*
X111343079Y-105821613D01*
X111353044Y-105800543D01*
X111365026Y-105780552D01*
X111378910Y-105761832D01*
X111394562Y-105744562D01*
X111411832Y-105728910D01*
X111430552Y-105715026D01*
X111450543Y-105703044D01*
X111471613Y-105693079D01*
X111493557Y-105685227D01*
X111516166Y-105679563D01*
X111539221Y-105676144D01*
X111562500Y-105675000D01*
X112037500Y-105675000D01*
X112060779Y-105676144D01*
X112060779Y-105676144D01*
G37*
D12*
X111800000Y-106200000D03*
D11*
G36*
X107460779Y-105501144D02*
G01*
X107483834Y-105504563D01*
X107506443Y-105510227D01*
X107528387Y-105518079D01*
X107549457Y-105528044D01*
X107569448Y-105540026D01*
X107588168Y-105553910D01*
X107605438Y-105569562D01*
X107621090Y-105586832D01*
X107634974Y-105605552D01*
X107646956Y-105625543D01*
X107656921Y-105646613D01*
X107664773Y-105668557D01*
X107670437Y-105691166D01*
X107673856Y-105714221D01*
X107675000Y-105737500D01*
X107675000Y-106312500D01*
X107673856Y-106335779D01*
X107670437Y-106358834D01*
X107664773Y-106381443D01*
X107656921Y-106403387D01*
X107646956Y-106424457D01*
X107634974Y-106444448D01*
X107621090Y-106463168D01*
X107605438Y-106480438D01*
X107588168Y-106496090D01*
X107569448Y-106509974D01*
X107549457Y-106521956D01*
X107528387Y-106531921D01*
X107506443Y-106539773D01*
X107483834Y-106545437D01*
X107460779Y-106548856D01*
X107437500Y-106550000D01*
X106962500Y-106550000D01*
X106939221Y-106548856D01*
X106916166Y-106545437D01*
X106893557Y-106539773D01*
X106871613Y-106531921D01*
X106850543Y-106521956D01*
X106830552Y-106509974D01*
X106811832Y-106496090D01*
X106794562Y-106480438D01*
X106778910Y-106463168D01*
X106765026Y-106444448D01*
X106753044Y-106424457D01*
X106743079Y-106403387D01*
X106735227Y-106381443D01*
X106729563Y-106358834D01*
X106726144Y-106335779D01*
X106725000Y-106312500D01*
X106725000Y-105737500D01*
X106726144Y-105714221D01*
X106729563Y-105691166D01*
X106735227Y-105668557D01*
X106743079Y-105646613D01*
X106753044Y-105625543D01*
X106765026Y-105605552D01*
X106778910Y-105586832D01*
X106794562Y-105569562D01*
X106811832Y-105553910D01*
X106830552Y-105540026D01*
X106850543Y-105528044D01*
X106871613Y-105518079D01*
X106893557Y-105510227D01*
X106916166Y-105504563D01*
X106939221Y-105501144D01*
X106962500Y-105500000D01*
X107437500Y-105500000D01*
X107460779Y-105501144D01*
X107460779Y-105501144D01*
G37*
D12*
X107200000Y-106025000D03*
D11*
G36*
X107460779Y-107251144D02*
G01*
X107483834Y-107254563D01*
X107506443Y-107260227D01*
X107528387Y-107268079D01*
X107549457Y-107278044D01*
X107569448Y-107290026D01*
X107588168Y-107303910D01*
X107605438Y-107319562D01*
X107621090Y-107336832D01*
X107634974Y-107355552D01*
X107646956Y-107375543D01*
X107656921Y-107396613D01*
X107664773Y-107418557D01*
X107670437Y-107441166D01*
X107673856Y-107464221D01*
X107675000Y-107487500D01*
X107675000Y-108062500D01*
X107673856Y-108085779D01*
X107670437Y-108108834D01*
X107664773Y-108131443D01*
X107656921Y-108153387D01*
X107646956Y-108174457D01*
X107634974Y-108194448D01*
X107621090Y-108213168D01*
X107605438Y-108230438D01*
X107588168Y-108246090D01*
X107569448Y-108259974D01*
X107549457Y-108271956D01*
X107528387Y-108281921D01*
X107506443Y-108289773D01*
X107483834Y-108295437D01*
X107460779Y-108298856D01*
X107437500Y-108300000D01*
X106962500Y-108300000D01*
X106939221Y-108298856D01*
X106916166Y-108295437D01*
X106893557Y-108289773D01*
X106871613Y-108281921D01*
X106850543Y-108271956D01*
X106830552Y-108259974D01*
X106811832Y-108246090D01*
X106794562Y-108230438D01*
X106778910Y-108213168D01*
X106765026Y-108194448D01*
X106753044Y-108174457D01*
X106743079Y-108153387D01*
X106735227Y-108131443D01*
X106729563Y-108108834D01*
X106726144Y-108085779D01*
X106725000Y-108062500D01*
X106725000Y-107487500D01*
X106726144Y-107464221D01*
X106729563Y-107441166D01*
X106735227Y-107418557D01*
X106743079Y-107396613D01*
X106753044Y-107375543D01*
X106765026Y-107355552D01*
X106778910Y-107336832D01*
X106794562Y-107319562D01*
X106811832Y-107303910D01*
X106830552Y-107290026D01*
X106850543Y-107278044D01*
X106871613Y-107268079D01*
X106893557Y-107260227D01*
X106916166Y-107254563D01*
X106939221Y-107251144D01*
X106962500Y-107250000D01*
X107437500Y-107250000D01*
X107460779Y-107251144D01*
X107460779Y-107251144D01*
G37*
D12*
X107200000Y-107775000D03*
D11*
G36*
X93599505Y-109576204D02*
G01*
X93623773Y-109579804D01*
X93647572Y-109585765D01*
X93670671Y-109594030D01*
X93692850Y-109604520D01*
X93713893Y-109617132D01*
X93733599Y-109631747D01*
X93751777Y-109648223D01*
X93768253Y-109666401D01*
X93782868Y-109686107D01*
X93795480Y-109707150D01*
X93805970Y-109729329D01*
X93814235Y-109752428D01*
X93820196Y-109776227D01*
X93823796Y-109800495D01*
X93825000Y-109824999D01*
X93825000Y-110575001D01*
X93823796Y-110599505D01*
X93820196Y-110623773D01*
X93814235Y-110647572D01*
X93805970Y-110670671D01*
X93795480Y-110692850D01*
X93782868Y-110713893D01*
X93768253Y-110733599D01*
X93751777Y-110751777D01*
X93733599Y-110768253D01*
X93713893Y-110782868D01*
X93692850Y-110795480D01*
X93670671Y-110805970D01*
X93647572Y-110814235D01*
X93623773Y-110820196D01*
X93599505Y-110823796D01*
X93575001Y-110825000D01*
X93024999Y-110825000D01*
X93000495Y-110823796D01*
X92976227Y-110820196D01*
X92952428Y-110814235D01*
X92929329Y-110805970D01*
X92907150Y-110795480D01*
X92886107Y-110782868D01*
X92866401Y-110768253D01*
X92848223Y-110751777D01*
X92831747Y-110733599D01*
X92817132Y-110713893D01*
X92804520Y-110692850D01*
X92794030Y-110670671D01*
X92785765Y-110647572D01*
X92779804Y-110623773D01*
X92776204Y-110599505D01*
X92775000Y-110575001D01*
X92775000Y-109824999D01*
X92776204Y-109800495D01*
X92779804Y-109776227D01*
X92785765Y-109752428D01*
X92794030Y-109729329D01*
X92804520Y-109707150D01*
X92817132Y-109686107D01*
X92831747Y-109666401D01*
X92848223Y-109648223D01*
X92866401Y-109631747D01*
X92886107Y-109617132D01*
X92907150Y-109604520D01*
X92929329Y-109594030D01*
X92952428Y-109585765D01*
X92976227Y-109579804D01*
X93000495Y-109576204D01*
X93024999Y-109575000D01*
X93575001Y-109575000D01*
X93599505Y-109576204D01*
X93599505Y-109576204D01*
G37*
D13*
X93300000Y-110200000D03*
D11*
G36*
X93599505Y-111176204D02*
G01*
X93623773Y-111179804D01*
X93647572Y-111185765D01*
X93670671Y-111194030D01*
X93692850Y-111204520D01*
X93713893Y-111217132D01*
X93733599Y-111231747D01*
X93751777Y-111248223D01*
X93768253Y-111266401D01*
X93782868Y-111286107D01*
X93795480Y-111307150D01*
X93805970Y-111329329D01*
X93814235Y-111352428D01*
X93820196Y-111376227D01*
X93823796Y-111400495D01*
X93825000Y-111424999D01*
X93825000Y-112175001D01*
X93823796Y-112199505D01*
X93820196Y-112223773D01*
X93814235Y-112247572D01*
X93805970Y-112270671D01*
X93795480Y-112292850D01*
X93782868Y-112313893D01*
X93768253Y-112333599D01*
X93751777Y-112351777D01*
X93733599Y-112368253D01*
X93713893Y-112382868D01*
X93692850Y-112395480D01*
X93670671Y-112405970D01*
X93647572Y-112414235D01*
X93623773Y-112420196D01*
X93599505Y-112423796D01*
X93575001Y-112425000D01*
X93024999Y-112425000D01*
X93000495Y-112423796D01*
X92976227Y-112420196D01*
X92952428Y-112414235D01*
X92929329Y-112405970D01*
X92907150Y-112395480D01*
X92886107Y-112382868D01*
X92866401Y-112368253D01*
X92848223Y-112351777D01*
X92831747Y-112333599D01*
X92817132Y-112313893D01*
X92804520Y-112292850D01*
X92794030Y-112270671D01*
X92785765Y-112247572D01*
X92779804Y-112223773D01*
X92776204Y-112199505D01*
X92775000Y-112175001D01*
X92775000Y-111424999D01*
X92776204Y-111400495D01*
X92779804Y-111376227D01*
X92785765Y-111352428D01*
X92794030Y-111329329D01*
X92804520Y-111307150D01*
X92817132Y-111286107D01*
X92831747Y-111266401D01*
X92848223Y-111248223D01*
X92866401Y-111231747D01*
X92886107Y-111217132D01*
X92907150Y-111204520D01*
X92929329Y-111194030D01*
X92952428Y-111185765D01*
X92976227Y-111179804D01*
X93000495Y-111176204D01*
X93024999Y-111175000D01*
X93575001Y-111175000D01*
X93599505Y-111176204D01*
X93599505Y-111176204D01*
G37*
D13*
X93300000Y-111800000D03*
D11*
G36*
X118424505Y-100001204D02*
G01*
X118448773Y-100004804D01*
X118472572Y-100010765D01*
X118495671Y-100019030D01*
X118517850Y-100029520D01*
X118538893Y-100042132D01*
X118558599Y-100056747D01*
X118576777Y-100073223D01*
X118593253Y-100091401D01*
X118607868Y-100111107D01*
X118620480Y-100132150D01*
X118630970Y-100154329D01*
X118639235Y-100177428D01*
X118645196Y-100201227D01*
X118648796Y-100225495D01*
X118650000Y-100249999D01*
X118650000Y-101950001D01*
X118648796Y-101974505D01*
X118645196Y-101998773D01*
X118639235Y-102022572D01*
X118630970Y-102045671D01*
X118620480Y-102067850D01*
X118607868Y-102088893D01*
X118593253Y-102108599D01*
X118576777Y-102126777D01*
X118558599Y-102143253D01*
X118538893Y-102157868D01*
X118517850Y-102170480D01*
X118495671Y-102180970D01*
X118472572Y-102189235D01*
X118448773Y-102195196D01*
X118424505Y-102198796D01*
X118400001Y-102200000D01*
X117159999Y-102200000D01*
X117135495Y-102198796D01*
X117111227Y-102195196D01*
X117087428Y-102189235D01*
X117064329Y-102180970D01*
X117042150Y-102170480D01*
X117021107Y-102157868D01*
X117001401Y-102143253D01*
X116983223Y-102126777D01*
X116966747Y-102108599D01*
X116952132Y-102088893D01*
X116939520Y-102067850D01*
X116929030Y-102045671D01*
X116920765Y-102022572D01*
X116914804Y-101998773D01*
X116911204Y-101974505D01*
X116910000Y-101950001D01*
X116910000Y-100249999D01*
X116911204Y-100225495D01*
X116914804Y-100201227D01*
X116920765Y-100177428D01*
X116929030Y-100154329D01*
X116939520Y-100132150D01*
X116952132Y-100111107D01*
X116966747Y-100091401D01*
X116983223Y-100073223D01*
X117001401Y-100056747D01*
X117021107Y-100042132D01*
X117042150Y-100029520D01*
X117064329Y-100019030D01*
X117087428Y-100010765D01*
X117111227Y-100004804D01*
X117135495Y-100001204D01*
X117159999Y-100000000D01*
X118400001Y-100000000D01*
X118424505Y-100001204D01*
X118424505Y-100001204D01*
G37*
D16*
X117780000Y-101100000D03*
D23*
X115240000Y-101100000D03*
X112700000Y-101100000D03*
X110160000Y-101100000D03*
X107620000Y-101100000D03*
D24*
X136800000Y-94800000D03*
X112200000Y-115200000D03*
X93100000Y-114400000D03*
X109450000Y-83450000D03*
X128600000Y-95600000D03*
X105499998Y-96500000D03*
D25*
X124450000Y-118450000D03*
X129023002Y-106025000D03*
X132750000Y-118450000D03*
X115800000Y-110700000D03*
X113700000Y-108700000D03*
X105925000Y-107775000D03*
D24*
X111167519Y-82316472D03*
X140500000Y-98600000D03*
X132875000Y-101525000D03*
X112600000Y-113300000D03*
X91500000Y-112900000D03*
X109100000Y-113000000D03*
X100800000Y-122300000D03*
X106900011Y-96499998D03*
X122099996Y-94100000D03*
X124024761Y-92875239D03*
X140500000Y-93500000D03*
X135700000Y-90500000D03*
X136800000Y-99000000D03*
X131000000Y-96500000D03*
X113800003Y-93750010D03*
X111199998Y-96500000D03*
X86400000Y-94900000D03*
X110200004Y-98800000D03*
X121500000Y-85400000D03*
X114299998Y-82900000D03*
X120300000Y-86100000D03*
X115191519Y-84032479D03*
X119159978Y-86800000D03*
X116200000Y-84800000D03*
X130000000Y-94500000D03*
D26*
X112399998Y-83199998D03*
D25*
X130500000Y-110000000D03*
X130500000Y-110000000D03*
D24*
X135700000Y-95700000D03*
X134050000Y-106450000D03*
X131600000Y-105700000D03*
X126700000Y-99800000D03*
X126762500Y-102862500D03*
X122100000Y-104400000D03*
D27*
X110400000Y-89600000D02*
X110400000Y-84400000D01*
X136800000Y-93400000D02*
X136800000Y-94800000D01*
X129385037Y-96625000D02*
X132610037Y-93400000D01*
X132610037Y-93400000D02*
X136800000Y-93400000D01*
D28*
X107200000Y-101520000D02*
X107620000Y-101100000D01*
X107200000Y-106025000D02*
X107200000Y-101520000D01*
D27*
X93100000Y-114400000D02*
X93100000Y-112000000D01*
X109275000Y-89800000D02*
X109475000Y-89600000D01*
X108700000Y-89800000D02*
X109275000Y-89800000D01*
X109475000Y-89600000D02*
X110400000Y-89600000D01*
X110400000Y-84400000D02*
X109450000Y-83450000D01*
X109450000Y-83450000D02*
X109400000Y-83400000D01*
X128600000Y-96307106D02*
X128675000Y-96382106D01*
X128600000Y-95600000D02*
X128600000Y-96307106D01*
X128675000Y-96382106D02*
X128675000Y-96625000D01*
X128675000Y-96625000D02*
X129385037Y-96625000D01*
X108600000Y-89700000D02*
X108700000Y-89800000D01*
D29*
X112200000Y-115200000D02*
X112200000Y-115200000D01*
D27*
X105600000Y-89700000D02*
X108600000Y-89700000D01*
X121800000Y-92400000D02*
X121800000Y-92975000D01*
X121800000Y-92975000D02*
X121974999Y-93149999D01*
X121974999Y-93149999D02*
X122956003Y-93149999D01*
X122956003Y-93149999D02*
X125406004Y-95600000D01*
X119406004Y-89600000D02*
X119406004Y-90006004D01*
X119406004Y-90006004D02*
X121800000Y-92400000D01*
X125406004Y-95600000D02*
X127892894Y-95600000D01*
X110400000Y-89600000D02*
X119406004Y-89600000D01*
X127892894Y-95600000D02*
X128600000Y-95600000D01*
X126600000Y-96625000D02*
X128675000Y-96625000D01*
X115500000Y-119100000D02*
X115500000Y-118000000D01*
X115350000Y-119250000D02*
X115500000Y-119100000D01*
X105600000Y-92439962D02*
X105600000Y-96399998D01*
D29*
X121200000Y-115100000D02*
X121200000Y-117304177D01*
X123000000Y-118450000D02*
X124450000Y-118450000D01*
X124450000Y-118450000D02*
X124450000Y-118450000D01*
D27*
X95700000Y-111950000D02*
X97975000Y-111950000D01*
D29*
X129023002Y-106025000D02*
X129023002Y-106025000D01*
X107200000Y-106025000D02*
X129023002Y-106025000D01*
X129023002Y-106025000D02*
X132925010Y-109927008D01*
X118500000Y-115825000D02*
X118500000Y-115200000D01*
D27*
X137000000Y-94800000D02*
X136800000Y-94800000D01*
X105585048Y-92425010D02*
X105600000Y-92439962D01*
X105600000Y-89700000D02*
X105600000Y-90474990D01*
X105600000Y-90474990D02*
X105077722Y-90474990D01*
X105077722Y-90474990D02*
X104674990Y-90877722D01*
X104674990Y-92022278D02*
X105077722Y-92425010D01*
X105600000Y-96399998D02*
X105499998Y-96500000D01*
X104674990Y-90877722D02*
X104674990Y-92022278D01*
X105077722Y-92425010D02*
X105585048Y-92425010D01*
X93100000Y-112000000D02*
X93300000Y-111800000D01*
X93100000Y-114400000D02*
X93100000Y-114400000D01*
X95550000Y-111800000D02*
X95700000Y-111950000D01*
X93300000Y-111800000D02*
X95550000Y-111800000D01*
X106600000Y-119250000D02*
X115350000Y-119250000D01*
X117450000Y-118650000D02*
X117650000Y-118450000D01*
X115000000Y-121100000D02*
X117450000Y-118650000D01*
X106550000Y-119200000D02*
X106600000Y-119250000D01*
D30*
X116350000Y-119250000D02*
X117600000Y-118000000D01*
D29*
X132975000Y-118225000D02*
X132975000Y-116000000D01*
X132750000Y-118450000D02*
X132975000Y-118225000D01*
X112200000Y-115765685D02*
X112200000Y-115200000D01*
X112200000Y-117300000D02*
X112200000Y-115765685D01*
X112900000Y-118000000D02*
X112200000Y-117300000D01*
X115500000Y-118000000D02*
X112900000Y-118000000D01*
X116300000Y-119200000D02*
X116350000Y-119250000D01*
X104100000Y-119200000D02*
X116300000Y-119200000D01*
D30*
X114900000Y-120700000D02*
X116350000Y-119250000D01*
D29*
X118100000Y-118000000D02*
X118500000Y-117600000D01*
X118500000Y-117600000D02*
X118500000Y-115825000D01*
X115500000Y-118000000D02*
X118100000Y-118000000D01*
X121100000Y-115200000D02*
X121200000Y-115100000D01*
X118500000Y-115200000D02*
X121100000Y-115200000D01*
D30*
X117600000Y-118000000D02*
X118100000Y-118000000D01*
X114900000Y-121800000D02*
X114900000Y-120700000D01*
D29*
X132925010Y-115375010D02*
X132925010Y-109927008D01*
X132975000Y-115425000D02*
X132925010Y-115375010D01*
X132975000Y-116000000D02*
X132975000Y-115425000D01*
D27*
X97975000Y-111950000D02*
X98100000Y-112075000D01*
X104100000Y-119200000D02*
X106550000Y-119200000D01*
X112200000Y-115200000D02*
X112200000Y-115200000D01*
X111625000Y-106025000D02*
X111800000Y-106200000D01*
X107200000Y-106025000D02*
X111625000Y-106025000D01*
X111800000Y-106200000D02*
X115800000Y-106200000D01*
X119500000Y-106200000D02*
X119600000Y-106300000D01*
X115800000Y-106200000D02*
X119500000Y-106200000D01*
X128558002Y-106300000D02*
X120225000Y-106300000D01*
X120225000Y-106300000D02*
X119600000Y-106300000D01*
D29*
X122425000Y-118450000D02*
X123000000Y-118450000D01*
X122345823Y-118450000D02*
X122425000Y-118450000D01*
X121200000Y-117304177D02*
X122345823Y-118450000D01*
X115800000Y-107950000D02*
X115800000Y-110700000D01*
D31*
X115800000Y-110700000D02*
X115800000Y-110700000D01*
X115800000Y-110700000D02*
X115800000Y-110700000D01*
D29*
X113700000Y-108700000D02*
X113700000Y-108700000D01*
X113700000Y-108700000D02*
X113700000Y-108700000D01*
X107200000Y-107775000D02*
X105925000Y-107775000D01*
X105925000Y-107775000D02*
X105925000Y-107775000D01*
D27*
X121150000Y-113450000D02*
X121200000Y-113500000D01*
X118500000Y-113450000D02*
X121150000Y-113450000D01*
X128400000Y-116250000D02*
X128400000Y-116800000D01*
X125650000Y-113500000D02*
X128400000Y-116250000D01*
X115550000Y-113450000D02*
X115500000Y-113400000D01*
X118500000Y-113450000D02*
X115550000Y-113450000D01*
X121200000Y-113500000D02*
X123600000Y-113500000D01*
X123600000Y-113500000D02*
X125600000Y-113500000D01*
D29*
X118100000Y-113400000D02*
X115500000Y-113400000D01*
X126160002Y-113400000D02*
X118100000Y-113400000D01*
X128400000Y-115639998D02*
X126160002Y-113400000D01*
X128400000Y-116800000D02*
X128400000Y-115639998D01*
X125200000Y-113500000D02*
X119600000Y-107900000D01*
X125600000Y-113500000D02*
X125200000Y-113500000D01*
X107325000Y-107900000D02*
X107200000Y-107775000D01*
X119600000Y-107900000D02*
X107325000Y-107900000D01*
X112950000Y-107950000D02*
X113700000Y-108700000D01*
X111800000Y-107950000D02*
X112950000Y-107950000D01*
D27*
X125600000Y-113500000D02*
X125650000Y-113500000D01*
X115850000Y-107900000D02*
X115800000Y-107950000D01*
X119600000Y-107900000D02*
X115850000Y-107900000D01*
X115800000Y-107950000D02*
X111800000Y-107950000D01*
X107375000Y-107950000D02*
X107200000Y-107775000D01*
X111800000Y-107950000D02*
X107375000Y-107950000D01*
D31*
X113700000Y-108700000D02*
X113700000Y-108700000D01*
X115800000Y-110700000D02*
X115800000Y-110700000D01*
D29*
X128400000Y-113550000D02*
X128750000Y-113200000D01*
X128400000Y-116800000D02*
X128400000Y-113550000D01*
D27*
X111167519Y-82316472D02*
X111167519Y-86367519D01*
X132875000Y-101525000D02*
X131375000Y-101525000D01*
X112600000Y-113300000D02*
X111050000Y-113300000D01*
X91500000Y-112900000D02*
X91500000Y-112900000D01*
X101300000Y-117500000D02*
X101300000Y-121500000D01*
X101300000Y-121500000D02*
X101300000Y-122000000D01*
X101300000Y-122000000D02*
X101100000Y-122000000D01*
X101100000Y-122000000D02*
X100800000Y-122300000D01*
X100800000Y-122300000D02*
X100800000Y-122300000D01*
D28*
X98100000Y-108169671D02*
X107269671Y-99000000D01*
X108060000Y-99000000D02*
X110160000Y-101100000D01*
X107269671Y-99000000D02*
X108060000Y-99000000D01*
X98100000Y-110325000D02*
X98100000Y-108169671D01*
X104200000Y-117500000D02*
X104100000Y-117600000D01*
X106600000Y-117500000D02*
X104200000Y-117500000D01*
D27*
X112700000Y-113400000D02*
X112600000Y-113300000D01*
X131375000Y-101525000D02*
X130000000Y-100150000D01*
X132875000Y-101525000D02*
X132875000Y-101525000D01*
X140500000Y-93500000D02*
X140500000Y-93500000D01*
X140500000Y-98600000D02*
X140500000Y-98600000D01*
X111167519Y-86367519D02*
X113400000Y-88600000D01*
X119749522Y-88600000D02*
X123524762Y-92375240D01*
X123524762Y-92375240D02*
X124024761Y-92875239D01*
X113400000Y-88600000D02*
X119749522Y-88600000D01*
X140500000Y-93500000D02*
X140500000Y-98600000D01*
X111300009Y-92100000D02*
X119800000Y-92100000D01*
X106900011Y-96499998D02*
X111300009Y-92100000D01*
X119800000Y-92100000D02*
X121800000Y-94100000D01*
X121800000Y-94100000D02*
X122099996Y-94100000D01*
X111300000Y-82400000D02*
X111300000Y-82400000D01*
X104000000Y-117500000D02*
X104100000Y-117600000D01*
X101300000Y-117500000D02*
X104000000Y-117500000D01*
X115000000Y-115700000D02*
X112700000Y-113400000D01*
X115500000Y-115700000D02*
X115000000Y-115700000D01*
X109300000Y-115050000D02*
X109300000Y-115700000D01*
X111050000Y-113300000D02*
X109300000Y-115050000D01*
X112600000Y-113300000D02*
X112600000Y-113300000D01*
X93300000Y-110200000D02*
X95700000Y-110200000D01*
X97975000Y-110200000D02*
X98100000Y-110325000D01*
X95700000Y-110200000D02*
X97975000Y-110200000D01*
X109100000Y-113000000D02*
X109100000Y-113000000D01*
X91600000Y-110200000D02*
X93300000Y-110200000D01*
X91500000Y-110300000D02*
X91600000Y-110200000D01*
X101300000Y-117500000D02*
X91500000Y-117500000D01*
X91500000Y-117500000D02*
X91500000Y-112900000D01*
X91500000Y-112900000D02*
X91500000Y-110300000D01*
D28*
X98599072Y-110824072D02*
X98100000Y-110325000D01*
X98699912Y-110824072D02*
X98599072Y-110824072D01*
X100875840Y-113000000D02*
X98699912Y-110824072D01*
X109100000Y-113000000D02*
X100875840Y-113000000D01*
X108400000Y-115700000D02*
X106600000Y-117500000D01*
X109300000Y-115700000D02*
X108400000Y-115700000D01*
D27*
X135700000Y-90500000D02*
X137500000Y-90500000D01*
X137500000Y-90500000D02*
X137800000Y-90800000D01*
X136800000Y-98675736D02*
X137800000Y-97675736D01*
X136800000Y-99000000D02*
X136800000Y-98675736D01*
X137800000Y-97675736D02*
X137800000Y-90800000D01*
X136800000Y-99100000D02*
X136800000Y-99000000D01*
X135700000Y-90500000D02*
X135700000Y-90500000D01*
X129800000Y-98525000D02*
X129800000Y-97900000D01*
X129800000Y-97900000D02*
X129800000Y-97200000D01*
X112700000Y-100870000D02*
X112700000Y-101100000D01*
X115020001Y-98549999D02*
X112700000Y-100870000D01*
X130350001Y-98549999D02*
X115020001Y-98549999D01*
X129800000Y-97200000D02*
X130300000Y-97200000D01*
X130300000Y-97200000D02*
X131000000Y-96500000D01*
X131000000Y-96500000D02*
X131000000Y-96500000D01*
X113800003Y-93899995D02*
X113800003Y-93750010D01*
X111199998Y-96500000D02*
X113800003Y-93899995D01*
X86400000Y-94900000D02*
X89500001Y-98000001D01*
X86400000Y-94900000D02*
X86400000Y-94900000D01*
X109700005Y-98300001D02*
X110200004Y-98800000D01*
X109400005Y-98000001D02*
X109700005Y-98300001D01*
X89500001Y-98000001D02*
X109400005Y-98000001D01*
X119000000Y-82900000D02*
X114299998Y-82900000D01*
X121500000Y-85400000D02*
X119000000Y-82900000D01*
X115561519Y-84032479D02*
X115191519Y-84032479D01*
X115743999Y-83849999D02*
X115561519Y-84032479D01*
X116656001Y-83849999D02*
X115743999Y-83849999D01*
X118406003Y-85600001D02*
X116656001Y-83849999D01*
X120300000Y-86100000D02*
X119800001Y-85600001D01*
X119800001Y-85600001D02*
X118406003Y-85600001D01*
X118200000Y-86800000D02*
X116200000Y-84800000D01*
X119159978Y-86800000D02*
X118200000Y-86800000D01*
X112000000Y-83599996D02*
X112399998Y-83199998D01*
X113700000Y-87900000D02*
X112000000Y-86200000D01*
X112000000Y-86200000D02*
X112000000Y-83599996D01*
X130000000Y-94500000D02*
X123400000Y-87900000D01*
X123400000Y-87900000D02*
X113700000Y-87900000D01*
D29*
X126400000Y-116700000D02*
X126500000Y-116800000D01*
X123000000Y-116700000D02*
X126400000Y-116700000D01*
X127340000Y-119910000D02*
X127450000Y-119800000D01*
X127340000Y-123300000D02*
X127340000Y-119910000D01*
X127450000Y-119800000D02*
X127450000Y-119525010D01*
X127340000Y-123300000D02*
X129880000Y-123300000D01*
D27*
X130500000Y-114900000D02*
X131500000Y-115900000D01*
X130500000Y-113200000D02*
X130500000Y-114900000D01*
D29*
X131225000Y-114500000D02*
X131225000Y-115900000D01*
X130500000Y-113200000D02*
X130500000Y-113775000D01*
X130500000Y-113775000D02*
X131225000Y-114500000D01*
D28*
X130500000Y-113200000D02*
X130500000Y-110000000D01*
X130500000Y-110000000D02*
X130500000Y-110000000D01*
D27*
X134075010Y-106000726D02*
X134500000Y-105575736D01*
X134075010Y-106424990D02*
X134075010Y-106000726D01*
X134500000Y-105575736D02*
X134500000Y-97800000D01*
X134500000Y-97800000D02*
X134500000Y-96900000D01*
X134500000Y-96900000D02*
X135700000Y-95700000D01*
X135700000Y-95700000D02*
X135700000Y-95700000D01*
X131600000Y-105700000D02*
X131600000Y-105700000D01*
X127827712Y-99800000D02*
X126700000Y-99800000D01*
X131600000Y-105700000D02*
X131600000Y-103572288D01*
X131600000Y-103572288D02*
X127827712Y-99800000D01*
D32*
X122150000Y-104450000D02*
X122100000Y-104400000D01*
X125175000Y-104450000D02*
X126762500Y-102862500D01*
X122150000Y-104450000D02*
X125175000Y-104450000D01*
X126762500Y-102862500D02*
X126825000Y-102800000D01*
X122100000Y-104400000D02*
X122100000Y-104400000D01*
M02*
