M48
; DRILL file {KiCad 5.1.1-8be2ce7~80~ubuntu18.04.1} date sob, 20 kwi 2019, 15:40:28
; FORMAT={-:-/ absolute / inch / decimal}
; #@! TF.CreationDate,2019-04-20T15:40:28+02:00
; #@! TF.GenerationSoftware,Kicad,Pcbnew,5.1.1-8be2ce7~80~ubuntu18.04.1
FMAT,2
INCH
T1C0.0157
T2C0.0236
T3C0.0315
T4C0.0394
T5C0.0472
%
G90
G05
T1
X4.4252Y-3.2756
T2
X3.4016Y-3.7362
X3.6024Y-4.4449
X3.6654Y-4.5039
X3.9685Y-4.815
X4.1535Y-3.7992
X4.2087Y-3.7992
X4.2953Y-4.4488
X4.3091Y-3.2854
X4.3386Y-3.8898
X4.3767Y-3.2408
X4.378Y-3.7992
X4.4173Y-4.5354
X4.4331Y-4.4606
X4.4803Y-3.6909
X4.5Y-3.2638
X4.5351Y-3.3084
X4.5748Y-3.3386
X4.6913Y-3.4173
X4.7362Y-3.3898
X4.7835Y-3.3622
X4.8071Y-3.7047
X4.8071Y-4.1102
X4.8829Y-3.6565
X4.9882Y-3.9291
X4.9906Y-4.0497
X5.063Y-3.7638
X5.1181Y-3.7205
X5.1575Y-3.7992
X5.1811Y-4.1614
X5.2313Y-3.997
X5.2776Y-4.1909
X5.3425Y-3.563
X5.3425Y-3.7677
X5.3858Y-3.7323
X5.3858Y-3.8976
X5.5315Y-3.6811
X5.5315Y-3.8819
T3
X4.1703Y-4.2431
X4.4764Y-4.2795
X4.5591Y-4.3583
X4.8996Y-4.6634
X5.0796Y-4.1742
X5.1378Y-4.3307
X5.1378Y-4.3307
X5.2264Y-4.6634
T4
X4.5236Y-4.7953
X4.622Y-4.7953
X4.9134Y-4.8543
X5.0134Y-4.8543
X5.1134Y-4.8543
T5
X3.0984Y-4.6953
X3.0984Y-4.7953
X5.5945Y-4.6992
X5.5945Y-4.7992
X4.237Y-3.9803
X4.337Y-3.9803
X4.437Y-3.9803
X4.537Y-3.9803
X4.637Y-3.9803
T0
M30
