M48
; DRILL file {KiCad 5.1.1-8be2ce7~80~ubuntu18.04.1} date sob, 20 kwi 2019, 15:59:29
; FORMAT={-:-/ absolute / inch / decimal}
; #@! TF.CreationDate,2019-04-20T15:59:29+02:00
; #@! TF.GenerationSoftware,Kicad,Pcbnew,5.1.1-8be2ce7~80~ubuntu18.04.1
FMAT,2
INCH
T1C0.0236
T2C0.0402
%
G90
G05
T1
X1.2835Y-2.9646
X1.5551Y-2.9646
X2.0591Y-2.6732
X2.3346Y-2.6732
X2.8661Y-2.4921
X3.122Y-2.4921
X3.6299Y-2.4055
X3.9055Y-2.4055
X4.1929Y-2.4094
X4.3583Y-2.6378
X4.6102Y-2.2953
X4.8543Y-2.4173
X5.1181Y-2.4173
X5.6403Y-2.5025
X5.8937Y-2.4961
X6.4291Y-2.6732
X6.6811Y-2.6732
X7.2028Y-2.9705
X7.4685Y-2.9724
T2
X4.2858Y-2.3976
X4.3858Y-2.3976
X4.4858Y-2.3976
T0
M30
