G04 #@! TF.GenerationSoftware,KiCad,Pcbnew,5.1.1-8be2ce7~80~ubuntu18.04.1*
G04 #@! TF.CreationDate,2019-04-20T15:59:31+02:00*
G04 #@! TF.ProjectId,megazord,6d656761-7a6f-4726-942e-6b696361645f,rev?*
G04 #@! TF.SameCoordinates,Original*
G04 #@! TF.FileFunction,Copper,L2,Bot*
G04 #@! TF.FilePolarity,Positive*
%FSLAX46Y46*%
G04 Gerber Fmt 4.6, Leading zero omitted, Abs format (unit mm)*
G04 Created by KiCad (PCBNEW 5.1.1-8be2ce7~80~ubuntu18.04.1) date 2019-04-20 15:59:31*
%MOMM*%
%LPD*%
G04 APERTURE LIST*
%ADD10C,0.300000*%
%ADD11C,0.100000*%
%ADD12C,0.950000*%
%ADD13R,1.300000X0.600000*%
%ADD14R,1.730000X2.030000*%
%ADD15O,1.730000X2.030000*%
%ADD16C,1.000000*%
%ADD17C,0.500000*%
G04 APERTURE END LIST*
D10*
X103850000Y-58704761D02*
X103850000Y-56704761D01*
X103350000Y-58133333D01*
X102850000Y-56704761D01*
X102850000Y-58704761D01*
X102135714Y-58704761D02*
X102135714Y-57371428D01*
X102135714Y-56704761D02*
X102207142Y-56800000D01*
X102135714Y-56895238D01*
X102064285Y-56800000D01*
X102135714Y-56704761D01*
X102135714Y-56895238D01*
X100850000Y-58609523D02*
X100992857Y-58704761D01*
X101278571Y-58704761D01*
X101421428Y-58609523D01*
X101492857Y-58419047D01*
X101492857Y-57657142D01*
X101421428Y-57466666D01*
X101278571Y-57371428D01*
X100992857Y-57371428D01*
X100850000Y-57466666D01*
X100778571Y-57657142D01*
X100778571Y-57847619D01*
X101492857Y-58038095D01*
X100135714Y-58704761D02*
X100135714Y-57371428D01*
X100135714Y-57752380D02*
X100064285Y-57561904D01*
X99992857Y-57466666D01*
X99850000Y-57371428D01*
X99707142Y-57371428D01*
X99207142Y-57371428D02*
X99207142Y-58704761D01*
X99207142Y-57561904D02*
X99135714Y-57466666D01*
X98992857Y-57371428D01*
X98778571Y-57371428D01*
X98635714Y-57466666D01*
X98564285Y-57657142D01*
X98564285Y-58704761D01*
X97850000Y-58704761D02*
X97850000Y-57371428D01*
X97850000Y-56704761D02*
X97921428Y-56800000D01*
X97850000Y-56895238D01*
X97778571Y-56800000D01*
X97850000Y-56704761D01*
X97850000Y-56895238D01*
X96492857Y-58609523D02*
X96635714Y-58704761D01*
X96921428Y-58704761D01*
X97064285Y-58609523D01*
X97135714Y-58514285D01*
X97207142Y-58323809D01*
X97207142Y-57752380D01*
X97135714Y-57561904D01*
X97064285Y-57466666D01*
X96921428Y-57371428D01*
X96635714Y-57371428D01*
X96492857Y-57466666D01*
X96064285Y-57371428D02*
X95492857Y-57371428D01*
X95850000Y-56704761D02*
X95850000Y-58419047D01*
X95778571Y-58609523D01*
X95635714Y-58704761D01*
X95492857Y-58704761D01*
X95135714Y-57371428D02*
X94850000Y-58704761D01*
X94564285Y-57752380D01*
X94278571Y-58704761D01*
X93992857Y-57371428D01*
X93207142Y-58704761D02*
X93350000Y-58609523D01*
X93421428Y-58514285D01*
X93492857Y-58323809D01*
X93492857Y-57752380D01*
X93421428Y-57561904D01*
X93350000Y-57466666D01*
X93207142Y-57371428D01*
X92992857Y-57371428D01*
X92850000Y-57466666D01*
X92778571Y-57561904D01*
X92707142Y-57752380D01*
X92707142Y-58323809D01*
X92778571Y-58514285D01*
X92850000Y-58609523D01*
X92992857Y-58704761D01*
X93207142Y-58704761D01*
X90992857Y-56895238D02*
X90921428Y-56800000D01*
X90778571Y-56704761D01*
X90421428Y-56704761D01*
X90278571Y-56800000D01*
X90207142Y-56895238D01*
X90135714Y-57085714D01*
X90135714Y-57276190D01*
X90207142Y-57561904D01*
X91064285Y-58704761D01*
X90135714Y-58704761D01*
X88350000Y-57371428D02*
X88350000Y-59371428D01*
X88350000Y-57466666D02*
X88207142Y-57371428D01*
X87921428Y-57371428D01*
X87778571Y-57466666D01*
X87707142Y-57561904D01*
X87635714Y-57752380D01*
X87635714Y-58323809D01*
X87707142Y-58514285D01*
X87778571Y-58609523D01*
X87921428Y-58704761D01*
X88207142Y-58704761D01*
X88350000Y-58609523D01*
X86992857Y-58704761D02*
X86992857Y-57371428D01*
X86992857Y-57752380D02*
X86921428Y-57561904D01*
X86850000Y-57466666D01*
X86707142Y-57371428D01*
X86564285Y-57371428D01*
X85850000Y-58704761D02*
X85992857Y-58609523D01*
X86064285Y-58514285D01*
X86135714Y-58323809D01*
X86135714Y-57752380D01*
X86064285Y-57561904D01*
X85992857Y-57466666D01*
X85850000Y-57371428D01*
X85635714Y-57371428D01*
X85492857Y-57466666D01*
X85421428Y-57561904D01*
X85350000Y-57752380D01*
X85350000Y-58323809D01*
X85421428Y-58514285D01*
X85492857Y-58609523D01*
X85635714Y-58704761D01*
X85850000Y-58704761D01*
X84707142Y-57371428D02*
X84707142Y-59085714D01*
X84778571Y-59276190D01*
X84921428Y-59371428D01*
X84992857Y-59371428D01*
X84707142Y-56704761D02*
X84778571Y-56800000D01*
X84707142Y-56895238D01*
X84635714Y-56800000D01*
X84707142Y-56704761D01*
X84707142Y-56895238D01*
X83421428Y-58609523D02*
X83564285Y-58704761D01*
X83850000Y-58704761D01*
X83992857Y-58609523D01*
X84064285Y-58419047D01*
X84064285Y-57657142D01*
X83992857Y-57466666D01*
X83850000Y-57371428D01*
X83564285Y-57371428D01*
X83421428Y-57466666D01*
X83350000Y-57657142D01*
X83350000Y-57847619D01*
X84064285Y-58038095D01*
X82707142Y-58704761D02*
X82707142Y-56704761D01*
X82564285Y-57942857D02*
X82135714Y-58704761D01*
X82135714Y-57371428D02*
X82707142Y-58133333D01*
X81707142Y-57371428D02*
X81135714Y-57371428D01*
X81492857Y-56704761D02*
X81492857Y-58419047D01*
X81421428Y-58609523D01*
X81278571Y-58704761D01*
X81135714Y-58704761D01*
X115914285Y-72695238D02*
X115842857Y-72600000D01*
X115700000Y-72504761D01*
X115342857Y-72504761D01*
X115200000Y-72600000D01*
X115128571Y-72695238D01*
X115057142Y-72885714D01*
X115057142Y-73076190D01*
X115128571Y-73361904D01*
X115985714Y-74504761D01*
X115057142Y-74504761D01*
X114128571Y-72504761D02*
X113985714Y-72504761D01*
X113842857Y-72600000D01*
X113771428Y-72695238D01*
X113700000Y-72885714D01*
X113628571Y-73266666D01*
X113628571Y-73742857D01*
X113700000Y-74123809D01*
X113771428Y-74314285D01*
X113842857Y-74409523D01*
X113985714Y-74504761D01*
X114128571Y-74504761D01*
X114271428Y-74409523D01*
X114342857Y-74314285D01*
X114414285Y-74123809D01*
X114485714Y-73742857D01*
X114485714Y-73266666D01*
X114414285Y-72885714D01*
X114342857Y-72695238D01*
X114271428Y-72600000D01*
X114128571Y-72504761D01*
X112985714Y-74314285D02*
X112914285Y-74409523D01*
X112985714Y-74504761D01*
X113057142Y-74409523D01*
X112985714Y-74314285D01*
X112985714Y-74504761D01*
X111985714Y-72504761D02*
X111842857Y-72504761D01*
X111700000Y-72600000D01*
X111628571Y-72695238D01*
X111557142Y-72885714D01*
X111485714Y-73266666D01*
X111485714Y-73742857D01*
X111557142Y-74123809D01*
X111628571Y-74314285D01*
X111700000Y-74409523D01*
X111842857Y-74504761D01*
X111985714Y-74504761D01*
X112128571Y-74409523D01*
X112200000Y-74314285D01*
X112271428Y-74123809D01*
X112342857Y-73742857D01*
X112342857Y-73266666D01*
X112271428Y-72885714D01*
X112200000Y-72695238D01*
X112128571Y-72600000D01*
X111985714Y-72504761D01*
X110200000Y-73171428D02*
X110200000Y-74504761D01*
X110557142Y-72409523D02*
X110914285Y-73838095D01*
X109985714Y-73838095D01*
X109414285Y-74314285D02*
X109342857Y-74409523D01*
X109414285Y-74504761D01*
X109485714Y-74409523D01*
X109414285Y-74314285D01*
X109414285Y-74504761D01*
X107914285Y-74504761D02*
X108771428Y-74504761D01*
X108342857Y-74504761D02*
X108342857Y-72504761D01*
X108485714Y-72790476D01*
X108628571Y-72980952D01*
X108771428Y-73076190D01*
X107200000Y-74504761D02*
X106914285Y-74504761D01*
X106771428Y-74409523D01*
X106700000Y-74314285D01*
X106557142Y-74028571D01*
X106485714Y-73647619D01*
X106485714Y-72885714D01*
X106557142Y-72695238D01*
X106628571Y-72600000D01*
X106771428Y-72504761D01*
X107057142Y-72504761D01*
X107200000Y-72600000D01*
X107271428Y-72695238D01*
X107342857Y-72885714D01*
X107342857Y-73361904D01*
X107271428Y-73552380D01*
X107200000Y-73647619D01*
X107057142Y-73742857D01*
X106771428Y-73742857D01*
X106628571Y-73647619D01*
X106557142Y-73552380D01*
X106485714Y-73361904D01*
X142342857Y-58504761D02*
X142342857Y-56504761D01*
X141771428Y-56504761D01*
X141628571Y-56600000D01*
X141557142Y-56695238D01*
X141485714Y-56885714D01*
X141485714Y-57171428D01*
X141557142Y-57361904D01*
X141628571Y-57457142D01*
X141771428Y-57552380D01*
X142342857Y-57552380D01*
X140200000Y-58504761D02*
X140200000Y-57457142D01*
X140271428Y-57266666D01*
X140414285Y-57171428D01*
X140700000Y-57171428D01*
X140842857Y-57266666D01*
X140200000Y-58409523D02*
X140342857Y-58504761D01*
X140700000Y-58504761D01*
X140842857Y-58409523D01*
X140914285Y-58219047D01*
X140914285Y-58028571D01*
X140842857Y-57838095D01*
X140700000Y-57742857D01*
X140342857Y-57742857D01*
X140200000Y-57647619D01*
X139700000Y-57171428D02*
X139128571Y-57171428D01*
X139485714Y-56504761D02*
X139485714Y-58219047D01*
X139414285Y-58409523D01*
X139271428Y-58504761D01*
X139128571Y-58504761D01*
X138628571Y-58504761D02*
X138628571Y-57171428D01*
X138628571Y-57552380D02*
X138557142Y-57361904D01*
X138485714Y-57266666D01*
X138342857Y-57171428D01*
X138200000Y-57171428D01*
X137842857Y-57171428D02*
X137485714Y-58504761D01*
X137128571Y-57171428D02*
X137485714Y-58504761D01*
X137628571Y-58980952D01*
X137700000Y-59076190D01*
X137842857Y-59171428D01*
X136557142Y-58504761D02*
X136557142Y-56504761D01*
X136414285Y-57742857D02*
X135985714Y-58504761D01*
X135985714Y-57171428D02*
X136557142Y-57933333D01*
X134271428Y-58409523D02*
X134057142Y-58504761D01*
X133700000Y-58504761D01*
X133557142Y-58409523D01*
X133485714Y-58314285D01*
X133414285Y-58123809D01*
X133414285Y-57933333D01*
X133485714Y-57742857D01*
X133557142Y-57647619D01*
X133700000Y-57552380D01*
X133985714Y-57457142D01*
X134128571Y-57361904D01*
X134200000Y-57266666D01*
X134271428Y-57076190D01*
X134271428Y-56885714D01*
X134200000Y-56695238D01*
X134128571Y-56600000D01*
X133985714Y-56504761D01*
X133628571Y-56504761D01*
X133414285Y-56600000D01*
X132914285Y-57171428D02*
X132128571Y-57171428D01*
X132914285Y-58504761D01*
X132128571Y-58504761D01*
X131700000Y-57171428D02*
X131342857Y-58504761D01*
X130985714Y-57171428D02*
X131342857Y-58504761D01*
X131485714Y-58980952D01*
X131557142Y-59076190D01*
X131700000Y-59171428D01*
X129771428Y-58504761D02*
X129771428Y-56504761D01*
X129771428Y-58409523D02*
X129914285Y-58504761D01*
X130200000Y-58504761D01*
X130342857Y-58409523D01*
X130414285Y-58314285D01*
X130485714Y-58123809D01*
X130485714Y-57552380D01*
X130414285Y-57361904D01*
X130342857Y-57266666D01*
X130200000Y-57171428D01*
X129914285Y-57171428D01*
X129771428Y-57266666D01*
X128842857Y-58504761D02*
X128985714Y-58409523D01*
X129057142Y-58219047D01*
X129057142Y-56504761D01*
X128271428Y-58504761D02*
X128271428Y-57171428D01*
X128271428Y-56504761D02*
X128342857Y-56600000D01*
X128271428Y-56695238D01*
X128200000Y-56600000D01*
X128271428Y-56504761D01*
X128271428Y-56695238D01*
X127557142Y-58504761D02*
X127557142Y-56504761D01*
X127414285Y-57742857D02*
X126985714Y-58504761D01*
X126985714Y-57171428D02*
X127557142Y-57933333D01*
D11*
G36*
X36460779Y-74826144D02*
G01*
X36483834Y-74829563D01*
X36506443Y-74835227D01*
X36528387Y-74843079D01*
X36549457Y-74853044D01*
X36569448Y-74865026D01*
X36588168Y-74878910D01*
X36605438Y-74894562D01*
X36621090Y-74911832D01*
X36634974Y-74930552D01*
X36646956Y-74950543D01*
X36656921Y-74971613D01*
X36664773Y-74993557D01*
X36670437Y-75016166D01*
X36673856Y-75039221D01*
X36675000Y-75062500D01*
X36675000Y-75537500D01*
X36673856Y-75560779D01*
X36670437Y-75583834D01*
X36664773Y-75606443D01*
X36656921Y-75628387D01*
X36646956Y-75649457D01*
X36634974Y-75669448D01*
X36621090Y-75688168D01*
X36605438Y-75705438D01*
X36588168Y-75721090D01*
X36569448Y-75734974D01*
X36549457Y-75746956D01*
X36528387Y-75756921D01*
X36506443Y-75764773D01*
X36483834Y-75770437D01*
X36460779Y-75773856D01*
X36437500Y-75775000D01*
X35862500Y-75775000D01*
X35839221Y-75773856D01*
X35816166Y-75770437D01*
X35793557Y-75764773D01*
X35771613Y-75756921D01*
X35750543Y-75746956D01*
X35730552Y-75734974D01*
X35711832Y-75721090D01*
X35694562Y-75705438D01*
X35678910Y-75688168D01*
X35665026Y-75669448D01*
X35653044Y-75649457D01*
X35643079Y-75628387D01*
X35635227Y-75606443D01*
X35629563Y-75583834D01*
X35626144Y-75560779D01*
X35625000Y-75537500D01*
X35625000Y-75062500D01*
X35626144Y-75039221D01*
X35629563Y-75016166D01*
X35635227Y-74993557D01*
X35643079Y-74971613D01*
X35653044Y-74950543D01*
X35665026Y-74930552D01*
X35678910Y-74911832D01*
X35694562Y-74894562D01*
X35711832Y-74878910D01*
X35730552Y-74865026D01*
X35750543Y-74853044D01*
X35771613Y-74843079D01*
X35793557Y-74835227D01*
X35816166Y-74829563D01*
X35839221Y-74826144D01*
X35862500Y-74825000D01*
X36437500Y-74825000D01*
X36460779Y-74826144D01*
X36460779Y-74826144D01*
G37*
D12*
X36150000Y-75300000D03*
D11*
G36*
X34710779Y-74826144D02*
G01*
X34733834Y-74829563D01*
X34756443Y-74835227D01*
X34778387Y-74843079D01*
X34799457Y-74853044D01*
X34819448Y-74865026D01*
X34838168Y-74878910D01*
X34855438Y-74894562D01*
X34871090Y-74911832D01*
X34884974Y-74930552D01*
X34896956Y-74950543D01*
X34906921Y-74971613D01*
X34914773Y-74993557D01*
X34920437Y-75016166D01*
X34923856Y-75039221D01*
X34925000Y-75062500D01*
X34925000Y-75537500D01*
X34923856Y-75560779D01*
X34920437Y-75583834D01*
X34914773Y-75606443D01*
X34906921Y-75628387D01*
X34896956Y-75649457D01*
X34884974Y-75669448D01*
X34871090Y-75688168D01*
X34855438Y-75705438D01*
X34838168Y-75721090D01*
X34819448Y-75734974D01*
X34799457Y-75746956D01*
X34778387Y-75756921D01*
X34756443Y-75764773D01*
X34733834Y-75770437D01*
X34710779Y-75773856D01*
X34687500Y-75775000D01*
X34112500Y-75775000D01*
X34089221Y-75773856D01*
X34066166Y-75770437D01*
X34043557Y-75764773D01*
X34021613Y-75756921D01*
X34000543Y-75746956D01*
X33980552Y-75734974D01*
X33961832Y-75721090D01*
X33944562Y-75705438D01*
X33928910Y-75688168D01*
X33915026Y-75669448D01*
X33903044Y-75649457D01*
X33893079Y-75628387D01*
X33885227Y-75606443D01*
X33879563Y-75583834D01*
X33876144Y-75560779D01*
X33875000Y-75537500D01*
X33875000Y-75062500D01*
X33876144Y-75039221D01*
X33879563Y-75016166D01*
X33885227Y-74993557D01*
X33893079Y-74971613D01*
X33903044Y-74950543D01*
X33915026Y-74930552D01*
X33928910Y-74911832D01*
X33944562Y-74894562D01*
X33961832Y-74878910D01*
X33980552Y-74865026D01*
X34000543Y-74853044D01*
X34021613Y-74843079D01*
X34043557Y-74835227D01*
X34066166Y-74829563D01*
X34089221Y-74826144D01*
X34112500Y-74825000D01*
X34687500Y-74825000D01*
X34710779Y-74826144D01*
X34710779Y-74826144D01*
G37*
D12*
X34400000Y-75300000D03*
D11*
G36*
X41460779Y-77876144D02*
G01*
X41483834Y-77879563D01*
X41506443Y-77885227D01*
X41528387Y-77893079D01*
X41549457Y-77903044D01*
X41569448Y-77915026D01*
X41588168Y-77928910D01*
X41605438Y-77944562D01*
X41621090Y-77961832D01*
X41634974Y-77980552D01*
X41646956Y-78000543D01*
X41656921Y-78021613D01*
X41664773Y-78043557D01*
X41670437Y-78066166D01*
X41673856Y-78089221D01*
X41675000Y-78112500D01*
X41675000Y-78687500D01*
X41673856Y-78710779D01*
X41670437Y-78733834D01*
X41664773Y-78756443D01*
X41656921Y-78778387D01*
X41646956Y-78799457D01*
X41634974Y-78819448D01*
X41621090Y-78838168D01*
X41605438Y-78855438D01*
X41588168Y-78871090D01*
X41569448Y-78884974D01*
X41549457Y-78896956D01*
X41528387Y-78906921D01*
X41506443Y-78914773D01*
X41483834Y-78920437D01*
X41460779Y-78923856D01*
X41437500Y-78925000D01*
X40962500Y-78925000D01*
X40939221Y-78923856D01*
X40916166Y-78920437D01*
X40893557Y-78914773D01*
X40871613Y-78906921D01*
X40850543Y-78896956D01*
X40830552Y-78884974D01*
X40811832Y-78871090D01*
X40794562Y-78855438D01*
X40778910Y-78838168D01*
X40765026Y-78819448D01*
X40753044Y-78799457D01*
X40743079Y-78778387D01*
X40735227Y-78756443D01*
X40729563Y-78733834D01*
X40726144Y-78710779D01*
X40725000Y-78687500D01*
X40725000Y-78112500D01*
X40726144Y-78089221D01*
X40729563Y-78066166D01*
X40735227Y-78043557D01*
X40743079Y-78021613D01*
X40753044Y-78000543D01*
X40765026Y-77980552D01*
X40778910Y-77961832D01*
X40794562Y-77944562D01*
X40811832Y-77928910D01*
X40830552Y-77915026D01*
X40850543Y-77903044D01*
X40871613Y-77893079D01*
X40893557Y-77885227D01*
X40916166Y-77879563D01*
X40939221Y-77876144D01*
X40962500Y-77875000D01*
X41437500Y-77875000D01*
X41460779Y-77876144D01*
X41460779Y-77876144D01*
G37*
D12*
X41200000Y-78400000D03*
D11*
G36*
X41460779Y-76126144D02*
G01*
X41483834Y-76129563D01*
X41506443Y-76135227D01*
X41528387Y-76143079D01*
X41549457Y-76153044D01*
X41569448Y-76165026D01*
X41588168Y-76178910D01*
X41605438Y-76194562D01*
X41621090Y-76211832D01*
X41634974Y-76230552D01*
X41646956Y-76250543D01*
X41656921Y-76271613D01*
X41664773Y-76293557D01*
X41670437Y-76316166D01*
X41673856Y-76339221D01*
X41675000Y-76362500D01*
X41675000Y-76937500D01*
X41673856Y-76960779D01*
X41670437Y-76983834D01*
X41664773Y-77006443D01*
X41656921Y-77028387D01*
X41646956Y-77049457D01*
X41634974Y-77069448D01*
X41621090Y-77088168D01*
X41605438Y-77105438D01*
X41588168Y-77121090D01*
X41569448Y-77134974D01*
X41549457Y-77146956D01*
X41528387Y-77156921D01*
X41506443Y-77164773D01*
X41483834Y-77170437D01*
X41460779Y-77173856D01*
X41437500Y-77175000D01*
X40962500Y-77175000D01*
X40939221Y-77173856D01*
X40916166Y-77170437D01*
X40893557Y-77164773D01*
X40871613Y-77156921D01*
X40850543Y-77146956D01*
X40830552Y-77134974D01*
X40811832Y-77121090D01*
X40794562Y-77105438D01*
X40778910Y-77088168D01*
X40765026Y-77069448D01*
X40753044Y-77049457D01*
X40743079Y-77028387D01*
X40735227Y-77006443D01*
X40729563Y-76983834D01*
X40726144Y-76960779D01*
X40725000Y-76937500D01*
X40725000Y-76362500D01*
X40726144Y-76339221D01*
X40729563Y-76316166D01*
X40735227Y-76293557D01*
X40743079Y-76271613D01*
X40753044Y-76250543D01*
X40765026Y-76230552D01*
X40778910Y-76211832D01*
X40794562Y-76194562D01*
X40811832Y-76178910D01*
X40830552Y-76165026D01*
X40850543Y-76153044D01*
X40871613Y-76143079D01*
X40893557Y-76135227D01*
X40916166Y-76129563D01*
X40939221Y-76126144D01*
X40962500Y-76125000D01*
X41437500Y-76125000D01*
X41460779Y-76126144D01*
X41460779Y-76126144D01*
G37*
D12*
X41200000Y-76650000D03*
D13*
X74335000Y-66705000D03*
X78265000Y-66705000D03*
X74335000Y-68505000D03*
X78265000Y-68505000D03*
D11*
G36*
X81460779Y-64326144D02*
G01*
X81483834Y-64329563D01*
X81506443Y-64335227D01*
X81528387Y-64343079D01*
X81549457Y-64353044D01*
X81569448Y-64365026D01*
X81588168Y-64378910D01*
X81605438Y-64394562D01*
X81621090Y-64411832D01*
X81634974Y-64430552D01*
X81646956Y-64450543D01*
X81656921Y-64471613D01*
X81664773Y-64493557D01*
X81670437Y-64516166D01*
X81673856Y-64539221D01*
X81675000Y-64562500D01*
X81675000Y-65137500D01*
X81673856Y-65160779D01*
X81670437Y-65183834D01*
X81664773Y-65206443D01*
X81656921Y-65228387D01*
X81646956Y-65249457D01*
X81634974Y-65269448D01*
X81621090Y-65288168D01*
X81605438Y-65305438D01*
X81588168Y-65321090D01*
X81569448Y-65334974D01*
X81549457Y-65346956D01*
X81528387Y-65356921D01*
X81506443Y-65364773D01*
X81483834Y-65370437D01*
X81460779Y-65373856D01*
X81437500Y-65375000D01*
X80962500Y-65375000D01*
X80939221Y-65373856D01*
X80916166Y-65370437D01*
X80893557Y-65364773D01*
X80871613Y-65356921D01*
X80850543Y-65346956D01*
X80830552Y-65334974D01*
X80811832Y-65321090D01*
X80794562Y-65305438D01*
X80778910Y-65288168D01*
X80765026Y-65269448D01*
X80753044Y-65249457D01*
X80743079Y-65228387D01*
X80735227Y-65206443D01*
X80729563Y-65183834D01*
X80726144Y-65160779D01*
X80725000Y-65137500D01*
X80725000Y-64562500D01*
X80726144Y-64539221D01*
X80729563Y-64516166D01*
X80735227Y-64493557D01*
X80743079Y-64471613D01*
X80753044Y-64450543D01*
X80765026Y-64430552D01*
X80778910Y-64411832D01*
X80794562Y-64394562D01*
X80811832Y-64378910D01*
X80830552Y-64365026D01*
X80850543Y-64353044D01*
X80871613Y-64343079D01*
X80893557Y-64335227D01*
X80916166Y-64329563D01*
X80939221Y-64326144D01*
X80962500Y-64325000D01*
X81437500Y-64325000D01*
X81460779Y-64326144D01*
X81460779Y-64326144D01*
G37*
D12*
X81200000Y-64850000D03*
D11*
G36*
X81460779Y-66076144D02*
G01*
X81483834Y-66079563D01*
X81506443Y-66085227D01*
X81528387Y-66093079D01*
X81549457Y-66103044D01*
X81569448Y-66115026D01*
X81588168Y-66128910D01*
X81605438Y-66144562D01*
X81621090Y-66161832D01*
X81634974Y-66180552D01*
X81646956Y-66200543D01*
X81656921Y-66221613D01*
X81664773Y-66243557D01*
X81670437Y-66266166D01*
X81673856Y-66289221D01*
X81675000Y-66312500D01*
X81675000Y-66887500D01*
X81673856Y-66910779D01*
X81670437Y-66933834D01*
X81664773Y-66956443D01*
X81656921Y-66978387D01*
X81646956Y-66999457D01*
X81634974Y-67019448D01*
X81621090Y-67038168D01*
X81605438Y-67055438D01*
X81588168Y-67071090D01*
X81569448Y-67084974D01*
X81549457Y-67096956D01*
X81528387Y-67106921D01*
X81506443Y-67114773D01*
X81483834Y-67120437D01*
X81460779Y-67123856D01*
X81437500Y-67125000D01*
X80962500Y-67125000D01*
X80939221Y-67123856D01*
X80916166Y-67120437D01*
X80893557Y-67114773D01*
X80871613Y-67106921D01*
X80850543Y-67096956D01*
X80830552Y-67084974D01*
X80811832Y-67071090D01*
X80794562Y-67055438D01*
X80778910Y-67038168D01*
X80765026Y-67019448D01*
X80753044Y-66999457D01*
X80743079Y-66978387D01*
X80735227Y-66956443D01*
X80729563Y-66933834D01*
X80726144Y-66910779D01*
X80725000Y-66887500D01*
X80725000Y-66312500D01*
X80726144Y-66289221D01*
X80729563Y-66266166D01*
X80735227Y-66243557D01*
X80743079Y-66221613D01*
X80753044Y-66200543D01*
X80765026Y-66180552D01*
X80778910Y-66161832D01*
X80794562Y-66144562D01*
X80811832Y-66128910D01*
X80830552Y-66115026D01*
X80850543Y-66103044D01*
X80871613Y-66093079D01*
X80893557Y-66085227D01*
X80916166Y-66079563D01*
X80939221Y-66076144D01*
X80962500Y-66075000D01*
X81437500Y-66075000D01*
X81460779Y-66076144D01*
X81460779Y-66076144D01*
G37*
D12*
X81200000Y-66600000D03*
D11*
G36*
X96210779Y-60626144D02*
G01*
X96233834Y-60629563D01*
X96256443Y-60635227D01*
X96278387Y-60643079D01*
X96299457Y-60653044D01*
X96319448Y-60665026D01*
X96338168Y-60678910D01*
X96355438Y-60694562D01*
X96371090Y-60711832D01*
X96384974Y-60730552D01*
X96396956Y-60750543D01*
X96406921Y-60771613D01*
X96414773Y-60793557D01*
X96420437Y-60816166D01*
X96423856Y-60839221D01*
X96425000Y-60862500D01*
X96425000Y-61337500D01*
X96423856Y-61360779D01*
X96420437Y-61383834D01*
X96414773Y-61406443D01*
X96406921Y-61428387D01*
X96396956Y-61449457D01*
X96384974Y-61469448D01*
X96371090Y-61488168D01*
X96355438Y-61505438D01*
X96338168Y-61521090D01*
X96319448Y-61534974D01*
X96299457Y-61546956D01*
X96278387Y-61556921D01*
X96256443Y-61564773D01*
X96233834Y-61570437D01*
X96210779Y-61573856D01*
X96187500Y-61575000D01*
X95612500Y-61575000D01*
X95589221Y-61573856D01*
X95566166Y-61570437D01*
X95543557Y-61564773D01*
X95521613Y-61556921D01*
X95500543Y-61546956D01*
X95480552Y-61534974D01*
X95461832Y-61521090D01*
X95444562Y-61505438D01*
X95428910Y-61488168D01*
X95415026Y-61469448D01*
X95403044Y-61449457D01*
X95393079Y-61428387D01*
X95385227Y-61406443D01*
X95379563Y-61383834D01*
X95376144Y-61360779D01*
X95375000Y-61337500D01*
X95375000Y-60862500D01*
X95376144Y-60839221D01*
X95379563Y-60816166D01*
X95385227Y-60793557D01*
X95393079Y-60771613D01*
X95403044Y-60750543D01*
X95415026Y-60730552D01*
X95428910Y-60711832D01*
X95444562Y-60694562D01*
X95461832Y-60678910D01*
X95480552Y-60665026D01*
X95500543Y-60653044D01*
X95521613Y-60643079D01*
X95543557Y-60635227D01*
X95566166Y-60629563D01*
X95589221Y-60626144D01*
X95612500Y-60625000D01*
X96187500Y-60625000D01*
X96210779Y-60626144D01*
X96210779Y-60626144D01*
G37*
D12*
X95900000Y-61100000D03*
D11*
G36*
X94460779Y-60626144D02*
G01*
X94483834Y-60629563D01*
X94506443Y-60635227D01*
X94528387Y-60643079D01*
X94549457Y-60653044D01*
X94569448Y-60665026D01*
X94588168Y-60678910D01*
X94605438Y-60694562D01*
X94621090Y-60711832D01*
X94634974Y-60730552D01*
X94646956Y-60750543D01*
X94656921Y-60771613D01*
X94664773Y-60793557D01*
X94670437Y-60816166D01*
X94673856Y-60839221D01*
X94675000Y-60862500D01*
X94675000Y-61337500D01*
X94673856Y-61360779D01*
X94670437Y-61383834D01*
X94664773Y-61406443D01*
X94656921Y-61428387D01*
X94646956Y-61449457D01*
X94634974Y-61469448D01*
X94621090Y-61488168D01*
X94605438Y-61505438D01*
X94588168Y-61521090D01*
X94569448Y-61534974D01*
X94549457Y-61546956D01*
X94528387Y-61556921D01*
X94506443Y-61564773D01*
X94483834Y-61570437D01*
X94460779Y-61573856D01*
X94437500Y-61575000D01*
X93862500Y-61575000D01*
X93839221Y-61573856D01*
X93816166Y-61570437D01*
X93793557Y-61564773D01*
X93771613Y-61556921D01*
X93750543Y-61546956D01*
X93730552Y-61534974D01*
X93711832Y-61521090D01*
X93694562Y-61505438D01*
X93678910Y-61488168D01*
X93665026Y-61469448D01*
X93653044Y-61449457D01*
X93643079Y-61428387D01*
X93635227Y-61406443D01*
X93629563Y-61383834D01*
X93626144Y-61360779D01*
X93625000Y-61337500D01*
X93625000Y-60862500D01*
X93626144Y-60839221D01*
X93629563Y-60816166D01*
X93635227Y-60793557D01*
X93643079Y-60771613D01*
X93653044Y-60750543D01*
X93665026Y-60730552D01*
X93678910Y-60711832D01*
X93694562Y-60694562D01*
X93711832Y-60678910D01*
X93730552Y-60665026D01*
X93750543Y-60653044D01*
X93771613Y-60643079D01*
X93793557Y-60635227D01*
X93816166Y-60629563D01*
X93839221Y-60626144D01*
X93862500Y-60625000D01*
X94437500Y-60625000D01*
X94460779Y-60626144D01*
X94460779Y-60626144D01*
G37*
D12*
X94150000Y-61100000D03*
D13*
X58300000Y-72800000D03*
X54370000Y-72800000D03*
X58300000Y-71000000D03*
X54370000Y-71000000D03*
D11*
G36*
X76610779Y-62826144D02*
G01*
X76633834Y-62829563D01*
X76656443Y-62835227D01*
X76678387Y-62843079D01*
X76699457Y-62853044D01*
X76719448Y-62865026D01*
X76738168Y-62878910D01*
X76755438Y-62894562D01*
X76771090Y-62911832D01*
X76784974Y-62930552D01*
X76796956Y-62950543D01*
X76806921Y-62971613D01*
X76814773Y-62993557D01*
X76820437Y-63016166D01*
X76823856Y-63039221D01*
X76825000Y-63062500D01*
X76825000Y-63537500D01*
X76823856Y-63560779D01*
X76820437Y-63583834D01*
X76814773Y-63606443D01*
X76806921Y-63628387D01*
X76796956Y-63649457D01*
X76784974Y-63669448D01*
X76771090Y-63688168D01*
X76755438Y-63705438D01*
X76738168Y-63721090D01*
X76719448Y-63734974D01*
X76699457Y-63746956D01*
X76678387Y-63756921D01*
X76656443Y-63764773D01*
X76633834Y-63770437D01*
X76610779Y-63773856D01*
X76587500Y-63775000D01*
X76012500Y-63775000D01*
X75989221Y-63773856D01*
X75966166Y-63770437D01*
X75943557Y-63764773D01*
X75921613Y-63756921D01*
X75900543Y-63746956D01*
X75880552Y-63734974D01*
X75861832Y-63721090D01*
X75844562Y-63705438D01*
X75828910Y-63688168D01*
X75815026Y-63669448D01*
X75803044Y-63649457D01*
X75793079Y-63628387D01*
X75785227Y-63606443D01*
X75779563Y-63583834D01*
X75776144Y-63560779D01*
X75775000Y-63537500D01*
X75775000Y-63062500D01*
X75776144Y-63039221D01*
X75779563Y-63016166D01*
X75785227Y-62993557D01*
X75793079Y-62971613D01*
X75803044Y-62950543D01*
X75815026Y-62930552D01*
X75828910Y-62911832D01*
X75844562Y-62894562D01*
X75861832Y-62878910D01*
X75880552Y-62865026D01*
X75900543Y-62853044D01*
X75921613Y-62843079D01*
X75943557Y-62835227D01*
X75966166Y-62829563D01*
X75989221Y-62826144D01*
X76012500Y-62825000D01*
X76587500Y-62825000D01*
X76610779Y-62826144D01*
X76610779Y-62826144D01*
G37*
D12*
X76300000Y-63300000D03*
D11*
G36*
X74860779Y-62826144D02*
G01*
X74883834Y-62829563D01*
X74906443Y-62835227D01*
X74928387Y-62843079D01*
X74949457Y-62853044D01*
X74969448Y-62865026D01*
X74988168Y-62878910D01*
X75005438Y-62894562D01*
X75021090Y-62911832D01*
X75034974Y-62930552D01*
X75046956Y-62950543D01*
X75056921Y-62971613D01*
X75064773Y-62993557D01*
X75070437Y-63016166D01*
X75073856Y-63039221D01*
X75075000Y-63062500D01*
X75075000Y-63537500D01*
X75073856Y-63560779D01*
X75070437Y-63583834D01*
X75064773Y-63606443D01*
X75056921Y-63628387D01*
X75046956Y-63649457D01*
X75034974Y-63669448D01*
X75021090Y-63688168D01*
X75005438Y-63705438D01*
X74988168Y-63721090D01*
X74969448Y-63734974D01*
X74949457Y-63746956D01*
X74928387Y-63756921D01*
X74906443Y-63764773D01*
X74883834Y-63770437D01*
X74860779Y-63773856D01*
X74837500Y-63775000D01*
X74262500Y-63775000D01*
X74239221Y-63773856D01*
X74216166Y-63770437D01*
X74193557Y-63764773D01*
X74171613Y-63756921D01*
X74150543Y-63746956D01*
X74130552Y-63734974D01*
X74111832Y-63721090D01*
X74094562Y-63705438D01*
X74078910Y-63688168D01*
X74065026Y-63669448D01*
X74053044Y-63649457D01*
X74043079Y-63628387D01*
X74035227Y-63606443D01*
X74029563Y-63583834D01*
X74026144Y-63560779D01*
X74025000Y-63537500D01*
X74025000Y-63062500D01*
X74026144Y-63039221D01*
X74029563Y-63016166D01*
X74035227Y-62993557D01*
X74043079Y-62971613D01*
X74053044Y-62950543D01*
X74065026Y-62930552D01*
X74078910Y-62911832D01*
X74094562Y-62894562D01*
X74111832Y-62878910D01*
X74130552Y-62865026D01*
X74150543Y-62853044D01*
X74171613Y-62843079D01*
X74193557Y-62835227D01*
X74216166Y-62829563D01*
X74239221Y-62826144D01*
X74262500Y-62825000D01*
X74837500Y-62825000D01*
X74860779Y-62826144D01*
X74860779Y-62826144D01*
G37*
D12*
X74550000Y-63300000D03*
D11*
G36*
X61460779Y-68426144D02*
G01*
X61483834Y-68429563D01*
X61506443Y-68435227D01*
X61528387Y-68443079D01*
X61549457Y-68453044D01*
X61569448Y-68465026D01*
X61588168Y-68478910D01*
X61605438Y-68494562D01*
X61621090Y-68511832D01*
X61634974Y-68530552D01*
X61646956Y-68550543D01*
X61656921Y-68571613D01*
X61664773Y-68593557D01*
X61670437Y-68616166D01*
X61673856Y-68639221D01*
X61675000Y-68662500D01*
X61675000Y-69237500D01*
X61673856Y-69260779D01*
X61670437Y-69283834D01*
X61664773Y-69306443D01*
X61656921Y-69328387D01*
X61646956Y-69349457D01*
X61634974Y-69369448D01*
X61621090Y-69388168D01*
X61605438Y-69405438D01*
X61588168Y-69421090D01*
X61569448Y-69434974D01*
X61549457Y-69446956D01*
X61528387Y-69456921D01*
X61506443Y-69464773D01*
X61483834Y-69470437D01*
X61460779Y-69473856D01*
X61437500Y-69475000D01*
X60962500Y-69475000D01*
X60939221Y-69473856D01*
X60916166Y-69470437D01*
X60893557Y-69464773D01*
X60871613Y-69456921D01*
X60850543Y-69446956D01*
X60830552Y-69434974D01*
X60811832Y-69421090D01*
X60794562Y-69405438D01*
X60778910Y-69388168D01*
X60765026Y-69369448D01*
X60753044Y-69349457D01*
X60743079Y-69328387D01*
X60735227Y-69306443D01*
X60729563Y-69283834D01*
X60726144Y-69260779D01*
X60725000Y-69237500D01*
X60725000Y-68662500D01*
X60726144Y-68639221D01*
X60729563Y-68616166D01*
X60735227Y-68593557D01*
X60743079Y-68571613D01*
X60753044Y-68550543D01*
X60765026Y-68530552D01*
X60778910Y-68511832D01*
X60794562Y-68494562D01*
X60811832Y-68478910D01*
X60830552Y-68465026D01*
X60850543Y-68453044D01*
X60871613Y-68443079D01*
X60893557Y-68435227D01*
X60916166Y-68429563D01*
X60939221Y-68426144D01*
X60962500Y-68425000D01*
X61437500Y-68425000D01*
X61460779Y-68426144D01*
X61460779Y-68426144D01*
G37*
D12*
X61200000Y-68950000D03*
D11*
G36*
X61460779Y-70176144D02*
G01*
X61483834Y-70179563D01*
X61506443Y-70185227D01*
X61528387Y-70193079D01*
X61549457Y-70203044D01*
X61569448Y-70215026D01*
X61588168Y-70228910D01*
X61605438Y-70244562D01*
X61621090Y-70261832D01*
X61634974Y-70280552D01*
X61646956Y-70300543D01*
X61656921Y-70321613D01*
X61664773Y-70343557D01*
X61670437Y-70366166D01*
X61673856Y-70389221D01*
X61675000Y-70412500D01*
X61675000Y-70987500D01*
X61673856Y-71010779D01*
X61670437Y-71033834D01*
X61664773Y-71056443D01*
X61656921Y-71078387D01*
X61646956Y-71099457D01*
X61634974Y-71119448D01*
X61621090Y-71138168D01*
X61605438Y-71155438D01*
X61588168Y-71171090D01*
X61569448Y-71184974D01*
X61549457Y-71196956D01*
X61528387Y-71206921D01*
X61506443Y-71214773D01*
X61483834Y-71220437D01*
X61460779Y-71223856D01*
X61437500Y-71225000D01*
X60962500Y-71225000D01*
X60939221Y-71223856D01*
X60916166Y-71220437D01*
X60893557Y-71214773D01*
X60871613Y-71206921D01*
X60850543Y-71196956D01*
X60830552Y-71184974D01*
X60811832Y-71171090D01*
X60794562Y-71155438D01*
X60778910Y-71138168D01*
X60765026Y-71119448D01*
X60753044Y-71099457D01*
X60743079Y-71078387D01*
X60735227Y-71056443D01*
X60729563Y-71033834D01*
X60726144Y-71010779D01*
X60725000Y-70987500D01*
X60725000Y-70412500D01*
X60726144Y-70389221D01*
X60729563Y-70366166D01*
X60735227Y-70343557D01*
X60743079Y-70321613D01*
X60753044Y-70300543D01*
X60765026Y-70280552D01*
X60778910Y-70261832D01*
X60794562Y-70244562D01*
X60811832Y-70228910D01*
X60830552Y-70215026D01*
X60850543Y-70203044D01*
X60871613Y-70193079D01*
X60893557Y-70185227D01*
X60916166Y-70179563D01*
X60939221Y-70176144D01*
X60962500Y-70175000D01*
X61437500Y-70175000D01*
X61460779Y-70176144D01*
X61460779Y-70176144D01*
G37*
D12*
X61200000Y-70700000D03*
D13*
X98130000Y-66400000D03*
X94200000Y-66400000D03*
X98130000Y-64600000D03*
X94200000Y-64600000D03*
D11*
G36*
X56510779Y-67426144D02*
G01*
X56533834Y-67429563D01*
X56556443Y-67435227D01*
X56578387Y-67443079D01*
X56599457Y-67453044D01*
X56619448Y-67465026D01*
X56638168Y-67478910D01*
X56655438Y-67494562D01*
X56671090Y-67511832D01*
X56684974Y-67530552D01*
X56696956Y-67550543D01*
X56706921Y-67571613D01*
X56714773Y-67593557D01*
X56720437Y-67616166D01*
X56723856Y-67639221D01*
X56725000Y-67662500D01*
X56725000Y-68137500D01*
X56723856Y-68160779D01*
X56720437Y-68183834D01*
X56714773Y-68206443D01*
X56706921Y-68228387D01*
X56696956Y-68249457D01*
X56684974Y-68269448D01*
X56671090Y-68288168D01*
X56655438Y-68305438D01*
X56638168Y-68321090D01*
X56619448Y-68334974D01*
X56599457Y-68346956D01*
X56578387Y-68356921D01*
X56556443Y-68364773D01*
X56533834Y-68370437D01*
X56510779Y-68373856D01*
X56487500Y-68375000D01*
X55912500Y-68375000D01*
X55889221Y-68373856D01*
X55866166Y-68370437D01*
X55843557Y-68364773D01*
X55821613Y-68356921D01*
X55800543Y-68346956D01*
X55780552Y-68334974D01*
X55761832Y-68321090D01*
X55744562Y-68305438D01*
X55728910Y-68288168D01*
X55715026Y-68269448D01*
X55703044Y-68249457D01*
X55693079Y-68228387D01*
X55685227Y-68206443D01*
X55679563Y-68183834D01*
X55676144Y-68160779D01*
X55675000Y-68137500D01*
X55675000Y-67662500D01*
X55676144Y-67639221D01*
X55679563Y-67616166D01*
X55685227Y-67593557D01*
X55693079Y-67571613D01*
X55703044Y-67550543D01*
X55715026Y-67530552D01*
X55728910Y-67511832D01*
X55744562Y-67494562D01*
X55761832Y-67478910D01*
X55780552Y-67465026D01*
X55800543Y-67453044D01*
X55821613Y-67443079D01*
X55843557Y-67435227D01*
X55866166Y-67429563D01*
X55889221Y-67426144D01*
X55912500Y-67425000D01*
X56487500Y-67425000D01*
X56510779Y-67426144D01*
X56510779Y-67426144D01*
G37*
D12*
X56200000Y-67900000D03*
D11*
G36*
X54760779Y-67426144D02*
G01*
X54783834Y-67429563D01*
X54806443Y-67435227D01*
X54828387Y-67443079D01*
X54849457Y-67453044D01*
X54869448Y-67465026D01*
X54888168Y-67478910D01*
X54905438Y-67494562D01*
X54921090Y-67511832D01*
X54934974Y-67530552D01*
X54946956Y-67550543D01*
X54956921Y-67571613D01*
X54964773Y-67593557D01*
X54970437Y-67616166D01*
X54973856Y-67639221D01*
X54975000Y-67662500D01*
X54975000Y-68137500D01*
X54973856Y-68160779D01*
X54970437Y-68183834D01*
X54964773Y-68206443D01*
X54956921Y-68228387D01*
X54946956Y-68249457D01*
X54934974Y-68269448D01*
X54921090Y-68288168D01*
X54905438Y-68305438D01*
X54888168Y-68321090D01*
X54869448Y-68334974D01*
X54849457Y-68346956D01*
X54828387Y-68356921D01*
X54806443Y-68364773D01*
X54783834Y-68370437D01*
X54760779Y-68373856D01*
X54737500Y-68375000D01*
X54162500Y-68375000D01*
X54139221Y-68373856D01*
X54116166Y-68370437D01*
X54093557Y-68364773D01*
X54071613Y-68356921D01*
X54050543Y-68346956D01*
X54030552Y-68334974D01*
X54011832Y-68321090D01*
X53994562Y-68305438D01*
X53978910Y-68288168D01*
X53965026Y-68269448D01*
X53953044Y-68249457D01*
X53943079Y-68228387D01*
X53935227Y-68206443D01*
X53929563Y-68183834D01*
X53926144Y-68160779D01*
X53925000Y-68137500D01*
X53925000Y-67662500D01*
X53926144Y-67639221D01*
X53929563Y-67616166D01*
X53935227Y-67593557D01*
X53943079Y-67571613D01*
X53953044Y-67550543D01*
X53965026Y-67530552D01*
X53978910Y-67511832D01*
X53994562Y-67494562D01*
X54011832Y-67478910D01*
X54030552Y-67465026D01*
X54050543Y-67453044D01*
X54071613Y-67443079D01*
X54093557Y-67435227D01*
X54116166Y-67429563D01*
X54139221Y-67426144D01*
X54162500Y-67425000D01*
X54737500Y-67425000D01*
X54760779Y-67426144D01*
X54760779Y-67426144D01*
G37*
D12*
X54450000Y-67900000D03*
D11*
G36*
X117660779Y-62826144D02*
G01*
X117683834Y-62829563D01*
X117706443Y-62835227D01*
X117728387Y-62843079D01*
X117749457Y-62853044D01*
X117769448Y-62865026D01*
X117788168Y-62878910D01*
X117805438Y-62894562D01*
X117821090Y-62911832D01*
X117834974Y-62930552D01*
X117846956Y-62950543D01*
X117856921Y-62971613D01*
X117864773Y-62993557D01*
X117870437Y-63016166D01*
X117873856Y-63039221D01*
X117875000Y-63062500D01*
X117875000Y-63637500D01*
X117873856Y-63660779D01*
X117870437Y-63683834D01*
X117864773Y-63706443D01*
X117856921Y-63728387D01*
X117846956Y-63749457D01*
X117834974Y-63769448D01*
X117821090Y-63788168D01*
X117805438Y-63805438D01*
X117788168Y-63821090D01*
X117769448Y-63834974D01*
X117749457Y-63846956D01*
X117728387Y-63856921D01*
X117706443Y-63864773D01*
X117683834Y-63870437D01*
X117660779Y-63873856D01*
X117637500Y-63875000D01*
X117162500Y-63875000D01*
X117139221Y-63873856D01*
X117116166Y-63870437D01*
X117093557Y-63864773D01*
X117071613Y-63856921D01*
X117050543Y-63846956D01*
X117030552Y-63834974D01*
X117011832Y-63821090D01*
X116994562Y-63805438D01*
X116978910Y-63788168D01*
X116965026Y-63769448D01*
X116953044Y-63749457D01*
X116943079Y-63728387D01*
X116935227Y-63706443D01*
X116929563Y-63683834D01*
X116926144Y-63660779D01*
X116925000Y-63637500D01*
X116925000Y-63062500D01*
X116926144Y-63039221D01*
X116929563Y-63016166D01*
X116935227Y-62993557D01*
X116943079Y-62971613D01*
X116953044Y-62950543D01*
X116965026Y-62930552D01*
X116978910Y-62911832D01*
X116994562Y-62894562D01*
X117011832Y-62878910D01*
X117030552Y-62865026D01*
X117050543Y-62853044D01*
X117071613Y-62843079D01*
X117093557Y-62835227D01*
X117116166Y-62829563D01*
X117139221Y-62826144D01*
X117162500Y-62825000D01*
X117637500Y-62825000D01*
X117660779Y-62826144D01*
X117660779Y-62826144D01*
G37*
D12*
X117400000Y-63350000D03*
D11*
G36*
X117660779Y-64576144D02*
G01*
X117683834Y-64579563D01*
X117706443Y-64585227D01*
X117728387Y-64593079D01*
X117749457Y-64603044D01*
X117769448Y-64615026D01*
X117788168Y-64628910D01*
X117805438Y-64644562D01*
X117821090Y-64661832D01*
X117834974Y-64680552D01*
X117846956Y-64700543D01*
X117856921Y-64721613D01*
X117864773Y-64743557D01*
X117870437Y-64766166D01*
X117873856Y-64789221D01*
X117875000Y-64812500D01*
X117875000Y-65387500D01*
X117873856Y-65410779D01*
X117870437Y-65433834D01*
X117864773Y-65456443D01*
X117856921Y-65478387D01*
X117846956Y-65499457D01*
X117834974Y-65519448D01*
X117821090Y-65538168D01*
X117805438Y-65555438D01*
X117788168Y-65571090D01*
X117769448Y-65584974D01*
X117749457Y-65596956D01*
X117728387Y-65606921D01*
X117706443Y-65614773D01*
X117683834Y-65620437D01*
X117660779Y-65623856D01*
X117637500Y-65625000D01*
X117162500Y-65625000D01*
X117139221Y-65623856D01*
X117116166Y-65620437D01*
X117093557Y-65614773D01*
X117071613Y-65606921D01*
X117050543Y-65596956D01*
X117030552Y-65584974D01*
X117011832Y-65571090D01*
X116994562Y-65555438D01*
X116978910Y-65538168D01*
X116965026Y-65519448D01*
X116953044Y-65499457D01*
X116943079Y-65478387D01*
X116935227Y-65456443D01*
X116929563Y-65433834D01*
X116926144Y-65410779D01*
X116925000Y-65387500D01*
X116925000Y-64812500D01*
X116926144Y-64789221D01*
X116929563Y-64766166D01*
X116935227Y-64743557D01*
X116943079Y-64721613D01*
X116953044Y-64700543D01*
X116965026Y-64680552D01*
X116978910Y-64661832D01*
X116994562Y-64644562D01*
X117011832Y-64628910D01*
X117030552Y-64615026D01*
X117050543Y-64603044D01*
X117071613Y-64593079D01*
X117093557Y-64585227D01*
X117116166Y-64579563D01*
X117139221Y-64576144D01*
X117162500Y-64575000D01*
X117637500Y-64575000D01*
X117660779Y-64576144D01*
X117660779Y-64576144D01*
G37*
D12*
X117400000Y-65100000D03*
D11*
G36*
X122260779Y-63926144D02*
G01*
X122283834Y-63929563D01*
X122306443Y-63935227D01*
X122328387Y-63943079D01*
X122349457Y-63953044D01*
X122369448Y-63965026D01*
X122388168Y-63978910D01*
X122405438Y-63994562D01*
X122421090Y-64011832D01*
X122434974Y-64030552D01*
X122446956Y-64050543D01*
X122456921Y-64071613D01*
X122464773Y-64093557D01*
X122470437Y-64116166D01*
X122473856Y-64139221D01*
X122475000Y-64162500D01*
X122475000Y-64737500D01*
X122473856Y-64760779D01*
X122470437Y-64783834D01*
X122464773Y-64806443D01*
X122456921Y-64828387D01*
X122446956Y-64849457D01*
X122434974Y-64869448D01*
X122421090Y-64888168D01*
X122405438Y-64905438D01*
X122388168Y-64921090D01*
X122369448Y-64934974D01*
X122349457Y-64946956D01*
X122328387Y-64956921D01*
X122306443Y-64964773D01*
X122283834Y-64970437D01*
X122260779Y-64973856D01*
X122237500Y-64975000D01*
X121762500Y-64975000D01*
X121739221Y-64973856D01*
X121716166Y-64970437D01*
X121693557Y-64964773D01*
X121671613Y-64956921D01*
X121650543Y-64946956D01*
X121630552Y-64934974D01*
X121611832Y-64921090D01*
X121594562Y-64905438D01*
X121578910Y-64888168D01*
X121565026Y-64869448D01*
X121553044Y-64849457D01*
X121543079Y-64828387D01*
X121535227Y-64806443D01*
X121529563Y-64783834D01*
X121526144Y-64760779D01*
X121525000Y-64737500D01*
X121525000Y-64162500D01*
X121526144Y-64139221D01*
X121529563Y-64116166D01*
X121535227Y-64093557D01*
X121543079Y-64071613D01*
X121553044Y-64050543D01*
X121565026Y-64030552D01*
X121578910Y-64011832D01*
X121594562Y-63994562D01*
X121611832Y-63978910D01*
X121630552Y-63965026D01*
X121650543Y-63953044D01*
X121671613Y-63943079D01*
X121693557Y-63935227D01*
X121716166Y-63929563D01*
X121739221Y-63926144D01*
X121762500Y-63925000D01*
X122237500Y-63925000D01*
X122260779Y-63926144D01*
X122260779Y-63926144D01*
G37*
D12*
X122000000Y-64450000D03*
D11*
G36*
X122260779Y-62176144D02*
G01*
X122283834Y-62179563D01*
X122306443Y-62185227D01*
X122328387Y-62193079D01*
X122349457Y-62203044D01*
X122369448Y-62215026D01*
X122388168Y-62228910D01*
X122405438Y-62244562D01*
X122421090Y-62261832D01*
X122434974Y-62280552D01*
X122446956Y-62300543D01*
X122456921Y-62321613D01*
X122464773Y-62343557D01*
X122470437Y-62366166D01*
X122473856Y-62389221D01*
X122475000Y-62412500D01*
X122475000Y-62987500D01*
X122473856Y-63010779D01*
X122470437Y-63033834D01*
X122464773Y-63056443D01*
X122456921Y-63078387D01*
X122446956Y-63099457D01*
X122434974Y-63119448D01*
X122421090Y-63138168D01*
X122405438Y-63155438D01*
X122388168Y-63171090D01*
X122369448Y-63184974D01*
X122349457Y-63196956D01*
X122328387Y-63206921D01*
X122306443Y-63214773D01*
X122283834Y-63220437D01*
X122260779Y-63223856D01*
X122237500Y-63225000D01*
X121762500Y-63225000D01*
X121739221Y-63223856D01*
X121716166Y-63220437D01*
X121693557Y-63214773D01*
X121671613Y-63206921D01*
X121650543Y-63196956D01*
X121630552Y-63184974D01*
X121611832Y-63171090D01*
X121594562Y-63155438D01*
X121578910Y-63138168D01*
X121565026Y-63119448D01*
X121553044Y-63099457D01*
X121543079Y-63078387D01*
X121535227Y-63056443D01*
X121529563Y-63033834D01*
X121526144Y-63010779D01*
X121525000Y-62987500D01*
X121525000Y-62412500D01*
X121526144Y-62389221D01*
X121529563Y-62366166D01*
X121535227Y-62343557D01*
X121543079Y-62321613D01*
X121553044Y-62300543D01*
X121565026Y-62280552D01*
X121578910Y-62261832D01*
X121594562Y-62244562D01*
X121611832Y-62228910D01*
X121630552Y-62215026D01*
X121650543Y-62203044D01*
X121671613Y-62193079D01*
X121693557Y-62185227D01*
X121716166Y-62179563D01*
X121739221Y-62176144D01*
X121762500Y-62175000D01*
X122237500Y-62175000D01*
X122260779Y-62176144D01*
X122260779Y-62176144D01*
G37*
D12*
X122000000Y-62700000D03*
D13*
X109470000Y-63500000D03*
X113400000Y-63500000D03*
X109470000Y-65300000D03*
X113400000Y-65300000D03*
D11*
G36*
X165510779Y-67426144D02*
G01*
X165533834Y-67429563D01*
X165556443Y-67435227D01*
X165578387Y-67443079D01*
X165599457Y-67453044D01*
X165619448Y-67465026D01*
X165638168Y-67478910D01*
X165655438Y-67494562D01*
X165671090Y-67511832D01*
X165684974Y-67530552D01*
X165696956Y-67550543D01*
X165706921Y-67571613D01*
X165714773Y-67593557D01*
X165720437Y-67616166D01*
X165723856Y-67639221D01*
X165725000Y-67662500D01*
X165725000Y-68137500D01*
X165723856Y-68160779D01*
X165720437Y-68183834D01*
X165714773Y-68206443D01*
X165706921Y-68228387D01*
X165696956Y-68249457D01*
X165684974Y-68269448D01*
X165671090Y-68288168D01*
X165655438Y-68305438D01*
X165638168Y-68321090D01*
X165619448Y-68334974D01*
X165599457Y-68346956D01*
X165578387Y-68356921D01*
X165556443Y-68364773D01*
X165533834Y-68370437D01*
X165510779Y-68373856D01*
X165487500Y-68375000D01*
X164912500Y-68375000D01*
X164889221Y-68373856D01*
X164866166Y-68370437D01*
X164843557Y-68364773D01*
X164821613Y-68356921D01*
X164800543Y-68346956D01*
X164780552Y-68334974D01*
X164761832Y-68321090D01*
X164744562Y-68305438D01*
X164728910Y-68288168D01*
X164715026Y-68269448D01*
X164703044Y-68249457D01*
X164693079Y-68228387D01*
X164685227Y-68206443D01*
X164679563Y-68183834D01*
X164676144Y-68160779D01*
X164675000Y-68137500D01*
X164675000Y-67662500D01*
X164676144Y-67639221D01*
X164679563Y-67616166D01*
X164685227Y-67593557D01*
X164693079Y-67571613D01*
X164703044Y-67550543D01*
X164715026Y-67530552D01*
X164728910Y-67511832D01*
X164744562Y-67494562D01*
X164761832Y-67478910D01*
X164780552Y-67465026D01*
X164800543Y-67453044D01*
X164821613Y-67443079D01*
X164843557Y-67435227D01*
X164866166Y-67429563D01*
X164889221Y-67426144D01*
X164912500Y-67425000D01*
X165487500Y-67425000D01*
X165510779Y-67426144D01*
X165510779Y-67426144D01*
G37*
D12*
X165200000Y-67900000D03*
D11*
G36*
X167260779Y-67426144D02*
G01*
X167283834Y-67429563D01*
X167306443Y-67435227D01*
X167328387Y-67443079D01*
X167349457Y-67453044D01*
X167369448Y-67465026D01*
X167388168Y-67478910D01*
X167405438Y-67494562D01*
X167421090Y-67511832D01*
X167434974Y-67530552D01*
X167446956Y-67550543D01*
X167456921Y-67571613D01*
X167464773Y-67593557D01*
X167470437Y-67616166D01*
X167473856Y-67639221D01*
X167475000Y-67662500D01*
X167475000Y-68137500D01*
X167473856Y-68160779D01*
X167470437Y-68183834D01*
X167464773Y-68206443D01*
X167456921Y-68228387D01*
X167446956Y-68249457D01*
X167434974Y-68269448D01*
X167421090Y-68288168D01*
X167405438Y-68305438D01*
X167388168Y-68321090D01*
X167369448Y-68334974D01*
X167349457Y-68346956D01*
X167328387Y-68356921D01*
X167306443Y-68364773D01*
X167283834Y-68370437D01*
X167260779Y-68373856D01*
X167237500Y-68375000D01*
X166662500Y-68375000D01*
X166639221Y-68373856D01*
X166616166Y-68370437D01*
X166593557Y-68364773D01*
X166571613Y-68356921D01*
X166550543Y-68346956D01*
X166530552Y-68334974D01*
X166511832Y-68321090D01*
X166494562Y-68305438D01*
X166478910Y-68288168D01*
X166465026Y-68269448D01*
X166453044Y-68249457D01*
X166443079Y-68228387D01*
X166435227Y-68206443D01*
X166429563Y-68183834D01*
X166426144Y-68160779D01*
X166425000Y-68137500D01*
X166425000Y-67662500D01*
X166426144Y-67639221D01*
X166429563Y-67616166D01*
X166435227Y-67593557D01*
X166443079Y-67571613D01*
X166453044Y-67550543D01*
X166465026Y-67530552D01*
X166478910Y-67511832D01*
X166494562Y-67494562D01*
X166511832Y-67478910D01*
X166530552Y-67465026D01*
X166550543Y-67453044D01*
X166571613Y-67443079D01*
X166593557Y-67435227D01*
X166616166Y-67429563D01*
X166639221Y-67426144D01*
X166662500Y-67425000D01*
X167237500Y-67425000D01*
X167260779Y-67426144D01*
X167260779Y-67426144D01*
G37*
D12*
X166950000Y-67900000D03*
D11*
G36*
X101160779Y-62201144D02*
G01*
X101183834Y-62204563D01*
X101206443Y-62210227D01*
X101228387Y-62218079D01*
X101249457Y-62228044D01*
X101269448Y-62240026D01*
X101288168Y-62253910D01*
X101305438Y-62269562D01*
X101321090Y-62286832D01*
X101334974Y-62305552D01*
X101346956Y-62325543D01*
X101356921Y-62346613D01*
X101364773Y-62368557D01*
X101370437Y-62391166D01*
X101373856Y-62414221D01*
X101375000Y-62437500D01*
X101375000Y-63012500D01*
X101373856Y-63035779D01*
X101370437Y-63058834D01*
X101364773Y-63081443D01*
X101356921Y-63103387D01*
X101346956Y-63124457D01*
X101334974Y-63144448D01*
X101321090Y-63163168D01*
X101305438Y-63180438D01*
X101288168Y-63196090D01*
X101269448Y-63209974D01*
X101249457Y-63221956D01*
X101228387Y-63231921D01*
X101206443Y-63239773D01*
X101183834Y-63245437D01*
X101160779Y-63248856D01*
X101137500Y-63250000D01*
X100662500Y-63250000D01*
X100639221Y-63248856D01*
X100616166Y-63245437D01*
X100593557Y-63239773D01*
X100571613Y-63231921D01*
X100550543Y-63221956D01*
X100530552Y-63209974D01*
X100511832Y-63196090D01*
X100494562Y-63180438D01*
X100478910Y-63163168D01*
X100465026Y-63144448D01*
X100453044Y-63124457D01*
X100443079Y-63103387D01*
X100435227Y-63081443D01*
X100429563Y-63058834D01*
X100426144Y-63035779D01*
X100425000Y-63012500D01*
X100425000Y-62437500D01*
X100426144Y-62414221D01*
X100429563Y-62391166D01*
X100435227Y-62368557D01*
X100443079Y-62346613D01*
X100453044Y-62325543D01*
X100465026Y-62305552D01*
X100478910Y-62286832D01*
X100494562Y-62269562D01*
X100511832Y-62253910D01*
X100530552Y-62240026D01*
X100550543Y-62228044D01*
X100571613Y-62218079D01*
X100593557Y-62210227D01*
X100616166Y-62204563D01*
X100639221Y-62201144D01*
X100662500Y-62200000D01*
X101137500Y-62200000D01*
X101160779Y-62201144D01*
X101160779Y-62201144D01*
G37*
D12*
X100900000Y-62725000D03*
D11*
G36*
X101160779Y-63951144D02*
G01*
X101183834Y-63954563D01*
X101206443Y-63960227D01*
X101228387Y-63968079D01*
X101249457Y-63978044D01*
X101269448Y-63990026D01*
X101288168Y-64003910D01*
X101305438Y-64019562D01*
X101321090Y-64036832D01*
X101334974Y-64055552D01*
X101346956Y-64075543D01*
X101356921Y-64096613D01*
X101364773Y-64118557D01*
X101370437Y-64141166D01*
X101373856Y-64164221D01*
X101375000Y-64187500D01*
X101375000Y-64762500D01*
X101373856Y-64785779D01*
X101370437Y-64808834D01*
X101364773Y-64831443D01*
X101356921Y-64853387D01*
X101346956Y-64874457D01*
X101334974Y-64894448D01*
X101321090Y-64913168D01*
X101305438Y-64930438D01*
X101288168Y-64946090D01*
X101269448Y-64959974D01*
X101249457Y-64971956D01*
X101228387Y-64981921D01*
X101206443Y-64989773D01*
X101183834Y-64995437D01*
X101160779Y-64998856D01*
X101137500Y-65000000D01*
X100662500Y-65000000D01*
X100639221Y-64998856D01*
X100616166Y-64995437D01*
X100593557Y-64989773D01*
X100571613Y-64981921D01*
X100550543Y-64971956D01*
X100530552Y-64959974D01*
X100511832Y-64946090D01*
X100494562Y-64930438D01*
X100478910Y-64913168D01*
X100465026Y-64894448D01*
X100453044Y-64874457D01*
X100443079Y-64853387D01*
X100435227Y-64831443D01*
X100429563Y-64808834D01*
X100426144Y-64785779D01*
X100425000Y-64762500D01*
X100425000Y-64187500D01*
X100426144Y-64164221D01*
X100429563Y-64141166D01*
X100435227Y-64118557D01*
X100443079Y-64096613D01*
X100453044Y-64075543D01*
X100465026Y-64055552D01*
X100478910Y-64036832D01*
X100494562Y-64019562D01*
X100511832Y-64003910D01*
X100530552Y-63990026D01*
X100550543Y-63978044D01*
X100571613Y-63968079D01*
X100593557Y-63960227D01*
X100616166Y-63954563D01*
X100639221Y-63951144D01*
X100662500Y-63950000D01*
X101137500Y-63950000D01*
X101160779Y-63951144D01*
X101160779Y-63951144D01*
G37*
D12*
X100900000Y-64475000D03*
D11*
G36*
X112010779Y-57826144D02*
G01*
X112033834Y-57829563D01*
X112056443Y-57835227D01*
X112078387Y-57843079D01*
X112099457Y-57853044D01*
X112119448Y-57865026D01*
X112138168Y-57878910D01*
X112155438Y-57894562D01*
X112171090Y-57911832D01*
X112184974Y-57930552D01*
X112196956Y-57950543D01*
X112206921Y-57971613D01*
X112214773Y-57993557D01*
X112220437Y-58016166D01*
X112223856Y-58039221D01*
X112225000Y-58062500D01*
X112225000Y-58537500D01*
X112223856Y-58560779D01*
X112220437Y-58583834D01*
X112214773Y-58606443D01*
X112206921Y-58628387D01*
X112196956Y-58649457D01*
X112184974Y-58669448D01*
X112171090Y-58688168D01*
X112155438Y-58705438D01*
X112138168Y-58721090D01*
X112119448Y-58734974D01*
X112099457Y-58746956D01*
X112078387Y-58756921D01*
X112056443Y-58764773D01*
X112033834Y-58770437D01*
X112010779Y-58773856D01*
X111987500Y-58775000D01*
X111412500Y-58775000D01*
X111389221Y-58773856D01*
X111366166Y-58770437D01*
X111343557Y-58764773D01*
X111321613Y-58756921D01*
X111300543Y-58746956D01*
X111280552Y-58734974D01*
X111261832Y-58721090D01*
X111244562Y-58705438D01*
X111228910Y-58688168D01*
X111215026Y-58669448D01*
X111203044Y-58649457D01*
X111193079Y-58628387D01*
X111185227Y-58606443D01*
X111179563Y-58583834D01*
X111176144Y-58560779D01*
X111175000Y-58537500D01*
X111175000Y-58062500D01*
X111176144Y-58039221D01*
X111179563Y-58016166D01*
X111185227Y-57993557D01*
X111193079Y-57971613D01*
X111203044Y-57950543D01*
X111215026Y-57930552D01*
X111228910Y-57911832D01*
X111244562Y-57894562D01*
X111261832Y-57878910D01*
X111280552Y-57865026D01*
X111300543Y-57853044D01*
X111321613Y-57843079D01*
X111343557Y-57835227D01*
X111366166Y-57829563D01*
X111389221Y-57826144D01*
X111412500Y-57825000D01*
X111987500Y-57825000D01*
X112010779Y-57826144D01*
X112010779Y-57826144D01*
G37*
D12*
X111700000Y-58300000D03*
D11*
G36*
X110260779Y-57826144D02*
G01*
X110283834Y-57829563D01*
X110306443Y-57835227D01*
X110328387Y-57843079D01*
X110349457Y-57853044D01*
X110369448Y-57865026D01*
X110388168Y-57878910D01*
X110405438Y-57894562D01*
X110421090Y-57911832D01*
X110434974Y-57930552D01*
X110446956Y-57950543D01*
X110456921Y-57971613D01*
X110464773Y-57993557D01*
X110470437Y-58016166D01*
X110473856Y-58039221D01*
X110475000Y-58062500D01*
X110475000Y-58537500D01*
X110473856Y-58560779D01*
X110470437Y-58583834D01*
X110464773Y-58606443D01*
X110456921Y-58628387D01*
X110446956Y-58649457D01*
X110434974Y-58669448D01*
X110421090Y-58688168D01*
X110405438Y-58705438D01*
X110388168Y-58721090D01*
X110369448Y-58734974D01*
X110349457Y-58746956D01*
X110328387Y-58756921D01*
X110306443Y-58764773D01*
X110283834Y-58770437D01*
X110260779Y-58773856D01*
X110237500Y-58775000D01*
X109662500Y-58775000D01*
X109639221Y-58773856D01*
X109616166Y-58770437D01*
X109593557Y-58764773D01*
X109571613Y-58756921D01*
X109550543Y-58746956D01*
X109530552Y-58734974D01*
X109511832Y-58721090D01*
X109494562Y-58705438D01*
X109478910Y-58688168D01*
X109465026Y-58669448D01*
X109453044Y-58649457D01*
X109443079Y-58628387D01*
X109435227Y-58606443D01*
X109429563Y-58583834D01*
X109426144Y-58560779D01*
X109425000Y-58537500D01*
X109425000Y-58062500D01*
X109426144Y-58039221D01*
X109429563Y-58016166D01*
X109435227Y-57993557D01*
X109443079Y-57971613D01*
X109453044Y-57950543D01*
X109465026Y-57930552D01*
X109478910Y-57911832D01*
X109494562Y-57894562D01*
X109511832Y-57878910D01*
X109530552Y-57865026D01*
X109550543Y-57853044D01*
X109571613Y-57843079D01*
X109593557Y-57835227D01*
X109616166Y-57829563D01*
X109639221Y-57826144D01*
X109662500Y-57825000D01*
X110237500Y-57825000D01*
X110260779Y-57826144D01*
X110260779Y-57826144D01*
G37*
D12*
X109950000Y-58300000D03*
D11*
G36*
X142060779Y-64501144D02*
G01*
X142083834Y-64504563D01*
X142106443Y-64510227D01*
X142128387Y-64518079D01*
X142149457Y-64528044D01*
X142169448Y-64540026D01*
X142188168Y-64553910D01*
X142205438Y-64569562D01*
X142221090Y-64586832D01*
X142234974Y-64605552D01*
X142246956Y-64625543D01*
X142256921Y-64646613D01*
X142264773Y-64668557D01*
X142270437Y-64691166D01*
X142273856Y-64714221D01*
X142275000Y-64737500D01*
X142275000Y-65312500D01*
X142273856Y-65335779D01*
X142270437Y-65358834D01*
X142264773Y-65381443D01*
X142256921Y-65403387D01*
X142246956Y-65424457D01*
X142234974Y-65444448D01*
X142221090Y-65463168D01*
X142205438Y-65480438D01*
X142188168Y-65496090D01*
X142169448Y-65509974D01*
X142149457Y-65521956D01*
X142128387Y-65531921D01*
X142106443Y-65539773D01*
X142083834Y-65545437D01*
X142060779Y-65548856D01*
X142037500Y-65550000D01*
X141562500Y-65550000D01*
X141539221Y-65548856D01*
X141516166Y-65545437D01*
X141493557Y-65539773D01*
X141471613Y-65531921D01*
X141450543Y-65521956D01*
X141430552Y-65509974D01*
X141411832Y-65496090D01*
X141394562Y-65480438D01*
X141378910Y-65463168D01*
X141365026Y-65444448D01*
X141353044Y-65424457D01*
X141343079Y-65403387D01*
X141335227Y-65381443D01*
X141329563Y-65358834D01*
X141326144Y-65335779D01*
X141325000Y-65312500D01*
X141325000Y-64737500D01*
X141326144Y-64714221D01*
X141329563Y-64691166D01*
X141335227Y-64668557D01*
X141343079Y-64646613D01*
X141353044Y-64625543D01*
X141365026Y-64605552D01*
X141378910Y-64586832D01*
X141394562Y-64569562D01*
X141411832Y-64553910D01*
X141430552Y-64540026D01*
X141450543Y-64528044D01*
X141471613Y-64518079D01*
X141493557Y-64510227D01*
X141516166Y-64504563D01*
X141539221Y-64501144D01*
X141562500Y-64500000D01*
X142037500Y-64500000D01*
X142060779Y-64501144D01*
X142060779Y-64501144D01*
G37*
D12*
X141800000Y-65025000D03*
D11*
G36*
X142060779Y-66251144D02*
G01*
X142083834Y-66254563D01*
X142106443Y-66260227D01*
X142128387Y-66268079D01*
X142149457Y-66278044D01*
X142169448Y-66290026D01*
X142188168Y-66303910D01*
X142205438Y-66319562D01*
X142221090Y-66336832D01*
X142234974Y-66355552D01*
X142246956Y-66375543D01*
X142256921Y-66396613D01*
X142264773Y-66418557D01*
X142270437Y-66441166D01*
X142273856Y-66464221D01*
X142275000Y-66487500D01*
X142275000Y-67062500D01*
X142273856Y-67085779D01*
X142270437Y-67108834D01*
X142264773Y-67131443D01*
X142256921Y-67153387D01*
X142246956Y-67174457D01*
X142234974Y-67194448D01*
X142221090Y-67213168D01*
X142205438Y-67230438D01*
X142188168Y-67246090D01*
X142169448Y-67259974D01*
X142149457Y-67271956D01*
X142128387Y-67281921D01*
X142106443Y-67289773D01*
X142083834Y-67295437D01*
X142060779Y-67298856D01*
X142037500Y-67300000D01*
X141562500Y-67300000D01*
X141539221Y-67298856D01*
X141516166Y-67295437D01*
X141493557Y-67289773D01*
X141471613Y-67281921D01*
X141450543Y-67271956D01*
X141430552Y-67259974D01*
X141411832Y-67246090D01*
X141394562Y-67230438D01*
X141378910Y-67213168D01*
X141365026Y-67194448D01*
X141353044Y-67174457D01*
X141343079Y-67153387D01*
X141335227Y-67131443D01*
X141329563Y-67108834D01*
X141326144Y-67085779D01*
X141325000Y-67062500D01*
X141325000Y-66487500D01*
X141326144Y-66464221D01*
X141329563Y-66441166D01*
X141335227Y-66418557D01*
X141343079Y-66396613D01*
X141353044Y-66375543D01*
X141365026Y-66355552D01*
X141378910Y-66336832D01*
X141394562Y-66319562D01*
X141411832Y-66303910D01*
X141430552Y-66290026D01*
X141450543Y-66278044D01*
X141471613Y-66268079D01*
X141493557Y-66260227D01*
X141516166Y-66254563D01*
X141539221Y-66251144D01*
X141562500Y-66250000D01*
X142037500Y-66250000D01*
X142060779Y-66251144D01*
X142060779Y-66251144D01*
G37*
D12*
X141800000Y-66775000D03*
D11*
G36*
X162060779Y-68701144D02*
G01*
X162083834Y-68704563D01*
X162106443Y-68710227D01*
X162128387Y-68718079D01*
X162149457Y-68728044D01*
X162169448Y-68740026D01*
X162188168Y-68753910D01*
X162205438Y-68769562D01*
X162221090Y-68786832D01*
X162234974Y-68805552D01*
X162246956Y-68825543D01*
X162256921Y-68846613D01*
X162264773Y-68868557D01*
X162270437Y-68891166D01*
X162273856Y-68914221D01*
X162275000Y-68937500D01*
X162275000Y-69512500D01*
X162273856Y-69535779D01*
X162270437Y-69558834D01*
X162264773Y-69581443D01*
X162256921Y-69603387D01*
X162246956Y-69624457D01*
X162234974Y-69644448D01*
X162221090Y-69663168D01*
X162205438Y-69680438D01*
X162188168Y-69696090D01*
X162169448Y-69709974D01*
X162149457Y-69721956D01*
X162128387Y-69731921D01*
X162106443Y-69739773D01*
X162083834Y-69745437D01*
X162060779Y-69748856D01*
X162037500Y-69750000D01*
X161562500Y-69750000D01*
X161539221Y-69748856D01*
X161516166Y-69745437D01*
X161493557Y-69739773D01*
X161471613Y-69731921D01*
X161450543Y-69721956D01*
X161430552Y-69709974D01*
X161411832Y-69696090D01*
X161394562Y-69680438D01*
X161378910Y-69663168D01*
X161365026Y-69644448D01*
X161353044Y-69624457D01*
X161343079Y-69603387D01*
X161335227Y-69581443D01*
X161329563Y-69558834D01*
X161326144Y-69535779D01*
X161325000Y-69512500D01*
X161325000Y-68937500D01*
X161326144Y-68914221D01*
X161329563Y-68891166D01*
X161335227Y-68868557D01*
X161343079Y-68846613D01*
X161353044Y-68825543D01*
X161365026Y-68805552D01*
X161378910Y-68786832D01*
X161394562Y-68769562D01*
X161411832Y-68753910D01*
X161430552Y-68740026D01*
X161450543Y-68728044D01*
X161471613Y-68718079D01*
X161493557Y-68710227D01*
X161516166Y-68704563D01*
X161539221Y-68701144D01*
X161562500Y-68700000D01*
X162037500Y-68700000D01*
X162060779Y-68701144D01*
X162060779Y-68701144D01*
G37*
D12*
X161800000Y-69225000D03*
D11*
G36*
X162060779Y-70451144D02*
G01*
X162083834Y-70454563D01*
X162106443Y-70460227D01*
X162128387Y-70468079D01*
X162149457Y-70478044D01*
X162169448Y-70490026D01*
X162188168Y-70503910D01*
X162205438Y-70519562D01*
X162221090Y-70536832D01*
X162234974Y-70555552D01*
X162246956Y-70575543D01*
X162256921Y-70596613D01*
X162264773Y-70618557D01*
X162270437Y-70641166D01*
X162273856Y-70664221D01*
X162275000Y-70687500D01*
X162275000Y-71262500D01*
X162273856Y-71285779D01*
X162270437Y-71308834D01*
X162264773Y-71331443D01*
X162256921Y-71353387D01*
X162246956Y-71374457D01*
X162234974Y-71394448D01*
X162221090Y-71413168D01*
X162205438Y-71430438D01*
X162188168Y-71446090D01*
X162169448Y-71459974D01*
X162149457Y-71471956D01*
X162128387Y-71481921D01*
X162106443Y-71489773D01*
X162083834Y-71495437D01*
X162060779Y-71498856D01*
X162037500Y-71500000D01*
X161562500Y-71500000D01*
X161539221Y-71498856D01*
X161516166Y-71495437D01*
X161493557Y-71489773D01*
X161471613Y-71481921D01*
X161450543Y-71471956D01*
X161430552Y-71459974D01*
X161411832Y-71446090D01*
X161394562Y-71430438D01*
X161378910Y-71413168D01*
X161365026Y-71394448D01*
X161353044Y-71374457D01*
X161343079Y-71353387D01*
X161335227Y-71331443D01*
X161329563Y-71308834D01*
X161326144Y-71285779D01*
X161325000Y-71262500D01*
X161325000Y-70687500D01*
X161326144Y-70664221D01*
X161329563Y-70641166D01*
X161335227Y-70618557D01*
X161343079Y-70596613D01*
X161353044Y-70575543D01*
X161365026Y-70555552D01*
X161378910Y-70536832D01*
X161394562Y-70519562D01*
X161411832Y-70503910D01*
X161430552Y-70490026D01*
X161450543Y-70478044D01*
X161471613Y-70468079D01*
X161493557Y-70460227D01*
X161516166Y-70454563D01*
X161539221Y-70451144D01*
X161562500Y-70450000D01*
X162037500Y-70450000D01*
X162060779Y-70451144D01*
X162060779Y-70451144D01*
G37*
D12*
X161800000Y-70975000D03*
D14*
X108860000Y-60900000D03*
D15*
X111400000Y-60900000D03*
X113940000Y-60900000D03*
D11*
G36*
X145635779Y-62926144D02*
G01*
X145658834Y-62929563D01*
X145681443Y-62935227D01*
X145703387Y-62943079D01*
X145724457Y-62953044D01*
X145744448Y-62965026D01*
X145763168Y-62978910D01*
X145780438Y-62994562D01*
X145796090Y-63011832D01*
X145809974Y-63030552D01*
X145821956Y-63050543D01*
X145831921Y-63071613D01*
X145839773Y-63093557D01*
X145845437Y-63116166D01*
X145848856Y-63139221D01*
X145850000Y-63162500D01*
X145850000Y-63637500D01*
X145848856Y-63660779D01*
X145845437Y-63683834D01*
X145839773Y-63706443D01*
X145831921Y-63728387D01*
X145821956Y-63749457D01*
X145809974Y-63769448D01*
X145796090Y-63788168D01*
X145780438Y-63805438D01*
X145763168Y-63821090D01*
X145744448Y-63834974D01*
X145724457Y-63846956D01*
X145703387Y-63856921D01*
X145681443Y-63864773D01*
X145658834Y-63870437D01*
X145635779Y-63873856D01*
X145612500Y-63875000D01*
X145037500Y-63875000D01*
X145014221Y-63873856D01*
X144991166Y-63870437D01*
X144968557Y-63864773D01*
X144946613Y-63856921D01*
X144925543Y-63846956D01*
X144905552Y-63834974D01*
X144886832Y-63821090D01*
X144869562Y-63805438D01*
X144853910Y-63788168D01*
X144840026Y-63769448D01*
X144828044Y-63749457D01*
X144818079Y-63728387D01*
X144810227Y-63706443D01*
X144804563Y-63683834D01*
X144801144Y-63660779D01*
X144800000Y-63637500D01*
X144800000Y-63162500D01*
X144801144Y-63139221D01*
X144804563Y-63116166D01*
X144810227Y-63093557D01*
X144818079Y-63071613D01*
X144828044Y-63050543D01*
X144840026Y-63030552D01*
X144853910Y-63011832D01*
X144869562Y-62994562D01*
X144886832Y-62978910D01*
X144905552Y-62965026D01*
X144925543Y-62953044D01*
X144946613Y-62943079D01*
X144968557Y-62935227D01*
X144991166Y-62929563D01*
X145014221Y-62926144D01*
X145037500Y-62925000D01*
X145612500Y-62925000D01*
X145635779Y-62926144D01*
X145635779Y-62926144D01*
G37*
D12*
X145325000Y-63400000D03*
D11*
G36*
X147385779Y-62926144D02*
G01*
X147408834Y-62929563D01*
X147431443Y-62935227D01*
X147453387Y-62943079D01*
X147474457Y-62953044D01*
X147494448Y-62965026D01*
X147513168Y-62978910D01*
X147530438Y-62994562D01*
X147546090Y-63011832D01*
X147559974Y-63030552D01*
X147571956Y-63050543D01*
X147581921Y-63071613D01*
X147589773Y-63093557D01*
X147595437Y-63116166D01*
X147598856Y-63139221D01*
X147600000Y-63162500D01*
X147600000Y-63637500D01*
X147598856Y-63660779D01*
X147595437Y-63683834D01*
X147589773Y-63706443D01*
X147581921Y-63728387D01*
X147571956Y-63749457D01*
X147559974Y-63769448D01*
X147546090Y-63788168D01*
X147530438Y-63805438D01*
X147513168Y-63821090D01*
X147494448Y-63834974D01*
X147474457Y-63846956D01*
X147453387Y-63856921D01*
X147431443Y-63864773D01*
X147408834Y-63870437D01*
X147385779Y-63873856D01*
X147362500Y-63875000D01*
X146787500Y-63875000D01*
X146764221Y-63873856D01*
X146741166Y-63870437D01*
X146718557Y-63864773D01*
X146696613Y-63856921D01*
X146675543Y-63846956D01*
X146655552Y-63834974D01*
X146636832Y-63821090D01*
X146619562Y-63805438D01*
X146603910Y-63788168D01*
X146590026Y-63769448D01*
X146578044Y-63749457D01*
X146568079Y-63728387D01*
X146560227Y-63706443D01*
X146554563Y-63683834D01*
X146551144Y-63660779D01*
X146550000Y-63637500D01*
X146550000Y-63162500D01*
X146551144Y-63139221D01*
X146554563Y-63116166D01*
X146560227Y-63093557D01*
X146568079Y-63071613D01*
X146578044Y-63050543D01*
X146590026Y-63030552D01*
X146603910Y-63011832D01*
X146619562Y-62994562D01*
X146636832Y-62978910D01*
X146655552Y-62965026D01*
X146675543Y-62953044D01*
X146696613Y-62943079D01*
X146718557Y-62935227D01*
X146741166Y-62929563D01*
X146764221Y-62926144D01*
X146787500Y-62925000D01*
X147362500Y-62925000D01*
X147385779Y-62926144D01*
X147385779Y-62926144D01*
G37*
D12*
X147075000Y-63400000D03*
D13*
X128330000Y-66300000D03*
X124400000Y-66300000D03*
X128330000Y-64500000D03*
X124400000Y-64500000D03*
X164235000Y-71195000D03*
X168165000Y-71195000D03*
X164235000Y-72995000D03*
X168165000Y-72995000D03*
X148200000Y-68600000D03*
X144270000Y-68600000D03*
X148200000Y-66800000D03*
X144270000Y-66800000D03*
D11*
G36*
X127460779Y-60926144D02*
G01*
X127483834Y-60929563D01*
X127506443Y-60935227D01*
X127528387Y-60943079D01*
X127549457Y-60953044D01*
X127569448Y-60965026D01*
X127588168Y-60978910D01*
X127605438Y-60994562D01*
X127621090Y-61011832D01*
X127634974Y-61030552D01*
X127646956Y-61050543D01*
X127656921Y-61071613D01*
X127664773Y-61093557D01*
X127670437Y-61116166D01*
X127673856Y-61139221D01*
X127675000Y-61162500D01*
X127675000Y-61637500D01*
X127673856Y-61660779D01*
X127670437Y-61683834D01*
X127664773Y-61706443D01*
X127656921Y-61728387D01*
X127646956Y-61749457D01*
X127634974Y-61769448D01*
X127621090Y-61788168D01*
X127605438Y-61805438D01*
X127588168Y-61821090D01*
X127569448Y-61834974D01*
X127549457Y-61846956D01*
X127528387Y-61856921D01*
X127506443Y-61864773D01*
X127483834Y-61870437D01*
X127460779Y-61873856D01*
X127437500Y-61875000D01*
X126862500Y-61875000D01*
X126839221Y-61873856D01*
X126816166Y-61870437D01*
X126793557Y-61864773D01*
X126771613Y-61856921D01*
X126750543Y-61846956D01*
X126730552Y-61834974D01*
X126711832Y-61821090D01*
X126694562Y-61805438D01*
X126678910Y-61788168D01*
X126665026Y-61769448D01*
X126653044Y-61749457D01*
X126643079Y-61728387D01*
X126635227Y-61706443D01*
X126629563Y-61683834D01*
X126626144Y-61660779D01*
X126625000Y-61637500D01*
X126625000Y-61162500D01*
X126626144Y-61139221D01*
X126629563Y-61116166D01*
X126635227Y-61093557D01*
X126643079Y-61071613D01*
X126653044Y-61050543D01*
X126665026Y-61030552D01*
X126678910Y-61011832D01*
X126694562Y-60994562D01*
X126711832Y-60978910D01*
X126730552Y-60965026D01*
X126750543Y-60953044D01*
X126771613Y-60943079D01*
X126793557Y-60935227D01*
X126816166Y-60929563D01*
X126839221Y-60926144D01*
X126862500Y-60925000D01*
X127437500Y-60925000D01*
X127460779Y-60926144D01*
X127460779Y-60926144D01*
G37*
D12*
X127150000Y-61400000D03*
D11*
G36*
X125710779Y-60926144D02*
G01*
X125733834Y-60929563D01*
X125756443Y-60935227D01*
X125778387Y-60943079D01*
X125799457Y-60953044D01*
X125819448Y-60965026D01*
X125838168Y-60978910D01*
X125855438Y-60994562D01*
X125871090Y-61011832D01*
X125884974Y-61030552D01*
X125896956Y-61050543D01*
X125906921Y-61071613D01*
X125914773Y-61093557D01*
X125920437Y-61116166D01*
X125923856Y-61139221D01*
X125925000Y-61162500D01*
X125925000Y-61637500D01*
X125923856Y-61660779D01*
X125920437Y-61683834D01*
X125914773Y-61706443D01*
X125906921Y-61728387D01*
X125896956Y-61749457D01*
X125884974Y-61769448D01*
X125871090Y-61788168D01*
X125855438Y-61805438D01*
X125838168Y-61821090D01*
X125819448Y-61834974D01*
X125799457Y-61846956D01*
X125778387Y-61856921D01*
X125756443Y-61864773D01*
X125733834Y-61870437D01*
X125710779Y-61873856D01*
X125687500Y-61875000D01*
X125112500Y-61875000D01*
X125089221Y-61873856D01*
X125066166Y-61870437D01*
X125043557Y-61864773D01*
X125021613Y-61856921D01*
X125000543Y-61846956D01*
X124980552Y-61834974D01*
X124961832Y-61821090D01*
X124944562Y-61805438D01*
X124928910Y-61788168D01*
X124915026Y-61769448D01*
X124903044Y-61749457D01*
X124893079Y-61728387D01*
X124885227Y-61706443D01*
X124879563Y-61683834D01*
X124876144Y-61660779D01*
X124875000Y-61637500D01*
X124875000Y-61162500D01*
X124876144Y-61139221D01*
X124879563Y-61116166D01*
X124885227Y-61093557D01*
X124893079Y-61071613D01*
X124903044Y-61050543D01*
X124915026Y-61030552D01*
X124928910Y-61011832D01*
X124944562Y-60994562D01*
X124961832Y-60978910D01*
X124980552Y-60965026D01*
X125000543Y-60953044D01*
X125021613Y-60943079D01*
X125043557Y-60935227D01*
X125066166Y-60929563D01*
X125089221Y-60926144D01*
X125112500Y-60925000D01*
X125687500Y-60925000D01*
X125710779Y-60926144D01*
X125710779Y-60926144D01*
G37*
D12*
X125400000Y-61400000D03*
D11*
G36*
X181960779Y-76076144D02*
G01*
X181983834Y-76079563D01*
X182006443Y-76085227D01*
X182028387Y-76093079D01*
X182049457Y-76103044D01*
X182069448Y-76115026D01*
X182088168Y-76128910D01*
X182105438Y-76144562D01*
X182121090Y-76161832D01*
X182134974Y-76180552D01*
X182146956Y-76200543D01*
X182156921Y-76221613D01*
X182164773Y-76243557D01*
X182170437Y-76266166D01*
X182173856Y-76289221D01*
X182175000Y-76312500D01*
X182175000Y-76887500D01*
X182173856Y-76910779D01*
X182170437Y-76933834D01*
X182164773Y-76956443D01*
X182156921Y-76978387D01*
X182146956Y-76999457D01*
X182134974Y-77019448D01*
X182121090Y-77038168D01*
X182105438Y-77055438D01*
X182088168Y-77071090D01*
X182069448Y-77084974D01*
X182049457Y-77096956D01*
X182028387Y-77106921D01*
X182006443Y-77114773D01*
X181983834Y-77120437D01*
X181960779Y-77123856D01*
X181937500Y-77125000D01*
X181462500Y-77125000D01*
X181439221Y-77123856D01*
X181416166Y-77120437D01*
X181393557Y-77114773D01*
X181371613Y-77106921D01*
X181350543Y-77096956D01*
X181330552Y-77084974D01*
X181311832Y-77071090D01*
X181294562Y-77055438D01*
X181278910Y-77038168D01*
X181265026Y-77019448D01*
X181253044Y-76999457D01*
X181243079Y-76978387D01*
X181235227Y-76956443D01*
X181229563Y-76933834D01*
X181226144Y-76910779D01*
X181225000Y-76887500D01*
X181225000Y-76312500D01*
X181226144Y-76289221D01*
X181229563Y-76266166D01*
X181235227Y-76243557D01*
X181243079Y-76221613D01*
X181253044Y-76200543D01*
X181265026Y-76180552D01*
X181278910Y-76161832D01*
X181294562Y-76144562D01*
X181311832Y-76128910D01*
X181330552Y-76115026D01*
X181350543Y-76103044D01*
X181371613Y-76093079D01*
X181393557Y-76085227D01*
X181416166Y-76079563D01*
X181439221Y-76076144D01*
X181462500Y-76075000D01*
X181937500Y-76075000D01*
X181960779Y-76076144D01*
X181960779Y-76076144D01*
G37*
D12*
X181700000Y-76600000D03*
D11*
G36*
X181960779Y-77826144D02*
G01*
X181983834Y-77829563D01*
X182006443Y-77835227D01*
X182028387Y-77843079D01*
X182049457Y-77853044D01*
X182069448Y-77865026D01*
X182088168Y-77878910D01*
X182105438Y-77894562D01*
X182121090Y-77911832D01*
X182134974Y-77930552D01*
X182146956Y-77950543D01*
X182156921Y-77971613D01*
X182164773Y-77993557D01*
X182170437Y-78016166D01*
X182173856Y-78039221D01*
X182175000Y-78062500D01*
X182175000Y-78637500D01*
X182173856Y-78660779D01*
X182170437Y-78683834D01*
X182164773Y-78706443D01*
X182156921Y-78728387D01*
X182146956Y-78749457D01*
X182134974Y-78769448D01*
X182121090Y-78788168D01*
X182105438Y-78805438D01*
X182088168Y-78821090D01*
X182069448Y-78834974D01*
X182049457Y-78846956D01*
X182028387Y-78856921D01*
X182006443Y-78864773D01*
X181983834Y-78870437D01*
X181960779Y-78873856D01*
X181937500Y-78875000D01*
X181462500Y-78875000D01*
X181439221Y-78873856D01*
X181416166Y-78870437D01*
X181393557Y-78864773D01*
X181371613Y-78856921D01*
X181350543Y-78846956D01*
X181330552Y-78834974D01*
X181311832Y-78821090D01*
X181294562Y-78805438D01*
X181278910Y-78788168D01*
X181265026Y-78769448D01*
X181253044Y-78749457D01*
X181243079Y-78728387D01*
X181235227Y-78706443D01*
X181229563Y-78683834D01*
X181226144Y-78660779D01*
X181225000Y-78637500D01*
X181225000Y-78062500D01*
X181226144Y-78039221D01*
X181229563Y-78016166D01*
X181235227Y-77993557D01*
X181243079Y-77971613D01*
X181253044Y-77950543D01*
X181265026Y-77930552D01*
X181278910Y-77911832D01*
X181294562Y-77894562D01*
X181311832Y-77878910D01*
X181330552Y-77865026D01*
X181350543Y-77853044D01*
X181371613Y-77843079D01*
X181393557Y-77835227D01*
X181416166Y-77829563D01*
X181439221Y-77826144D01*
X181462500Y-77825000D01*
X181937500Y-77825000D01*
X181960779Y-77826144D01*
X181960779Y-77826144D01*
G37*
D12*
X181700000Y-78350000D03*
D11*
G36*
X187560779Y-75026144D02*
G01*
X187583834Y-75029563D01*
X187606443Y-75035227D01*
X187628387Y-75043079D01*
X187649457Y-75053044D01*
X187669448Y-75065026D01*
X187688168Y-75078910D01*
X187705438Y-75094562D01*
X187721090Y-75111832D01*
X187734974Y-75130552D01*
X187746956Y-75150543D01*
X187756921Y-75171613D01*
X187764773Y-75193557D01*
X187770437Y-75216166D01*
X187773856Y-75239221D01*
X187775000Y-75262500D01*
X187775000Y-75737500D01*
X187773856Y-75760779D01*
X187770437Y-75783834D01*
X187764773Y-75806443D01*
X187756921Y-75828387D01*
X187746956Y-75849457D01*
X187734974Y-75869448D01*
X187721090Y-75888168D01*
X187705438Y-75905438D01*
X187688168Y-75921090D01*
X187669448Y-75934974D01*
X187649457Y-75946956D01*
X187628387Y-75956921D01*
X187606443Y-75964773D01*
X187583834Y-75970437D01*
X187560779Y-75973856D01*
X187537500Y-75975000D01*
X186962500Y-75975000D01*
X186939221Y-75973856D01*
X186916166Y-75970437D01*
X186893557Y-75964773D01*
X186871613Y-75956921D01*
X186850543Y-75946956D01*
X186830552Y-75934974D01*
X186811832Y-75921090D01*
X186794562Y-75905438D01*
X186778910Y-75888168D01*
X186765026Y-75869448D01*
X186753044Y-75849457D01*
X186743079Y-75828387D01*
X186735227Y-75806443D01*
X186729563Y-75783834D01*
X186726144Y-75760779D01*
X186725000Y-75737500D01*
X186725000Y-75262500D01*
X186726144Y-75239221D01*
X186729563Y-75216166D01*
X186735227Y-75193557D01*
X186743079Y-75171613D01*
X186753044Y-75150543D01*
X186765026Y-75130552D01*
X186778910Y-75111832D01*
X186794562Y-75094562D01*
X186811832Y-75078910D01*
X186830552Y-75065026D01*
X186850543Y-75053044D01*
X186871613Y-75043079D01*
X186893557Y-75035227D01*
X186916166Y-75029563D01*
X186939221Y-75026144D01*
X186962500Y-75025000D01*
X187537500Y-75025000D01*
X187560779Y-75026144D01*
X187560779Y-75026144D01*
G37*
D12*
X187250000Y-75500000D03*
D11*
G36*
X185810779Y-75026144D02*
G01*
X185833834Y-75029563D01*
X185856443Y-75035227D01*
X185878387Y-75043079D01*
X185899457Y-75053044D01*
X185919448Y-75065026D01*
X185938168Y-75078910D01*
X185955438Y-75094562D01*
X185971090Y-75111832D01*
X185984974Y-75130552D01*
X185996956Y-75150543D01*
X186006921Y-75171613D01*
X186014773Y-75193557D01*
X186020437Y-75216166D01*
X186023856Y-75239221D01*
X186025000Y-75262500D01*
X186025000Y-75737500D01*
X186023856Y-75760779D01*
X186020437Y-75783834D01*
X186014773Y-75806443D01*
X186006921Y-75828387D01*
X185996956Y-75849457D01*
X185984974Y-75869448D01*
X185971090Y-75888168D01*
X185955438Y-75905438D01*
X185938168Y-75921090D01*
X185919448Y-75934974D01*
X185899457Y-75946956D01*
X185878387Y-75956921D01*
X185856443Y-75964773D01*
X185833834Y-75970437D01*
X185810779Y-75973856D01*
X185787500Y-75975000D01*
X185212500Y-75975000D01*
X185189221Y-75973856D01*
X185166166Y-75970437D01*
X185143557Y-75964773D01*
X185121613Y-75956921D01*
X185100543Y-75946956D01*
X185080552Y-75934974D01*
X185061832Y-75921090D01*
X185044562Y-75905438D01*
X185028910Y-75888168D01*
X185015026Y-75869448D01*
X185003044Y-75849457D01*
X184993079Y-75828387D01*
X184985227Y-75806443D01*
X184979563Y-75783834D01*
X184976144Y-75760779D01*
X184975000Y-75737500D01*
X184975000Y-75262500D01*
X184976144Y-75239221D01*
X184979563Y-75216166D01*
X184985227Y-75193557D01*
X184993079Y-75171613D01*
X185003044Y-75150543D01*
X185015026Y-75130552D01*
X185028910Y-75111832D01*
X185044562Y-75094562D01*
X185061832Y-75078910D01*
X185080552Y-75065026D01*
X185100543Y-75053044D01*
X185121613Y-75043079D01*
X185143557Y-75035227D01*
X185166166Y-75029563D01*
X185189221Y-75026144D01*
X185212500Y-75025000D01*
X185787500Y-75025000D01*
X185810779Y-75026144D01*
X185810779Y-75026144D01*
G37*
D12*
X185500000Y-75500000D03*
D13*
X184400000Y-78500000D03*
X188330000Y-78500000D03*
X184400000Y-80300000D03*
X188330000Y-80300000D03*
X38165000Y-80505000D03*
X34235000Y-80505000D03*
X38165000Y-78705000D03*
X34235000Y-78705000D03*
D16*
X110700000Y-67000000D03*
X182950000Y-75450000D03*
X99200000Y-61100000D03*
X123300000Y-61400000D03*
X163300000Y-67900000D03*
X117100000Y-58300000D03*
X143262500Y-63562500D03*
X79300000Y-63300000D03*
X59300000Y-67900000D03*
X39500000Y-75300000D03*
X106500000Y-61200000D03*
X130000000Y-61400000D03*
X92200000Y-61100000D03*
X149700000Y-63400000D03*
X72800000Y-63300000D03*
X169700000Y-67900000D03*
X52300000Y-67900000D03*
X189700000Y-75500000D03*
X32600000Y-75300000D03*
D17*
X41300000Y-82400000D02*
X49100000Y-74600000D01*
X41300000Y-82400000D02*
X36100000Y-82400000D01*
X36100000Y-80600000D02*
X36100000Y-82400000D01*
X36100000Y-78700000D02*
X36100000Y-80600000D01*
X36005000Y-80505000D02*
X34235000Y-80505000D01*
X36100000Y-80600000D02*
X36005000Y-80505000D01*
X34235000Y-80505000D02*
X34585000Y-80505000D01*
X34585000Y-80505000D02*
X34590000Y-80500000D01*
X175300000Y-74700000D02*
X182700000Y-82100000D01*
X182700000Y-82100000D02*
X186500000Y-82100000D01*
X186500000Y-80000000D02*
X186500000Y-82100000D01*
X166300000Y-74700000D02*
X175300000Y-74700000D01*
X186300000Y-80200000D02*
X184400000Y-80200000D01*
X186500000Y-80000000D02*
X186300000Y-80200000D01*
X188330000Y-78510000D02*
X186500000Y-78510000D01*
X186500000Y-78510000D02*
X186500000Y-80000000D01*
X168230000Y-71195000D02*
X166300000Y-71195000D01*
X146300000Y-70300000D02*
X129000000Y-70300000D01*
X146300000Y-70300000D02*
X157500000Y-70300000D01*
X162000000Y-74800000D02*
X166300000Y-74800000D01*
X157500000Y-70300000D02*
X162000000Y-74800000D01*
X166300000Y-74700000D02*
X166300000Y-74800000D01*
X129000000Y-70300000D02*
X126400000Y-67700000D01*
X111200000Y-63500000D02*
X111200000Y-65600000D01*
X110700000Y-67000000D02*
X100900000Y-67000000D01*
X110700000Y-66100000D02*
X110700000Y-67000000D01*
X99900000Y-68000000D02*
X96100000Y-68000000D01*
X100900000Y-67000000D02*
X99900000Y-68000000D01*
X110700000Y-67000000D02*
X110700000Y-67000000D01*
X121900000Y-67000000D02*
X123100000Y-68200000D01*
X125900000Y-68200000D02*
X126400000Y-67700000D01*
X110700000Y-67000000D02*
X121900000Y-67000000D01*
X126400000Y-66100000D02*
X126400000Y-67700000D01*
X111200000Y-65600000D02*
X110700000Y-66100000D01*
X113400000Y-63500000D02*
X111200000Y-63500000D01*
X111200000Y-65600000D02*
X109470000Y-65600000D01*
X166300000Y-71195000D02*
X166300000Y-73000000D01*
X166295000Y-72995000D02*
X164300000Y-72995000D01*
X166300000Y-73000000D02*
X166295000Y-72995000D01*
X146300000Y-66810000D02*
X146300000Y-68400000D01*
X148200000Y-66810000D02*
X146300000Y-66810000D01*
X146300000Y-68400000D02*
X144270000Y-68400000D01*
X128330000Y-64510000D02*
X126400000Y-64510000D01*
X126400000Y-64510000D02*
X126400000Y-66100000D01*
X126400000Y-66100000D02*
X124400000Y-66100000D01*
X123100000Y-68200000D02*
X125900000Y-68200000D01*
X146300000Y-68400000D02*
X146300000Y-70300000D01*
X166300000Y-73000000D02*
X166300000Y-74700000D01*
X76200000Y-70300000D02*
X64800000Y-70300000D01*
X60500000Y-74600000D02*
X56400000Y-74600000D01*
X64800000Y-70300000D02*
X60500000Y-74600000D01*
X76200000Y-68600000D02*
X76105000Y-68505000D01*
X56400000Y-74300000D02*
X56400000Y-74600000D01*
X56400000Y-73000000D02*
X56400000Y-74300000D01*
X93800000Y-70300000D02*
X96100000Y-68000000D01*
X76200000Y-70300000D02*
X93800000Y-70300000D01*
X96100000Y-66600000D02*
X96100000Y-68000000D01*
X37015000Y-78705000D02*
X37010000Y-78700000D01*
X98130000Y-64600000D02*
X96400000Y-64600000D01*
X96400000Y-64600000D02*
X96200000Y-64800000D01*
X96150000Y-64800000D02*
X96100000Y-64850000D01*
X96200000Y-64800000D02*
X96150000Y-64800000D01*
X96100000Y-64850000D02*
X96100000Y-66600000D01*
X96100000Y-66600000D02*
X95900000Y-66400000D01*
X76200000Y-68600000D02*
X76200000Y-70300000D01*
X56400000Y-74600000D02*
X49100000Y-74600000D01*
X58300000Y-71000000D02*
X56400000Y-71000000D01*
X56400000Y-71000000D02*
X56400000Y-73000000D01*
X56400000Y-73000000D02*
X54370000Y-73000000D01*
X78265000Y-66705000D02*
X76205000Y-66705000D01*
X76205000Y-66705000D02*
X76200000Y-66710000D01*
X76200000Y-66710000D02*
X76200000Y-68600000D01*
X76105000Y-68505000D02*
X74335000Y-68505000D01*
X38165000Y-78705000D02*
X37015000Y-78705000D01*
X37010000Y-78700000D02*
X36100000Y-78700000D01*
X95900000Y-66400000D02*
X94200000Y-66400000D01*
X181700000Y-76600000D02*
X182900000Y-75400000D01*
X183000000Y-75500000D02*
X185500000Y-75500000D01*
X182900000Y-75400000D02*
X182950000Y-75450000D01*
X182950000Y-75450000D02*
X183000000Y-75500000D01*
X99200000Y-61100000D02*
X95900000Y-61100000D01*
X123300000Y-61400000D02*
X123300000Y-61400000D01*
X122000000Y-62700000D02*
X123300000Y-61400000D01*
X123300000Y-61400000D02*
X125400000Y-61400000D01*
X117400000Y-63350000D02*
X117400000Y-58600000D01*
X117100000Y-58300000D02*
X117100000Y-58300000D01*
X99300000Y-61100000D02*
X99200000Y-61100000D01*
X100400928Y-62200928D02*
X99300000Y-61100000D01*
X100900000Y-62725000D02*
X100400928Y-62225928D01*
X117400000Y-58600000D02*
X117100000Y-58300000D01*
X117100000Y-58300000D02*
X111700000Y-58300000D01*
X100400928Y-62225928D02*
X100400928Y-62200928D01*
X143425000Y-63400000D02*
X145325000Y-63400000D01*
X141800000Y-65025000D02*
X143262500Y-63562500D01*
X143262500Y-63562500D02*
X143425000Y-63400000D01*
X163125000Y-67900000D02*
X161800000Y-69225000D01*
X165200000Y-67900000D02*
X163300000Y-67900000D01*
X163300000Y-67900000D02*
X163125000Y-67900000D01*
X41200000Y-76650000D02*
X40700928Y-76150928D01*
X40650928Y-76150928D02*
X39800000Y-75300000D01*
X39800000Y-75300000D02*
X39500000Y-75300000D01*
X79300000Y-63300000D02*
X76300000Y-63300000D01*
X79650000Y-63300000D02*
X79300000Y-63300000D01*
X81200000Y-64850000D02*
X79650000Y-63300000D01*
X60150000Y-67900000D02*
X59300000Y-67900000D01*
X61200000Y-68950000D02*
X60150000Y-67900000D01*
X40700928Y-76150928D02*
X40650928Y-76150928D01*
X59300000Y-67900000D02*
X56200000Y-67900000D01*
X39500000Y-75300000D02*
X36150000Y-75300000D01*
X109950000Y-58300000D02*
X106800000Y-58300000D01*
X106800000Y-58300000D02*
X106500000Y-58600000D01*
X106500000Y-58600000D02*
X106500000Y-61200000D01*
X106900000Y-63500000D02*
X109470000Y-63500000D01*
X106500000Y-63100000D02*
X106750000Y-63350000D01*
X106750000Y-63350000D02*
X106900000Y-63500000D01*
X106500000Y-61200000D02*
X106500000Y-63100000D01*
X127150000Y-61400000D02*
X130000000Y-61400000D01*
X130400000Y-64580000D02*
X128680000Y-66300000D01*
X128680000Y-66300000D02*
X128330000Y-66300000D01*
X130400000Y-61400000D02*
X130400000Y-61500000D01*
X130400000Y-61500000D02*
X130400000Y-64580000D01*
X130000000Y-61400000D02*
X130400000Y-61400000D01*
X94150000Y-64550000D02*
X94200000Y-64600000D01*
X94150000Y-61100000D02*
X94150000Y-64550000D01*
X94150000Y-61100000D02*
X93525000Y-61100000D01*
X93525000Y-61100000D02*
X92200000Y-61100000D01*
X92200000Y-61100000D02*
X92200000Y-61100000D01*
X92200000Y-61100000D02*
X92200000Y-61100000D01*
X150600000Y-63500000D02*
X150500000Y-63400000D01*
X150500000Y-63400000D02*
X150300000Y-63400000D01*
X150600000Y-67350000D02*
X150600000Y-63500000D01*
X148200000Y-68600000D02*
X149350000Y-68600000D01*
X149350000Y-68600000D02*
X150600000Y-67350000D01*
X150300000Y-63400000D02*
X149700000Y-63400000D01*
X149700000Y-63400000D02*
X147075000Y-63400000D01*
X74550000Y-66490000D02*
X74335000Y-66705000D01*
X74550000Y-63300000D02*
X74550000Y-66490000D01*
X74550000Y-63300000D02*
X72800000Y-63300000D01*
X72800000Y-63300000D02*
X72800000Y-63300000D01*
X72800000Y-63300000D02*
X72800000Y-63300000D01*
X72800000Y-63300000D02*
X72800000Y-63300000D01*
X170700000Y-70810000D02*
X168515000Y-72995000D01*
X168515000Y-72995000D02*
X168165000Y-72995000D01*
X170700000Y-67900000D02*
X170700000Y-70810000D01*
X166950000Y-67900000D02*
X169700000Y-67900000D01*
X170100000Y-67900000D02*
X170700000Y-67900000D01*
X169700000Y-67900000D02*
X170100000Y-67900000D01*
X54450000Y-70920000D02*
X54370000Y-71000000D01*
X54450000Y-67900000D02*
X54450000Y-70920000D01*
X54450000Y-67900000D02*
X52300000Y-67900000D01*
X52300000Y-67900000D02*
X52300000Y-67900000D01*
X188680000Y-80300000D02*
X188330000Y-80300000D01*
X190400000Y-78580000D02*
X188680000Y-80300000D01*
X190400000Y-75500000D02*
X190400000Y-78580000D01*
X187250000Y-75500000D02*
X189700000Y-75500000D01*
X190200000Y-75500000D02*
X190400000Y-75500000D01*
X189700000Y-75500000D02*
X190200000Y-75500000D01*
X34235000Y-75465000D02*
X34400000Y-75300000D01*
X34235000Y-78705000D02*
X34235000Y-75465000D01*
X34400000Y-75300000D02*
X32600000Y-75300000D01*
X32600000Y-75300000D02*
X32600000Y-75300000D01*
X59100000Y-72800000D02*
X61200000Y-70700000D01*
X58300000Y-72800000D02*
X59100000Y-72800000D01*
X144245000Y-66775000D02*
X144270000Y-66800000D01*
X141800000Y-66775000D02*
X144245000Y-66775000D01*
X117200000Y-65300000D02*
X117400000Y-65100000D01*
X113400000Y-65300000D02*
X117200000Y-65300000D01*
X184250000Y-78350000D02*
X184400000Y-78500000D01*
X181700000Y-78350000D02*
X184250000Y-78350000D01*
X78265000Y-68505000D02*
X79295000Y-68505000D01*
X79295000Y-68505000D02*
X81200000Y-66600000D01*
X124350000Y-64450000D02*
X124400000Y-64500000D01*
X122000000Y-64450000D02*
X124350000Y-64450000D01*
X39095000Y-80505000D02*
X41200000Y-78400000D01*
X38165000Y-80505000D02*
X39095000Y-80505000D01*
X162020000Y-71195000D02*
X161800000Y-70975000D01*
X164235000Y-71195000D02*
X162020000Y-71195000D01*
X98975000Y-66400000D02*
X100900000Y-64475000D01*
X98130000Y-66400000D02*
X98975000Y-66400000D01*
M02*
