G04 #@! TF.GenerationSoftware,KiCad,Pcbnew,5.1.1-8be2ce7~80~ubuntu18.04.1*
G04 #@! TF.CreationDate,2019-04-20T15:59:31+02:00*
G04 #@! TF.ProjectId,megazord,6d656761-7a6f-4726-942e-6b696361645f,rev?*
G04 #@! TF.SameCoordinates,Original*
G04 #@! TF.FileFunction,Soldermask,Top*
G04 #@! TF.FilePolarity,Negative*
%FSLAX46Y46*%
G04 Gerber Fmt 4.6, Leading zero omitted, Abs format (unit mm)*
G04 Created by KiCad (PCBNEW 5.1.1-8be2ce7~80~ubuntu18.04.1) date 2019-04-20 15:59:31*
%MOMM*%
%LPD*%
G04 APERTURE LIST*
%ADD10C,0.100000*%
G04 APERTURE END LIST*
D10*
G36*
X117101000Y-70151000D02*
G01*
X105299000Y-70151000D01*
X105299000Y-68049000D01*
X117101000Y-68049000D01*
X117101000Y-70151000D01*
X117101000Y-70151000D01*
G37*
G36*
X114103467Y-59845668D02*
G01*
X114119567Y-59847254D01*
X114292233Y-59899632D01*
X114451364Y-59984689D01*
X114590844Y-60099156D01*
X114705311Y-60238635D01*
X114790368Y-60397766D01*
X114842746Y-60570433D01*
X114856000Y-60705002D01*
X114856000Y-61094997D01*
X114844639Y-61210342D01*
X114842746Y-61229567D01*
X114825287Y-61287122D01*
X114790368Y-61402234D01*
X114705311Y-61561365D01*
X114590844Y-61700844D01*
X114451365Y-61815311D01*
X114292234Y-61900368D01*
X114119568Y-61952746D01*
X114103468Y-61954332D01*
X113940000Y-61970432D01*
X113776533Y-61954332D01*
X113760433Y-61952746D01*
X113587767Y-61900368D01*
X113428636Y-61815311D01*
X113289157Y-61700844D01*
X113174689Y-61561365D01*
X113089632Y-61402234D01*
X113037254Y-61229567D01*
X113024000Y-61094998D01*
X113024000Y-60705003D01*
X113037254Y-60570434D01*
X113037255Y-60570432D01*
X113089632Y-60397768D01*
X113089632Y-60397767D01*
X113174689Y-60238636D01*
X113289156Y-60099156D01*
X113428635Y-59984689D01*
X113587766Y-59899632D01*
X113760432Y-59847254D01*
X113776532Y-59845668D01*
X113940000Y-59829568D01*
X114103467Y-59845668D01*
X114103467Y-59845668D01*
G37*
G36*
X111563467Y-59845668D02*
G01*
X111579567Y-59847254D01*
X111752233Y-59899632D01*
X111911364Y-59984689D01*
X112050844Y-60099156D01*
X112165311Y-60238635D01*
X112250368Y-60397766D01*
X112302746Y-60570433D01*
X112316000Y-60705002D01*
X112316000Y-61094997D01*
X112304639Y-61210342D01*
X112302746Y-61229567D01*
X112285287Y-61287122D01*
X112250368Y-61402234D01*
X112165311Y-61561365D01*
X112050844Y-61700844D01*
X111911365Y-61815311D01*
X111752234Y-61900368D01*
X111579568Y-61952746D01*
X111563468Y-61954332D01*
X111400000Y-61970432D01*
X111236533Y-61954332D01*
X111220433Y-61952746D01*
X111047767Y-61900368D01*
X110888636Y-61815311D01*
X110749157Y-61700844D01*
X110634689Y-61561365D01*
X110549632Y-61402234D01*
X110497254Y-61229567D01*
X110484000Y-61094998D01*
X110484000Y-60705003D01*
X110497254Y-60570434D01*
X110497255Y-60570432D01*
X110549632Y-60397768D01*
X110549632Y-60397767D01*
X110634689Y-60238636D01*
X110749156Y-60099156D01*
X110888635Y-59984689D01*
X111047766Y-59899632D01*
X111220432Y-59847254D01*
X111236532Y-59845668D01*
X111400000Y-59829568D01*
X111563467Y-59845668D01*
X111563467Y-59845668D01*
G37*
G36*
X109776000Y-61966000D02*
G01*
X107944000Y-61966000D01*
X107944000Y-59834000D01*
X109776000Y-59834000D01*
X109776000Y-61966000D01*
X109776000Y-61966000D01*
G37*
M02*
